G04*
G04 #@! TF.GenerationSoftware,Altium Limited,Altium Designer,20.0.10 (225)*
G04*
G04 Layer_Color=2752767*
%FSLAX25Y25*%
%MOIN*%
G70*
G01*
G75*
%ADD15C,0.00300*%
%ADD41C,0.00200*%
%ADD42C,0.00267*%
D15*
X120229Y56102D02*
G03*
X120079Y56252I-150J0D01*
G01*
X120229Y56102D02*
G03*
X120079Y56252I-150J0D01*
G01*
X116142D02*
G03*
X115992Y56102I0J-150D01*
G01*
X116142Y56252D02*
G03*
X115992Y56102I0J-150D01*
G01*
X104481D02*
G03*
X104331Y56252I-150J0D01*
G01*
X104481Y56102D02*
G03*
X104331Y56252I-150J0D01*
G01*
X120079Y-150D02*
G03*
X120229Y0I0J150D01*
G01*
X120079Y-150D02*
G03*
X120229Y0I0J150D01*
G01*
X115992D02*
G03*
X116142Y-150I150J0D01*
G01*
X115992Y0D02*
G03*
X116142Y-150I150J0D01*
G01*
X104331D02*
G03*
X104481Y0I0J150D01*
G01*
X104331Y-150D02*
G03*
X104481Y0I0J150D01*
G01*
X15748Y56252D02*
G03*
X15598Y56102I0J-150D01*
G01*
X15748Y56252D02*
G03*
X15598Y56102I0J-150D01*
G01*
X4087D02*
G03*
X3937Y56252I-150J0D01*
G01*
X4087Y56102D02*
G03*
X3937Y56252I-150J0D01*
G01*
X-0D02*
G03*
X-150Y56102I0J-150D01*
G01*
X-0Y56252D02*
G03*
X-150Y56102I0J-150D01*
G01*
X15598Y-0D02*
G03*
X15748Y-150I150J0D01*
G01*
X15598Y-0D02*
G03*
X15748Y-150I150J0D01*
G01*
X3937D02*
G03*
X4087Y-0I0J150D01*
G01*
X3937Y-150D02*
G03*
X4087Y-0I0J150D01*
G01*
X-150D02*
G03*
X0Y-150I150J0D01*
G01*
X-150Y-0D02*
G03*
X0Y-150I150J0D01*
G01*
X116142Y56252D02*
X120079D01*
X104481Y46902D02*
X115992D01*
X104481D02*
Y56102D01*
X115992Y46902D02*
Y56102D01*
X120229D02*
X120229Y0D01*
X116142Y-150D02*
X120079D01*
X115992Y0D02*
Y9200D01*
X104481Y0D02*
Y9200D01*
X115992D01*
X15748Y56252D02*
X104331Y56252D01*
X15598Y46902D02*
Y56102D01*
X4087Y46902D02*
X15598D01*
X4087D02*
Y56102D01*
X-0Y56252D02*
X3937D01*
X4087Y9200D02*
X15598D01*
Y-0D02*
Y9200D01*
X15748Y-150D02*
X104331Y-150D01*
X4087Y-0D02*
Y9200D01*
X-150Y56102D02*
X-150Y-0D01*
X0Y-150D02*
X3937D01*
D41*
X95700Y15200D02*
Y16800D01*
X97300D01*
Y15200D01*
X95700D01*
Y10200D02*
Y11800D01*
X97300D01*
Y10200D01*
X95700D01*
Y5200D02*
Y6800D01*
X97300D01*
Y5200D01*
X95700D01*
Y46184D02*
Y47784D01*
X97300D01*
Y46184D01*
X95700D01*
Y41184D02*
Y42784D01*
X97300D01*
Y41184D01*
X95700D01*
Y36184D02*
Y37784D01*
X97300D01*
Y36184D01*
X95700D01*
X20200Y5200D02*
Y6800D01*
X21800D01*
Y5200D01*
X20200D01*
Y10200D02*
Y11800D01*
X21800D01*
Y10200D01*
X20200D01*
Y15200D02*
Y16800D01*
X21800D01*
Y15200D01*
X20200D01*
Y24200D02*
Y25800D01*
X21800D01*
Y24200D01*
X20200D01*
Y29200D02*
Y30800D01*
X21800D01*
Y29200D01*
X20200D01*
Y34200D02*
Y35800D01*
X21800D01*
Y34200D01*
X20200D01*
X86500Y5200D02*
X85700Y6800D01*
X87300D01*
X86500Y5200D01*
D42*
X77800Y31996D02*
G03*
X77800Y31996I-800J0D01*
G01*
Y41996D02*
G03*
X77800Y41996I-800J0D01*
G01*
X47800Y31996D02*
G03*
X47800Y31996I-800J0D01*
G01*
Y41996D02*
G03*
X47800Y41996I-800J0D01*
G01*
X22784Y46000D02*
G03*
X22784Y46000I-800J0D01*
G01*
M02*
