G04*
G04 #@! TF.GenerationSoftware,Altium Limited,Altium Designer,20.0.10 (225)*
G04*
G04 Layer_Color=0*
%FSLAX25Y25*%
%MOIN*%
G70*
G01*
G75*
%ADD15C,0.00300*%
%ADD39C,0.00394*%
D15*
X120229Y56102D02*
G03*
X120079Y56252I-150J0D01*
G01*
X120229Y56102D02*
G03*
X120079Y56252I-150J0D01*
G01*
X116142D02*
G03*
X115992Y56102I0J-150D01*
G01*
X116142Y56252D02*
G03*
X115992Y56102I0J-150D01*
G01*
X104481D02*
G03*
X104331Y56252I-150J0D01*
G01*
X104481Y56102D02*
G03*
X104331Y56252I-150J0D01*
G01*
X120079Y-150D02*
G03*
X120229Y0I0J150D01*
G01*
X120079Y-150D02*
G03*
X120229Y0I0J150D01*
G01*
X115992D02*
G03*
X116142Y-150I150J0D01*
G01*
X115992Y0D02*
G03*
X116142Y-150I150J0D01*
G01*
X104331D02*
G03*
X104481Y0I0J150D01*
G01*
X104331Y-150D02*
G03*
X104481Y0I0J150D01*
G01*
X15748Y56252D02*
G03*
X15598Y56102I0J-150D01*
G01*
X15748Y56252D02*
G03*
X15598Y56102I0J-150D01*
G01*
X4087D02*
G03*
X3937Y56252I-150J0D01*
G01*
X4087Y56102D02*
G03*
X3937Y56252I-150J0D01*
G01*
X-0D02*
G03*
X-150Y56102I0J-150D01*
G01*
X-0Y56252D02*
G03*
X-150Y56102I0J-150D01*
G01*
X15598Y-0D02*
G03*
X15748Y-150I150J0D01*
G01*
X15598Y-0D02*
G03*
X15748Y-150I150J0D01*
G01*
X3937D02*
G03*
X4087Y-0I0J150D01*
G01*
X3937Y-150D02*
G03*
X4087Y-0I0J150D01*
G01*
X-150D02*
G03*
X0Y-150I150J0D01*
G01*
X-150Y-0D02*
G03*
X0Y-150I150J0D01*
G01*
X116142Y56252D02*
X120079D01*
X104481Y46902D02*
X115992D01*
X104481D02*
Y56102D01*
X115992Y46902D02*
Y56102D01*
X120229D02*
X120229Y0D01*
X116142Y-150D02*
X120079D01*
X115992Y0D02*
Y9200D01*
X104481Y0D02*
Y9200D01*
X115992D01*
X15748Y56252D02*
X104331Y56252D01*
X15598Y46902D02*
Y56102D01*
X4087Y46902D02*
X15598D01*
X4087D02*
Y56102D01*
X-0Y56252D02*
X3937D01*
X4087Y9200D02*
X15598D01*
Y-0D02*
Y9200D01*
X15748Y-150D02*
X104331Y-150D01*
X4087Y-0D02*
Y9200D01*
X-150Y56102D02*
X-150Y-0D01*
X0Y-150D02*
X3937D01*
D39*
X33213Y8531D02*
Y12468D01*
X31244Y10500D02*
X35181D01*
X84531Y14538D02*
X88468D01*
X86500Y12569D02*
Y16506D01*
X84531Y14538D02*
X88468D01*
X86500Y12569D02*
Y16506D01*
X33213Y24532D02*
Y28468D01*
X31244Y26500D02*
X35181D01*
X33213Y16532D02*
Y20469D01*
X31244Y18500D02*
X35181D01*
M02*
