G04*
G04 #@! TF.GenerationSoftware,Altium Limited,Altium Designer,20.0.10 (225)*
G04*
G04 Layer_Color=32768*
%FSLAX25Y25*%
%MOIN*%
G70*
G01*
G75*
%ADD12C,0.00787*%
%ADD15C,0.00300*%
%ADD39C,0.00394*%
%ADD40C,0.00197*%
D12*
X38528Y7547D02*
Y13453D01*
X27898D02*
X38528D01*
X27898Y7547D02*
Y13453D01*
Y7547D02*
X38528D01*
X84236Y19065D02*
X88764D01*
X84236Y10010D02*
Y19065D01*
Y10010D02*
X88764D01*
Y19065D01*
X28685Y24335D02*
Y28665D01*
Y24335D02*
X37740D01*
Y28665D01*
X28685D02*
X37740D01*
X27898Y15547D02*
Y21453D01*
Y15547D02*
X38528D01*
Y21453D01*
X27898D02*
X38528D01*
D15*
X120229Y56102D02*
G03*
X120079Y56252I-150J0D01*
G01*
X120229Y56102D02*
G03*
X120079Y56252I-150J0D01*
G01*
X116142D02*
G03*
X115992Y56102I0J-150D01*
G01*
X116142Y56252D02*
G03*
X115992Y56102I0J-150D01*
G01*
X104481D02*
G03*
X104331Y56252I-150J0D01*
G01*
X104481Y56102D02*
G03*
X104331Y56252I-150J0D01*
G01*
X120079Y-150D02*
G03*
X120229Y0I0J150D01*
G01*
X120079Y-150D02*
G03*
X120229Y0I0J150D01*
G01*
X115992D02*
G03*
X116142Y-150I150J0D01*
G01*
X115992Y0D02*
G03*
X116142Y-150I150J0D01*
G01*
X104331D02*
G03*
X104481Y0I0J150D01*
G01*
X104331Y-150D02*
G03*
X104481Y0I0J150D01*
G01*
X15748Y56252D02*
G03*
X15598Y56102I0J-150D01*
G01*
X15748Y56252D02*
G03*
X15598Y56102I0J-150D01*
G01*
X4087D02*
G03*
X3937Y56252I-150J0D01*
G01*
X4087Y56102D02*
G03*
X3937Y56252I-150J0D01*
G01*
X-0D02*
G03*
X-150Y56102I0J-150D01*
G01*
X-0Y56252D02*
G03*
X-150Y56102I0J-150D01*
G01*
X15598Y-0D02*
G03*
X15748Y-150I150J0D01*
G01*
X15598Y-0D02*
G03*
X15748Y-150I150J0D01*
G01*
X3937D02*
G03*
X4087Y-0I0J150D01*
G01*
X3937Y-150D02*
G03*
X4087Y-0I0J150D01*
G01*
X-150D02*
G03*
X0Y-150I150J0D01*
G01*
X-150Y-0D02*
G03*
X0Y-150I150J0D01*
G01*
X116142Y56252D02*
X120079D01*
X104481Y46902D02*
X115992D01*
X104481D02*
Y56102D01*
X115992Y46902D02*
Y56102D01*
X120229D02*
X120229Y0D01*
X116142Y-150D02*
X120079D01*
X115992Y0D02*
Y9200D01*
X104481Y0D02*
Y9200D01*
X115992D01*
X15748Y56252D02*
X104331Y56252D01*
X15598Y46902D02*
Y56102D01*
X4087Y46902D02*
X15598D01*
X4087D02*
Y56102D01*
X-0Y56252D02*
X3937D01*
X4087Y9200D02*
X15598D01*
Y-0D02*
Y9200D01*
X15748Y-150D02*
X104331Y-150D01*
X4087Y-0D02*
Y9200D01*
X-150Y56102D02*
X-150Y-0D01*
X0Y-150D02*
X3937D01*
D39*
X79635Y11776D02*
Y15516D01*
X77765Y13646D02*
X81505D01*
X32917Y32130D02*
Y35870D01*
X31047Y34000D02*
X34787D01*
X72173Y11579D02*
Y15516D01*
X70205Y13547D02*
X74142D01*
X64613Y11579D02*
Y15516D01*
X62644Y13547D02*
X66581D01*
X62000Y35028D02*
Y38965D01*
X60031Y36996D02*
X63968D01*
X56560Y12366D02*
Y16106D01*
X54690Y14236D02*
X58430D01*
D40*
X75501Y20339D02*
X83769D01*
X75501Y6953D02*
X83769D01*
Y20339D01*
X75501Y6953D02*
Y20339D01*
X28390Y31638D02*
X37445D01*
X28390Y36362D02*
X37445D01*
Y31638D02*
Y36362D01*
X28390Y31638D02*
Y36362D01*
X68039Y20240D02*
X76307D01*
X68039Y6854D02*
X76307D01*
Y20240D01*
X68039Y6854D02*
Y20240D01*
X60479D02*
X68747D01*
X60479Y6854D02*
X68747D01*
Y20240D01*
X60479Y6854D02*
Y20240D01*
X54198Y18764D02*
X58922D01*
X54198Y9709D02*
X58922D01*
Y18764D01*
X54198Y9709D02*
Y18764D01*
M02*
