G04*
G04 #@! TF.GenerationSoftware,Altium Limited,Altium Designer,20.0.10 (225)*
G04*
G04 Layer_Color=65535*
%FSLAX25Y25*%
%MOIN*%
G70*
G01*
G75*
%ADD10C,0.02362*%
%ADD11C,0.00984*%
%ADD12C,0.00787*%
%ADD13C,0.00400*%
%ADD14C,0.00800*%
%ADD15C,0.00300*%
G36*
X112642Y37031D02*
Y37005D01*
X112911Y35632D01*
Y35605D01*
X112938Y35578D01*
X112965Y35551D01*
X113880Y35175D01*
X113961D01*
X115118Y35982D01*
X115145D01*
X115199Y35955D01*
X116195Y35013D01*
Y34986D01*
Y34959D01*
Y34932D01*
Y34905D01*
X115387Y33775D01*
Y33722D01*
Y33695D01*
Y33668D01*
X115818Y32726D01*
Y32699D01*
X115845Y32672D01*
X115899D01*
X117190Y32430D01*
X117244D01*
X117271Y32403D01*
Y32376D01*
Y31004D01*
Y30977D01*
X117244Y30950D01*
X117190D01*
X115926Y30681D01*
X115899D01*
X115872Y30654D01*
X115845Y30627D01*
X115441Y29604D01*
Y29577D01*
Y29550D01*
Y29524D01*
Y29497D01*
X116195Y28447D01*
Y28393D01*
Y28366D01*
X115199Y27398D01*
X115172Y27371D01*
X115145D01*
X115118Y27398D01*
X114069Y28097D01*
X113961D01*
X113531Y27855D01*
X113477D01*
X113450Y27882D01*
X112481Y30196D01*
Y30223D01*
X112508Y30304D01*
X112642Y30358D01*
X112669Y30385D01*
X112696Y30411D01*
X112723Y30439D01*
X112804Y30492D01*
X112911Y30600D01*
X113046Y30735D01*
X113181Y30896D01*
X113288Y31111D01*
X113369Y31353D01*
X113396Y31649D01*
Y31676D01*
Y31757D01*
X113369Y31865D01*
X113342Y32026D01*
X113288Y32188D01*
X113207Y32376D01*
X113100Y32564D01*
X112965Y32726D01*
X112938Y32753D01*
X112885Y32807D01*
X112804Y32860D01*
X112669Y32968D01*
X112508Y33049D01*
X112320Y33103D01*
X112131Y33156D01*
X111889Y33183D01*
X111781D01*
X111674Y33156D01*
X111512Y33130D01*
X111351Y33076D01*
X111162Y32995D01*
X111001Y32887D01*
X110813Y32726D01*
X110786Y32699D01*
X110759Y32645D01*
X110678Y32564D01*
X110597Y32430D01*
X110517Y32268D01*
X110463Y32080D01*
X110409Y31892D01*
X110382Y31649D01*
Y31622D01*
Y31515D01*
X110409Y31380D01*
X110463Y31192D01*
X110544Y31004D01*
X110678Y30788D01*
X110839Y30600D01*
X111082Y30411D01*
Y30385D01*
X111109Y30358D01*
X111135D01*
X111270Y30304D01*
X111297Y30277D01*
Y30196D01*
X110355Y27882D01*
X110328D01*
X110248Y27855D01*
X109790Y28097D01*
X109709D01*
X108660Y27398D01*
X108633Y27371D01*
X108606D01*
X108579Y27398D01*
X107583Y28366D01*
Y28393D01*
Y28420D01*
Y28447D01*
X108337Y29497D01*
Y29524D01*
Y29550D01*
Y29577D01*
Y29604D01*
X107906Y30627D01*
Y30654D01*
X107852Y30681D01*
X106588Y30950D01*
X106561D01*
X106534Y30977D01*
X106507Y31004D01*
Y32376D01*
Y32403D01*
X106534Y32430D01*
X106588D01*
X107879Y32672D01*
X107906D01*
X107987Y32726D01*
X108364Y33668D01*
Y33695D01*
Y33722D01*
Y33748D01*
Y33775D01*
X107583Y34905D01*
Y34932D01*
Y34959D01*
Y34986D01*
Y35013D01*
X108579Y35955D01*
X108606Y35982D01*
X108660D01*
X109790Y35175D01*
X109898D01*
X110813Y35551D01*
X110839D01*
X110866Y35578D01*
Y35632D01*
X111135Y37005D01*
Y37031D01*
X111162Y37058D01*
X112616D01*
X112642Y37031D01*
D02*
G37*
G36*
X116302Y26214D02*
X116410Y26160D01*
X116195Y25891D01*
X116168Y25918D01*
X116141Y25945D01*
X116087Y25971D01*
X116033Y25998D01*
X115979D01*
X115899Y25971D01*
X115791Y25864D01*
X115764Y25783D01*
X115737Y25675D01*
Y24814D01*
X115441D01*
Y26267D01*
X115737D01*
Y26106D01*
X115764Y26133D01*
X115818Y26187D01*
X115952Y26241D01*
X116114Y26267D01*
X116195D01*
X116302Y26214D01*
D02*
G37*
G36*
X110113D02*
X110194Y26133D01*
X110274Y26052D01*
X110328Y25918D01*
X110355Y25756D01*
Y24814D01*
X110059D01*
Y25675D01*
Y25702D01*
Y25729D01*
X110032Y25837D01*
X109924Y25945D01*
X109871Y25998D01*
X109709D01*
X109628Y25971D01*
X109521Y25864D01*
X109494Y25783D01*
X109467Y25675D01*
Y24814D01*
X109171D01*
Y26267D01*
X109467D01*
Y26106D01*
X109494Y26133D01*
X109575Y26187D01*
X109682Y26241D01*
X109871Y26267D01*
X109951D01*
X110113Y26214D01*
D02*
G37*
G36*
X107207Y26241D02*
X107341Y26214D01*
X107476Y26106D01*
X107503Y26079D01*
X107529Y25971D01*
X107556Y25810D01*
Y25541D01*
Y25514D01*
Y25487D01*
Y25326D01*
X107529Y25137D01*
X107476Y24976D01*
X107449Y24949D01*
X107341Y24895D01*
X107207Y24814D01*
X107072Y24787D01*
X107045D01*
X106964Y24814D01*
X106830Y24868D01*
X106668Y24949D01*
Y23819D01*
X106695Y23845D01*
X106776Y23899D01*
X106884Y23953D01*
X107072Y23980D01*
X107153D01*
X107314Y23926D01*
X107395Y23872D01*
X107476Y23765D01*
X107529Y23657D01*
X107556Y23496D01*
Y22554D01*
X107260D01*
Y23388D01*
Y23415D01*
Y23442D01*
X107234Y23550D01*
X107126Y23657D01*
X107072Y23711D01*
X106911D01*
X106830Y23684D01*
X106722Y23576D01*
X106695Y23496D01*
X106668Y23388D01*
Y22554D01*
X106426D01*
Y26267D01*
X106668D01*
Y26106D01*
X106695Y26133D01*
X106803Y26187D01*
X106911Y26241D01*
X107072Y26267D01*
X107099D01*
X107207Y26241D01*
D02*
G37*
G36*
X111970D02*
X112131Y26187D01*
X112320Y26052D01*
X112158Y25864D01*
X112104Y25891D01*
X111997Y25945D01*
X111862Y25971D01*
X111754Y25998D01*
X111701D01*
X111620Y25971D01*
X111539Y25945D01*
X111485Y25837D01*
Y25810D01*
X111512Y25783D01*
X111566Y25729D01*
X111701Y25702D01*
X111943Y25675D01*
X112023D01*
X112158Y25595D01*
X112320Y25460D01*
X112346Y25379D01*
X112373Y25245D01*
Y25218D01*
Y25164D01*
X112346Y25110D01*
X112293Y25030D01*
X112212Y24922D01*
X112104Y24868D01*
X111970Y24814D01*
X111754Y24787D01*
X111701D01*
X111539Y24814D01*
X111351Y24895D01*
X111135Y25056D01*
X111324Y25245D01*
X111351Y25218D01*
X111458Y25164D01*
X111620Y25083D01*
X111781Y25056D01*
X111835D01*
X111943Y25083D01*
X112023Y25137D01*
X112077Y25191D01*
Y25245D01*
Y25272D01*
X112050Y25299D01*
X111997Y25352D01*
X111889Y25406D01*
X111593D01*
X111566Y25433D01*
X111432Y25487D01*
X111297Y25622D01*
X111270Y25702D01*
X111243Y25837D01*
Y25864D01*
Y25918D01*
X111297Y26052D01*
X111378Y26133D01*
X111458Y26214D01*
X111593Y26241D01*
X111754Y26267D01*
X111808D01*
X111970Y26241D01*
D02*
G37*
G36*
X117217D02*
X117379Y26160D01*
X117540Y26025D01*
X117325Y25837D01*
X117298Y25864D01*
X117244Y25918D01*
X117163Y25971D01*
X117029Y25998D01*
X116975D01*
X116867Y25945D01*
X116787Y25891D01*
X116733Y25810D01*
X116706Y25702D01*
X116679Y25541D01*
Y25514D01*
Y25460D01*
X116733Y25326D01*
X116840Y25164D01*
X116921Y25110D01*
X117029Y25083D01*
X117056D01*
X117136Y25110D01*
X117217Y25164D01*
X117325Y25245D01*
X117540Y25056D01*
X117513Y25003D01*
X117405Y24922D01*
X117244Y24841D01*
X117029Y24787D01*
X116921D01*
X116814Y24841D01*
X116706Y24895D01*
X116598Y24976D01*
X116491Y25110D01*
X116410Y25299D01*
X116383Y25541D01*
Y25568D01*
Y25648D01*
X116410Y25783D01*
X116464Y25918D01*
X116544Y26025D01*
X116652Y26160D01*
X116814Y26241D01*
X117029Y26267D01*
X117083D01*
X117217Y26241D01*
D02*
G37*
G36*
X115118Y24814D02*
X114822D01*
Y24949D01*
X114795Y24922D01*
X114715Y24868D01*
X114607Y24814D01*
X114472Y24787D01*
X114392D01*
X114230Y24841D01*
X114122Y24895D01*
X114042Y25003D01*
X113988Y25110D01*
X113961Y25272D01*
Y26267D01*
X114257D01*
Y25406D01*
Y25352D01*
X114284Y25245D01*
X114392Y25137D01*
X114445Y25110D01*
X114553Y25083D01*
X114607D01*
X114688Y25137D01*
X114768Y25218D01*
X114822Y25299D01*
Y25406D01*
Y26267D01*
X115118D01*
Y24814D01*
D02*
G37*
G36*
X118401Y26241D02*
X118536Y26187D01*
X118643Y26133D01*
X118724Y26025D01*
X118805Y25864D01*
X118832Y25675D01*
Y25406D01*
X117917D01*
Y25379D01*
Y25352D01*
X117971Y25245D01*
X118078Y25110D01*
X118159Y25083D01*
X118267Y25056D01*
X118293D01*
X118374Y25083D01*
X118482Y25137D01*
X118563Y25218D01*
X118778Y25030D01*
X118751Y25003D01*
X118643Y24922D01*
X118482Y24814D01*
X118267Y24787D01*
X118159D01*
X118051Y24841D01*
X117944Y24895D01*
X117836Y24976D01*
X117728Y25110D01*
X117648Y25299D01*
X117621Y25541D01*
Y25568D01*
Y25648D01*
X117648Y25783D01*
X117701Y25918D01*
X117755Y26025D01*
X117863Y26160D01*
X118024Y26241D01*
X118213Y26267D01*
X118321D01*
X118401Y26241D01*
D02*
G37*
G36*
X113288D02*
X113423Y26214D01*
X113557Y26106D01*
X113584Y26079D01*
X113638Y25971D01*
X113692Y25810D01*
X113719Y25541D01*
Y25514D01*
Y25487D01*
X113692Y25326D01*
X113665Y25137D01*
X113557Y24976D01*
X113531Y24949D01*
X113450Y24895D01*
X113315Y24814D01*
X113127Y24787D01*
X113073D01*
X112965Y24814D01*
X112831Y24868D01*
X112669Y24976D01*
X112642Y25003D01*
X112616Y25110D01*
X112562Y25299D01*
X112535Y25541D01*
Y25568D01*
Y25595D01*
X112562Y25756D01*
X112589Y25945D01*
X112669Y26106D01*
X112696Y26133D01*
X112777Y26187D01*
X112938Y26241D01*
X113127Y26267D01*
X113181D01*
X113288Y26241D01*
D02*
G37*
G36*
X108525D02*
X108660Y26187D01*
X108767Y26133D01*
X108848Y26025D01*
X108929Y25864D01*
X108956Y25675D01*
Y25406D01*
X108041D01*
Y25379D01*
Y25352D01*
X108095Y25245D01*
X108175Y25110D01*
X108256Y25083D01*
X108364Y25056D01*
X108391D01*
X108498Y25083D01*
X108579Y25137D01*
X108687Y25218D01*
X108929Y25030D01*
X108875Y25003D01*
X108767Y24922D01*
X108606Y24814D01*
X108391Y24787D01*
X108283D01*
X108175Y24841D01*
X108068Y24895D01*
X107960Y24976D01*
X107852Y25110D01*
X107772Y25299D01*
X107745Y25541D01*
Y25568D01*
Y25648D01*
X107772Y25783D01*
X107826Y25918D01*
X107879Y26025D01*
X107987Y26160D01*
X108149Y26241D01*
X108337Y26267D01*
X108444D01*
X108525Y26241D01*
D02*
G37*
G36*
X105754D02*
X105888Y26214D01*
X105996Y26106D01*
X106023Y26079D01*
X106076Y25971D01*
X106130Y25810D01*
X106157Y25541D01*
Y25514D01*
Y25487D01*
X106130Y25326D01*
X106103Y25137D01*
X105996Y24976D01*
X105969Y24949D01*
X105888Y24895D01*
X105754Y24814D01*
X105565Y24787D01*
X105511D01*
X105404Y24814D01*
X105269Y24868D01*
X105108Y24976D01*
X105081Y25003D01*
X105054Y25137D01*
X105027Y25299D01*
X105000Y25541D01*
Y25568D01*
Y25595D01*
X105027Y25756D01*
X105054Y25918D01*
X105108Y26106D01*
X105134Y26133D01*
X105215Y26187D01*
X105377Y26241D01*
X105565Y26267D01*
X105619D01*
X105754Y26241D01*
D02*
G37*
G36*
X115952Y23926D02*
X116060Y23872D01*
X115818Y23630D01*
Y23657D01*
X115764Y23684D01*
X115710Y23711D01*
X115576D01*
X115495Y23684D01*
X115414Y23576D01*
X115360Y23496D01*
Y23388D01*
Y22554D01*
X115064D01*
Y23980D01*
X115360D01*
Y23819D01*
X115387Y23845D01*
X115468Y23899D01*
X115576Y23953D01*
X115764Y23980D01*
X115845D01*
X115952Y23926D01*
D02*
G37*
G36*
X111378Y22554D02*
X111082D01*
Y22661D01*
X111055Y22635D01*
X110974Y22581D01*
X110866Y22527D01*
X110705Y22500D01*
X110678D01*
X110570Y22527D01*
X110436Y22581D01*
X110328Y22715D01*
X110301Y22742D01*
X110274Y22823D01*
X110248Y22877D01*
Y22984D01*
X110221Y23092D01*
Y23254D01*
Y23280D01*
Y23334D01*
X110248Y23496D01*
X110274Y23684D01*
X110301Y23765D01*
X110328Y23819D01*
X110355Y23845D01*
X110409Y23899D01*
X110544Y23953D01*
X110705Y23980D01*
X110732D01*
X110839Y23953D01*
X110947Y23926D01*
X111082Y23819D01*
Y24572D01*
X111378D01*
Y22554D01*
D02*
G37*
G36*
X110113Y23926D02*
X110221Y23872D01*
X110005Y23630D01*
X109978Y23657D01*
X109951Y23684D01*
X109871Y23711D01*
X109763D01*
X109682Y23684D01*
X109575Y23576D01*
X109548Y23496D01*
Y23388D01*
Y22554D01*
X109252D01*
Y23980D01*
X109548D01*
Y23819D01*
X109575Y23845D01*
X109628Y23899D01*
X109736Y23953D01*
X109898Y23980D01*
X110005D01*
X110113Y23926D01*
D02*
G37*
G36*
X113127Y22554D02*
X112858D01*
X112535Y23550D01*
X112239Y22554D01*
X111997D01*
X111539Y23980D01*
X111835D01*
X112104Y22957D01*
X112454Y23980D01*
X112669D01*
X112992Y22957D01*
X113261Y23980D01*
X113584D01*
X113127Y22554D01*
D02*
G37*
G36*
X114472Y23926D02*
X114553Y23872D01*
X114661Y23792D01*
X114715Y23684D01*
X114741Y23523D01*
Y22554D01*
X114472D01*
Y22661D01*
X114445Y22635D01*
X114392Y22581D01*
X114257Y22527D01*
X114096Y22500D01*
X114015D01*
X113853Y22554D01*
X113746Y22608D01*
X113665Y22688D01*
X113611Y22796D01*
X113584Y22957D01*
Y22984D01*
Y23038D01*
X113638Y23173D01*
X113692Y23254D01*
X113800Y23334D01*
X113907Y23361D01*
X114069Y23388D01*
X114472D01*
Y23523D01*
Y23550D01*
X114445Y23630D01*
X114338Y23684D01*
X114284Y23711D01*
X114069D01*
X113961Y23684D01*
X113907Y23630D01*
X113692Y23792D01*
X113719Y23819D01*
X113800Y23899D01*
X113934Y23953D01*
X114176Y23980D01*
X114257D01*
X114472Y23926D01*
D02*
G37*
G36*
X108498Y23953D02*
X108633Y23926D01*
X108740Y23872D01*
X108821Y23792D01*
X108902Y23684D01*
X108929Y23523D01*
Y22554D01*
X108633D01*
Y22661D01*
X108606Y22635D01*
X108552Y22581D01*
X108444Y22527D01*
X108283Y22500D01*
X108202D01*
X108014Y22554D01*
X107906Y22608D01*
X107826Y22688D01*
X107772Y22796D01*
X107745Y22957D01*
Y22984D01*
Y23038D01*
X107799Y23173D01*
X107852Y23254D01*
X107960Y23334D01*
X108068Y23361D01*
X108229Y23388D01*
X108633D01*
Y23523D01*
Y23550D01*
X108606Y23630D01*
X108498Y23684D01*
X108444Y23711D01*
X108229D01*
X108122Y23684D01*
X108041Y23630D01*
X107826Y23792D01*
X107852Y23819D01*
X107960Y23899D01*
X108095Y23953D01*
X108310Y23980D01*
X108418D01*
X108498Y23953D01*
D02*
G37*
G36*
X116840D02*
X116975Y23899D01*
X117083Y23845D01*
X117163Y23738D01*
X117244Y23576D01*
X117271Y23388D01*
Y23119D01*
X116356D01*
Y23092D01*
Y23065D01*
X116410Y22957D01*
X116491Y22823D01*
X116571Y22796D01*
X116679Y22769D01*
X116706D01*
X116814Y22796D01*
X116894Y22850D01*
X117002Y22931D01*
X117217Y22742D01*
X117190Y22715D01*
X117083Y22635D01*
X116921Y22527D01*
X116706Y22500D01*
X116598D01*
X116491Y22554D01*
X116383Y22608D01*
X116275Y22688D01*
X116168Y22823D01*
X116087Y23011D01*
X116060Y23254D01*
Y23280D01*
Y23361D01*
X116087Y23496D01*
X116141Y23630D01*
X116195Y23738D01*
X116302Y23872D01*
X116464Y23953D01*
X116652Y23980D01*
X116760D01*
X116840Y23953D01*
D02*
G37*
%LPC*%
G36*
X106964Y25998D02*
X106911D01*
X106830Y25945D01*
X106776Y25891D01*
X106722Y25810D01*
X106695Y25702D01*
X106668Y25541D01*
Y25514D01*
Y25460D01*
X106695Y25326D01*
X106803Y25164D01*
X106857Y25110D01*
X106964Y25083D01*
X107018D01*
X107126Y25137D01*
X107180Y25191D01*
X107207Y25272D01*
X107260Y25379D01*
Y25541D01*
Y25568D01*
Y25622D01*
X107234Y25783D01*
X107126Y25918D01*
X107072Y25971D01*
X106964Y25998D01*
D02*
G37*
G36*
X118293D02*
X118159D01*
X118078Y25971D01*
X117971Y25864D01*
X117944Y25783D01*
X117917Y25675D01*
X118536D01*
Y25702D01*
Y25729D01*
X118482Y25837D01*
X118374Y25945D01*
X118293Y25998D01*
D02*
G37*
G36*
X113127D02*
X113100D01*
X113046Y25971D01*
X112965Y25945D01*
X112911Y25864D01*
X112885Y25810D01*
X112858Y25702D01*
X112831Y25541D01*
Y25487D01*
Y25406D01*
X112858Y25272D01*
X112911Y25191D01*
Y25164D01*
X112938Y25137D01*
X113019Y25110D01*
X113127Y25083D01*
X113154D01*
X113207Y25110D01*
X113288Y25137D01*
X113342Y25191D01*
X113369Y25218D01*
X113396Y25272D01*
X113423Y25379D01*
Y25541D01*
Y25595D01*
Y25675D01*
X113396Y25783D01*
X113342Y25864D01*
Y25891D01*
X113288Y25945D01*
X113234Y25971D01*
X113127Y25998D01*
D02*
G37*
G36*
X108418D02*
X108283D01*
X108202Y25971D01*
X108095Y25864D01*
X108068Y25783D01*
X108041Y25675D01*
X108660D01*
Y25702D01*
Y25729D01*
X108606Y25837D01*
X108498Y25945D01*
X108418Y25998D01*
D02*
G37*
G36*
X105565D02*
X105538D01*
X105484Y25971D01*
X105404Y25945D01*
X105350Y25864D01*
X105323Y25837D01*
X105296Y25783D01*
X105269Y25675D01*
X105242Y25541D01*
Y25514D01*
X105269Y25406D01*
X105296Y25299D01*
X105350Y25191D01*
Y25164D01*
X105377Y25137D01*
X105457Y25110D01*
X105565Y25083D01*
X105592D01*
X105673Y25110D01*
X105754Y25137D01*
X105807Y25191D01*
Y25218D01*
X105834Y25272D01*
X105861Y25379D01*
Y25541D01*
Y25595D01*
Y25675D01*
X105834Y25783D01*
X105807Y25864D01*
X105780Y25891D01*
X105754Y25945D01*
X105673Y25971D01*
X105565Y25998D01*
D02*
G37*
G36*
X110813Y23711D02*
X110759D01*
X110678Y23657D01*
X110624Y23603D01*
X110570Y23523D01*
X110544Y23415D01*
X110517Y23254D01*
Y23227D01*
Y23173D01*
X110544Y23038D01*
X110651Y22877D01*
X110705Y22823D01*
X110813Y22796D01*
X110866D01*
X110947Y22850D01*
X111001Y22904D01*
X111028Y22984D01*
X111082Y23092D01*
Y23254D01*
Y23280D01*
Y23334D01*
X111055Y23496D01*
X110974Y23630D01*
X110893Y23684D01*
X110813Y23711D01*
D02*
G37*
G36*
X114472Y23119D02*
X114096D01*
X114015Y23092D01*
X113907Y23065D01*
X113880Y22957D01*
Y22931D01*
X113907Y22877D01*
X113988Y22796D01*
X114122Y22769D01*
X114176D01*
X114311Y22796D01*
X114418Y22877D01*
X114445Y22957D01*
X114472Y23038D01*
Y23119D01*
D02*
G37*
G36*
X108633D02*
X108256D01*
X108175Y23092D01*
X108068Y23065D01*
X108041Y22957D01*
Y22931D01*
X108068Y22877D01*
X108149Y22796D01*
X108310Y22769D01*
X108364D01*
X108471Y22796D01*
X108579Y22877D01*
X108633Y22957D01*
Y23038D01*
Y23119D01*
D02*
G37*
G36*
X116733Y23711D02*
X116598D01*
X116517Y23684D01*
X116410Y23576D01*
X116383Y23496D01*
X116356Y23388D01*
X116975D01*
Y23415D01*
Y23442D01*
X116921Y23550D01*
X116814Y23657D01*
X116733Y23711D01*
D02*
G37*
%LPD*%
D10*
X56685Y43098D02*
G03*
X56685Y43098I-1181J0D01*
G01*
D11*
X47492Y47114D02*
G03*
X47492Y47114I-492J0D01*
G01*
X22476Y54071D02*
G03*
X22476Y54071I-492J0D01*
G01*
D12*
X59500Y47035D02*
G03*
X64500Y47035I2500J0D01*
G01*
X92957Y19543D02*
X100043D01*
X92957Y2457D02*
Y19543D01*
Y2457D02*
X100043D01*
Y19543D01*
X92957Y50528D02*
X100043D01*
X92957Y33441D02*
Y50528D01*
Y33441D02*
X100043D01*
Y50528D01*
X29866Y13847D02*
X36559D01*
X29866Y7153D02*
X36559D01*
X89945Y10486D02*
Y18589D01*
X83055Y10486D02*
Y18589D01*
X29827Y23232D02*
X36520D01*
X29866Y29847D02*
X36559D01*
X51567Y26957D02*
X72433D01*
X64500Y47035D02*
X72433D01*
X51567D02*
X59500D01*
X72433Y26957D02*
Y47035D01*
X51567Y26957D02*
Y47035D01*
X29866Y15154D02*
X36559D01*
X29866Y21847D02*
X36559D01*
X16472Y40488D02*
Y51512D01*
X16473Y40488D02*
X27496D01*
Y51512D01*
X16472Y51512D02*
X27496D01*
X17457Y2457D02*
X24543D01*
Y19543D01*
X17457D02*
X24543D01*
X17457Y2457D02*
Y19543D01*
Y21457D02*
X24543D01*
Y38543D01*
X17457D02*
X24543D01*
X17457Y21457D02*
Y38543D01*
D13*
X91100Y47400D02*
X90800Y47699D01*
X90200D01*
X89900Y47400D01*
Y47100D01*
X90200Y46800D01*
X90800D01*
X91100Y46500D01*
Y46200D01*
X90800Y45900D01*
X90200D01*
X89900Y46200D01*
X90900Y6699D02*
X92100D01*
X91500D01*
Y4900D01*
X92100Y16399D02*
X91800Y16699D01*
X91200D01*
X90900Y16399D01*
Y16100D01*
X91200Y15800D01*
X91800D01*
X92100Y15500D01*
Y15200D01*
X91800Y14900D01*
X91200D01*
X90900Y15200D01*
X89900Y40900D02*
Y42699D01*
X90800D01*
X91100Y42399D01*
Y41800D01*
X90800Y41500D01*
X89900D01*
X90500D02*
X91100Y40900D01*
X89900Y37699D02*
X91100D01*
X90500D01*
Y35900D01*
X90900Y9900D02*
Y11699D01*
X91800D01*
X92100Y11400D01*
Y10800D01*
X91800Y10500D01*
X90900D01*
X91500D02*
X92100Y9900D01*
X25900Y28900D02*
Y30699D01*
X26800D01*
X27100Y30400D01*
Y29800D01*
X26800Y29500D01*
X25900D01*
X26500D02*
X27100Y28900D01*
Y6400D02*
X26800Y6699D01*
X26200D01*
X25900Y6400D01*
Y6100D01*
X26200Y5800D01*
X26800D01*
X27100Y5500D01*
Y5200D01*
X26800Y4900D01*
X26200D01*
X25900Y5200D01*
Y16699D02*
X27100D01*
X26500D01*
Y14900D01*
X25900Y35699D02*
X27100D01*
X26500D01*
Y33900D01*
X27100Y25400D02*
X26800Y25699D01*
X26200D01*
X25900Y25400D01*
Y25100D01*
X26200Y24800D01*
X26800D01*
X27100Y24500D01*
Y24200D01*
X26800Y23900D01*
X26200D01*
X25900Y24200D01*
Y9900D02*
Y11699D01*
X26800D01*
X27100Y11400D01*
Y10800D01*
X26800Y10500D01*
X25900D01*
X26500D02*
X27100Y9900D01*
D14*
X6677Y16610D02*
X11200D01*
X9772Y18038D02*
Y14229D01*
X6201Y16848D01*
X11200D01*
Y15895D02*
Y17562D01*
X6915Y21823D02*
X6201Y22061D01*
X7629D01*
X6915Y21823D01*
X6439Y21347D01*
X6201Y20632D01*
Y19918D01*
X6439Y19204D01*
X6915Y18728D01*
X7391D01*
X7867Y18966D01*
X8105Y19204D01*
X8343Y19680D01*
X8820Y21109D01*
X9058Y21585D01*
X9534Y22061D01*
X7391Y18728D02*
X7867Y19204D01*
X8105Y19680D01*
X8581Y21109D01*
X8820Y21585D01*
X9058Y21823D01*
X9534Y22061D01*
X10486D01*
X10962Y21585D01*
X11200Y20870D01*
Y20156D01*
X10962Y19442D01*
X10486Y18966D01*
X9772Y18728D01*
X11200D01*
X10486Y18966D01*
X6915Y25655D02*
X7153Y25417D01*
X7391Y25655D01*
X7153Y25893D01*
X6915D01*
X6439Y25655D01*
X6201Y25179D01*
Y24465D01*
X6439Y23751D01*
X6915Y23275D01*
X7391Y23037D01*
X8343Y22799D01*
X9772D01*
X10486Y23037D01*
X10962Y23513D01*
X11200Y24227D01*
Y24703D01*
X10962Y25417D01*
X10486Y25893D01*
X9772Y26131D01*
X9534D01*
X8820Y25893D01*
X8343Y25417D01*
X8105Y24703D01*
Y24465D01*
X8343Y23751D01*
X8820Y23275D01*
X9534Y23037D01*
X6201Y24465D02*
X6439Y23989D01*
X6915Y23513D01*
X7391Y23275D01*
X8343Y23037D01*
X9772D01*
X10486Y23275D01*
X10962Y23751D01*
X11200Y24227D01*
Y24703D02*
X10962Y25179D01*
X10486Y25655D01*
X9772Y25893D01*
X9534D01*
X8820Y25655D01*
X8343Y25179D01*
X8105Y24703D01*
X6201Y28536D02*
X11200D01*
X6201Y28773D02*
X11200D01*
X6201Y27107D02*
X7629Y26869D01*
X6201D01*
Y30440D01*
X7629D01*
X6201Y30202D01*
X11200Y27821D02*
Y29488D01*
X6201Y31868D02*
X11200D01*
X6201Y32106D02*
X10486Y33534D01*
X6201Y31868D02*
X11200Y33534D01*
X6201Y35201D02*
X11200Y33534D01*
X6201Y35201D02*
X11200D01*
X6201Y35439D02*
X11200D01*
X6201Y31154D02*
Y32106D01*
Y35201D02*
Y36153D01*
X11200Y31154D02*
Y32582D01*
Y34487D02*
Y36153D01*
X6201Y37438D02*
X11200D01*
X6201Y37676D02*
X11200D01*
X6201Y36724D02*
Y39581D01*
X6439Y40295D01*
X6677Y40533D01*
X7153Y40771D01*
X7867D01*
X8343Y40533D01*
X8581Y40295D01*
X8820Y39581D01*
Y37676D01*
X6201Y39581D02*
X6439Y40057D01*
X6677Y40295D01*
X7153Y40533D01*
X7867D01*
X8343Y40295D01*
X8581Y40057D01*
X8820Y39581D01*
X11200Y36724D02*
Y38390D01*
X41417Y11666D02*
X40834Y12249D01*
X39667D01*
X39084Y11666D01*
Y9334D01*
X39667Y8751D01*
X40834D01*
X41417Y9334D01*
X44916Y8751D02*
X42583D01*
X44916Y11083D01*
Y11666D01*
X44333Y12249D01*
X43166D01*
X42583Y11666D01*
X88749Y1584D02*
X85251D01*
Y3334D01*
X85834Y3917D01*
X87000D01*
X87583Y3334D01*
Y1584D01*
Y2751D02*
X88749Y3917D01*
X85251Y7416D02*
X85834Y6249D01*
X87000Y5083D01*
X88166D01*
X88749Y5666D01*
Y6833D01*
X88166Y7416D01*
X87583D01*
X87000Y6833D01*
Y5083D01*
X81384Y1584D02*
X77886D01*
Y3334D01*
X78469Y3917D01*
X79635D01*
X80218Y3334D01*
Y1584D01*
Y2751D02*
X81384Y3917D01*
Y5083D02*
Y6249D01*
Y5666D01*
X77886D01*
X78469Y5083D01*
X41417Y27666D02*
X40834Y28249D01*
X39667D01*
X39084Y27666D01*
Y25334D01*
X39667Y24751D01*
X40834D01*
X41417Y25334D01*
X42583Y27666D02*
X43166Y28249D01*
X44333D01*
X44916Y27666D01*
Y27083D01*
X44333Y26500D01*
X43749D01*
X44333D01*
X44916Y25917D01*
Y25334D01*
X44333Y24751D01*
X43166D01*
X42583Y25334D01*
X30084Y37251D02*
Y40749D01*
X31834D01*
X32417Y40166D01*
Y39000D01*
X31834Y38417D01*
X30084D01*
X31251D02*
X32417Y37251D01*
X35916D02*
X33583D01*
X35916Y39583D01*
Y40166D01*
X35333Y40749D01*
X34166D01*
X33583Y40166D01*
X73922Y1584D02*
X70424D01*
Y3334D01*
X71007Y3917D01*
X72173D01*
X72756Y3334D01*
Y1584D01*
Y2751D02*
X73922Y3917D01*
Y6833D02*
X70424D01*
X72173Y5083D01*
Y7416D01*
X66362Y1584D02*
X62863D01*
Y3334D01*
X63446Y3917D01*
X64613D01*
X65196Y3334D01*
Y1584D01*
Y2751D02*
X66362Y3917D01*
X62863Y7416D02*
Y5083D01*
X64613D01*
X64030Y6249D01*
Y6833D01*
X64613Y7416D01*
X65779D01*
X66362Y6833D01*
Y5666D01*
X65779Y5083D01*
X60167Y51749D02*
Y48834D01*
X60751Y48251D01*
X61917D01*
X62500Y48834D01*
Y51749D01*
X63666Y48251D02*
X64833D01*
X64249D01*
Y51749D01*
X63666Y51166D01*
X41417Y19666D02*
X40834Y20249D01*
X39667D01*
X39084Y19666D01*
Y17334D01*
X39667Y16751D01*
X40834D01*
X41417Y17334D01*
X42583Y16751D02*
X43749D01*
X43166D01*
Y20249D01*
X42583Y19666D01*
X58310Y1584D02*
X54811D01*
Y3334D01*
X55394Y3917D01*
X56560D01*
X57143Y3334D01*
Y1584D01*
Y2751D02*
X58310Y3917D01*
X55394Y5083D02*
X54811Y5666D01*
Y6833D01*
X55394Y7416D01*
X55977D01*
X56560Y6833D01*
Y6249D01*
Y6833D01*
X57143Y7416D01*
X57727D01*
X58310Y6833D01*
Y5666D01*
X57727Y5083D01*
D15*
X120229Y56102D02*
G03*
X120079Y56252I-150J0D01*
G01*
X120229Y56102D02*
G03*
X120079Y56252I-150J0D01*
G01*
X116142D02*
G03*
X115992Y56102I0J-150D01*
G01*
X116142Y56252D02*
G03*
X115992Y56102I0J-150D01*
G01*
X104481D02*
G03*
X104331Y56252I-150J0D01*
G01*
X104481Y56102D02*
G03*
X104331Y56252I-150J0D01*
G01*
X120079Y-150D02*
G03*
X120229Y0I0J150D01*
G01*
X120079Y-150D02*
G03*
X120229Y0I0J150D01*
G01*
X115992D02*
G03*
X116142Y-150I150J0D01*
G01*
X115992Y0D02*
G03*
X116142Y-150I150J0D01*
G01*
X104331D02*
G03*
X104481Y0I0J150D01*
G01*
X104331Y-150D02*
G03*
X104481Y0I0J150D01*
G01*
X15748Y56252D02*
G03*
X15598Y56102I0J-150D01*
G01*
X15748Y56252D02*
G03*
X15598Y56102I0J-150D01*
G01*
X4087D02*
G03*
X3937Y56252I-150J0D01*
G01*
X4087Y56102D02*
G03*
X3937Y56252I-150J0D01*
G01*
X-0D02*
G03*
X-150Y56102I0J-150D01*
G01*
X-0Y56252D02*
G03*
X-150Y56102I0J-150D01*
G01*
X15598Y-0D02*
G03*
X15748Y-150I150J0D01*
G01*
X15598Y-0D02*
G03*
X15748Y-150I150J0D01*
G01*
X3937D02*
G03*
X4087Y-0I0J150D01*
G01*
X3937Y-150D02*
G03*
X4087Y-0I0J150D01*
G01*
X-150D02*
G03*
X0Y-150I150J0D01*
G01*
X-150Y-0D02*
G03*
X0Y-150I150J0D01*
G01*
X116142Y56252D02*
X120079D01*
X104481Y46902D02*
X115992D01*
X104481D02*
Y56102D01*
X115992Y46902D02*
Y56102D01*
X120229D02*
X120229Y0D01*
X116142Y-150D02*
X120079D01*
X115992Y0D02*
Y9200D01*
X104481Y0D02*
Y9200D01*
X115992D01*
X15748Y56252D02*
X104331Y56252D01*
X15598Y46902D02*
Y56102D01*
X4087Y46902D02*
X15598D01*
X4087D02*
Y56102D01*
X-0Y56252D02*
X3937D01*
X4087Y9200D02*
X15598D01*
Y-0D02*
Y9200D01*
X15748Y-150D02*
X104331Y-150D01*
X4087Y-0D02*
Y9200D01*
X-150Y56102D02*
X-150Y-0D01*
X0Y-150D02*
X3937D01*
M02*
