G04*
G04 #@! TF.GenerationSoftware,Altium Limited,Altium Designer,20.0.10 (225)*
G04*
G04 Layer_Physical_Order=1*
G04 Layer_Color=255*
%FSLAX25Y25*%
%MOIN*%
G70*
G01*
G75*
%ADD15C,0.00300*%
%ADD16R,0.03150X0.03543*%
%ADD17R,0.03543X0.02559*%
%ADD18R,0.04134X0.03543*%
%ADD19R,0.02756X0.02756*%
%ADD20R,0.02953X0.03347*%
%ADD21R,0.04331X0.03937*%
%ADD22R,0.03347X0.02953*%
%ADD32C,0.02000*%
%ADD33C,0.03937*%
%ADD34R,0.03937X0.03937*%
%ADD35C,0.05906*%
%ADD36R,0.05906X0.05906*%
%ADD37C,0.05000*%
G36*
X120079Y0D02*
X116142D01*
Y9350D01*
X104331D01*
Y0D01*
X94091D01*
X93884Y500D01*
X95639Y2255D01*
X96002Y2592D01*
X96299Y2830D01*
X96559Y3011D01*
X96595Y3032D01*
X97334D01*
X97372Y3024D01*
X97410Y3032D01*
X99468D01*
Y8969D01*
X99248D01*
X99027Y9417D01*
X99093Y9503D01*
X99392Y10225D01*
X99494Y11000D01*
X99392Y11775D01*
X99093Y12497D01*
X98617Y13117D01*
X97997Y13593D01*
X97275Y13892D01*
X96500Y13994D01*
X95725Y13892D01*
X95003Y13593D01*
X94383Y13117D01*
X93907Y12497D01*
X93608Y11775D01*
X93506Y11000D01*
X93608Y10225D01*
X93907Y9503D01*
X93973Y9417D01*
X93752Y8969D01*
X93532D01*
Y6910D01*
X93524Y6872D01*
X93532Y6834D01*
Y6095D01*
X93511Y6059D01*
X93338Y5811D01*
X92849Y5233D01*
X91155Y3539D01*
X89589D01*
X89368Y3988D01*
X89557Y4235D01*
X89910Y5086D01*
X90030Y6000D01*
X89910Y6914D01*
X89557Y7765D01*
X88996Y8496D01*
X88465Y8904D01*
X88635Y9404D01*
X89272D01*
Y9640D01*
X89336Y9644D01*
X89828D01*
X90609Y9799D01*
X91270Y10242D01*
X92442Y11413D01*
X92442Y11413D01*
X92884Y12075D01*
X93039Y12855D01*
Y21155D01*
X103442Y31558D01*
X103884Y32220D01*
X104039Y33000D01*
Y45828D01*
X103884Y46609D01*
X103442Y47270D01*
X103442Y47270D01*
X102270Y48442D01*
X101609Y48884D01*
X100828Y49039D01*
X98992D01*
X98890Y49047D01*
X98790Y49063D01*
X98701Y49082D01*
X98637Y49101D01*
X98599Y49115D01*
X98568Y49139D01*
X98563Y49143D01*
X98561Y49144D01*
X97997Y49577D01*
X97275Y49876D01*
X96500Y49978D01*
X95725Y49876D01*
X95003Y49577D01*
X94383Y49101D01*
X93907Y48481D01*
X93608Y47759D01*
X93506Y46984D01*
X93608Y46209D01*
X93907Y45487D01*
X94383Y44867D01*
X94556Y44734D01*
Y44234D01*
X94383Y44101D01*
X93907Y43481D01*
X93608Y42759D01*
X93506Y41984D01*
X93608Y41209D01*
X93907Y40487D01*
X93973Y40401D01*
X93752Y39953D01*
X93532D01*
Y34016D01*
X99425D01*
X99748Y33631D01*
X89558Y23442D01*
X89116Y22780D01*
X89039Y22394D01*
X88539Y22443D01*
Y37500D01*
X88539Y37500D01*
X88384Y38280D01*
X87942Y38942D01*
X83446Y43438D01*
X82784Y43880D01*
X82004Y44035D01*
X81260D01*
X81168Y44046D01*
X80990Y44082D01*
X80818Y44133D01*
X80651Y44198D01*
X80486Y44278D01*
X80323Y44375D01*
X80161Y44490D01*
X79999Y44623D01*
X79879Y44738D01*
X79819Y44815D01*
X78993Y45449D01*
X78032Y45847D01*
X77000Y45983D01*
X75968Y45847D01*
X75007Y45449D01*
X74181Y44815D01*
X73547Y43990D01*
X73149Y43028D01*
X73013Y41996D01*
X73149Y40964D01*
X73547Y40003D01*
X74181Y39177D01*
X75007Y38543D01*
X75968Y38145D01*
X77000Y38009D01*
X78032Y38145D01*
X78993Y38543D01*
X79819Y39177D01*
X79879Y39255D01*
X79998Y39369D01*
X80161Y39503D01*
X80323Y39617D01*
X80486Y39714D01*
X80651Y39794D01*
X80818Y39859D01*
X80990Y39910D01*
X81168Y39946D01*
X81170Y39946D01*
X84461Y36655D01*
Y20135D01*
X84454Y20038D01*
X84425Y19806D01*
X84397Y19672D01*
X83728D01*
Y18698D01*
X83721Y18660D01*
X83728Y18621D01*
Y15113D01*
X88961D01*
Y13963D01*
X88365D01*
X88355Y13966D01*
X88324Y13963D01*
X88298D01*
X88260Y13971D01*
X88221Y13963D01*
X83728D01*
Y9404D01*
X84361D01*
X84502Y8907D01*
X84379Y8845D01*
X84247Y8789D01*
X84107Y8740D01*
X83958Y8697D01*
X83799Y8661D01*
X83642Y8634D01*
X83412Y8613D01*
X82741D01*
Y10020D01*
X82702Y10217D01*
Y13228D01*
X82702Y13563D01*
X82702Y14063D01*
Y19272D01*
X81639D01*
X81628Y19299D01*
X81588Y19451D01*
X81552Y19665D01*
X81539Y19813D01*
Y23328D01*
X81384Y24109D01*
X80942Y24770D01*
X80942Y24770D01*
X79770Y25942D01*
X79109Y26384D01*
X78328Y26539D01*
X38813D01*
X38346Y27006D01*
Y28878D01*
X33591D01*
Y24122D01*
X35463D01*
X36527Y23058D01*
X37188Y22616D01*
X37574Y22539D01*
X37525Y22039D01*
X37468D01*
X36688Y21884D01*
X36027Y21442D01*
X35856Y21272D01*
X33591D01*
Y15728D01*
X38740D01*
Y17860D01*
X38768Y17872D01*
X38920Y17912D01*
X39134Y17948D01*
X39282Y17961D01*
X53848D01*
Y17272D01*
X53887Y17075D01*
Y14654D01*
X53887Y14319D01*
X53887Y13827D01*
X53402Y13716D01*
X51677D01*
X51677Y13716D01*
X50897Y13561D01*
X50235Y13119D01*
X50235Y13119D01*
X49655Y12539D01*
X39204D01*
X39106Y12546D01*
X38875Y12575D01*
X38740Y12603D01*
Y13272D01*
X37766D01*
X37728Y13279D01*
X37690Y13272D01*
X33591D01*
Y7728D01*
X37690D01*
X37728Y7721D01*
X37766Y7728D01*
X38740D01*
Y8398D01*
X38859Y8422D01*
X39270Y8461D01*
X50500D01*
X51280Y8616D01*
X51942Y9058D01*
X52522Y9638D01*
X53507D01*
X53826Y9619D01*
X53887Y9612D01*
Y9201D01*
X54861D01*
X54899Y9193D01*
X54937Y9201D01*
X56423D01*
X56863Y8907D01*
X57643Y8752D01*
X60915D01*
X61056Y8740D01*
X61272Y8706D01*
X61425Y8666D01*
X61447Y8658D01*
Y7823D01*
X62421D01*
X62459Y7815D01*
X62498Y7823D01*
X62554D01*
X62571Y7821D01*
X62576Y7823D01*
X67778D01*
Y13335D01*
Y15803D01*
X61447D01*
Y12925D01*
X61425Y12916D01*
X61272Y12877D01*
X61056Y12842D01*
X60915Y12831D01*
X59776D01*
X59627Y12844D01*
X59413Y12879D01*
X59261Y12920D01*
X59233Y12931D01*
X59233Y14153D01*
X59233Y14654D01*
Y19272D01*
X57838D01*
X57771Y19609D01*
X57329Y20270D01*
X57329Y20270D01*
X56157Y21442D01*
X55496Y21884D01*
X55110Y21961D01*
X55159Y22461D01*
X77461D01*
Y19793D01*
X77450Y19658D01*
X77416Y19440D01*
X77377Y19283D01*
X77373Y19272D01*
X76568D01*
Y18300D01*
X76560Y18263D01*
X76568Y18224D01*
Y18156D01*
X76567Y18144D01*
X76568Y18141D01*
Y14063D01*
X76568Y13728D01*
X76568Y13228D01*
Y8020D01*
X78663D01*
Y7746D01*
X78818Y6965D01*
X79260Y6304D01*
X80431Y5132D01*
X80431Y5132D01*
X81093Y4690D01*
X81873Y4535D01*
X82832D01*
X82871Y4531D01*
X83004Y4505D01*
X83113Y4472D01*
X83203Y4435D01*
X83276Y4395D01*
X83337Y4352D01*
X83390Y4304D01*
X83436Y4251D01*
X83443Y4235D01*
X83491Y4172D01*
X83519Y4131D01*
X83533Y4118D01*
X83632Y3988D01*
X83411Y3539D01*
X77845D01*
X74539Y6845D01*
Y7333D01*
X74548Y7448D01*
X74579Y7674D01*
X74612Y7823D01*
X75338D01*
Y8797D01*
X75346Y8835D01*
X75338Y8873D01*
Y13335D01*
Y15803D01*
X69008D01*
Y13335D01*
Y7823D01*
X70358D01*
X70372Y7788D01*
X70412Y7638D01*
X70448Y7426D01*
X70461Y7279D01*
Y6516D01*
X69484Y5539D01*
X32299D01*
Y7351D01*
X32300Y7397D01*
X32323Y7636D01*
X32337Y7728D01*
X32835D01*
Y8702D01*
X32842Y8740D01*
X32835Y8778D01*
Y13272D01*
X27685D01*
Y8778D01*
X27677Y8740D01*
X27685Y8702D01*
Y7728D01*
X28183D01*
X28195Y7648D01*
X28221Y7283D01*
Y4672D01*
X28376Y3891D01*
X28818Y3230D01*
X29989Y2058D01*
X29989Y2058D01*
X30651Y1616D01*
X31431Y1461D01*
X70328D01*
X71109Y1616D01*
X71770Y2058D01*
X72664Y2952D01*
X75116Y500D01*
X74909Y-0D01*
X15748Y-0D01*
Y9350D01*
X3937D01*
Y-0D01*
X0D01*
X-0Y56102D01*
X3937D01*
Y46752D01*
X15748D01*
Y56102D01*
X104331Y56102D01*
Y46752D01*
X116142D01*
Y56102D01*
X120079D01*
X120079Y0D01*
D02*
G37*
G36*
X97976Y48303D02*
X98073Y48239D01*
X98184Y48183D01*
X98309Y48134D01*
X98449Y48093D01*
X98603Y48060D01*
X98773Y48034D01*
X99155Y48004D01*
X99367Y48000D01*
X99386Y46000D01*
X99173Y45996D01*
X98792Y45966D01*
X98623Y45939D01*
X98469Y45904D01*
X98329Y45862D01*
X98204Y45813D01*
X98094Y45755D01*
X97998Y45690D01*
X97917Y45618D01*
X97895Y48373D01*
X97976Y48303D01*
D02*
G37*
G36*
X79321Y43860D02*
X79541Y43679D01*
X79768Y43519D01*
X80001Y43380D01*
X80242Y43263D01*
X80489Y43167D01*
X80744Y43092D01*
X81006Y43039D01*
X81274Y43007D01*
X81550Y42996D01*
Y40996D01*
X81274Y40985D01*
X81006Y40953D01*
X80744Y40900D01*
X80489Y40825D01*
X80242Y40729D01*
X80001Y40612D01*
X79768Y40473D01*
X79541Y40313D01*
X79321Y40132D01*
X79109Y39929D01*
Y44063D01*
X79321Y43860D01*
D02*
G37*
G36*
X87507Y20280D02*
X87568Y19640D01*
X87621Y19380D01*
X87690Y19160D01*
X87773Y18980D01*
X87872Y18840D01*
X87986Y18740D01*
X88115Y18680D01*
X88260Y18660D01*
X84740D01*
X84885Y18680D01*
X85014Y18740D01*
X85128Y18840D01*
X85226Y18980D01*
X85310Y19160D01*
X85378Y19380D01*
X85432Y19640D01*
X85470Y19940D01*
X85492Y20280D01*
X85500Y20660D01*
X87500D01*
X87507Y20280D01*
D02*
G37*
G36*
X80510Y19878D02*
X80540Y19536D01*
X80590Y19235D01*
X80660Y18973D01*
X80750Y18752D01*
X80860Y18571D01*
X80990Y18430D01*
X81140Y18329D01*
X81310Y18268D01*
X81500Y18248D01*
X77580Y18260D01*
X77755Y18280D01*
X77911Y18340D01*
X78049Y18440D01*
X78169Y18580D01*
X78270Y18760D01*
X78353Y18980D01*
X78417Y19240D01*
X78463Y19540D01*
X78491Y19880D01*
X78500Y20260D01*
X80500D01*
X80510Y19878D01*
D02*
G37*
G36*
X39728Y19000D02*
X39347Y18990D01*
X39006Y18960D01*
X38704Y18910D01*
X38443Y18840D01*
X38222Y18750D01*
X38041Y18640D01*
X37900Y18510D01*
X37798Y18360D01*
X37737Y18190D01*
X37716Y18000D01*
X37728Y20260D01*
X37748Y20400D01*
X37808Y20526D01*
X37908Y20637D01*
X38048Y20733D01*
X38228Y20815D01*
X38448Y20881D01*
X38708Y20933D01*
X39008Y20970D01*
X39348Y20993D01*
X39728Y21000D01*
Y19000D01*
D02*
G37*
G36*
X88275Y12900D02*
X88322Y12855D01*
X88401Y12814D01*
X88511Y12780D01*
X88652Y12750D01*
X88824Y12726D01*
X89264Y12694D01*
X89828Y12684D01*
Y10684D01*
X89530Y10681D01*
X88652Y10617D01*
X88511Y10587D01*
X88401Y10552D01*
X88322Y10512D01*
X88275Y10467D01*
X88260Y10416D01*
Y12951D01*
X88275Y12900D01*
D02*
G37*
G36*
X54899Y10213D02*
X54879Y10301D01*
X54819Y10380D01*
X54719Y10450D01*
X54579Y10510D01*
X54399Y10561D01*
X54179Y10603D01*
X53919Y10635D01*
X53279Y10672D01*
X52899Y10677D01*
Y12677D01*
X53279Y12682D01*
X54179Y12752D01*
X54399Y12793D01*
X54579Y12844D01*
X54719Y12905D01*
X54819Y12974D01*
X54879Y13053D01*
X54899Y13141D01*
Y10213D01*
D02*
G37*
G36*
X58231Y12601D02*
X58292Y12431D01*
X58393Y12281D01*
X58534Y12151D01*
X58715Y12041D01*
X58936Y11951D01*
X59197Y11881D01*
X59499Y11831D01*
X59840Y11801D01*
X60221Y11791D01*
Y9791D01*
X58222Y10213D01*
X58210Y12791D01*
X58231Y12601D01*
D02*
G37*
G36*
X62459Y8835D02*
X62439Y9017D01*
X62379Y9179D01*
X62279Y9323D01*
X62139Y9447D01*
X61959Y9552D01*
X61739Y9638D01*
X61479Y9705D01*
X61179Y9753D01*
X60839Y9782D01*
X60459Y9791D01*
Y11791D01*
X60839Y11801D01*
X61179Y11830D01*
X61479Y11877D01*
X61739Y11944D01*
X61959Y12031D01*
X62139Y12136D01*
X62279Y12260D01*
X62379Y12404D01*
X62439Y12566D01*
X62459Y12748D01*
Y8835D01*
D02*
G37*
G36*
X37748Y12115D02*
X37808Y11986D01*
X37908Y11872D01*
X38048Y11773D01*
X38228Y11690D01*
X38448Y11621D01*
X38708Y11568D01*
X39008Y11530D01*
X39348Y11508D01*
X39728Y11500D01*
Y9500D01*
X39348Y9492D01*
X38708Y9432D01*
X38448Y9379D01*
X38228Y9310D01*
X38048Y9227D01*
X37908Y9128D01*
X37808Y9014D01*
X37748Y8885D01*
X37728Y8740D01*
Y12260D01*
X37748Y12115D01*
D02*
G37*
G36*
X81692Y9019D02*
X81694Y8980D01*
X81702Y7746D01*
X79702D01*
X79699Y7990D01*
X79656Y8569D01*
X79630Y8710D01*
X79599Y8826D01*
X79562Y8916D01*
X79519Y8980D01*
X79470Y9019D01*
X79416Y9032D01*
X81690D01*
X81692Y9019D01*
D02*
G37*
G36*
X74169Y8815D02*
X74029Y8755D01*
X73905Y8655D01*
X73798Y8515D01*
X73707Y8335D01*
X73632Y8115D01*
X73574Y7855D01*
X73533Y7555D01*
X73508Y7215D01*
X73500Y6835D01*
X71500D01*
X71490Y7215D01*
X71460Y7555D01*
X71410Y7855D01*
X71340Y8115D01*
X71250Y8335D01*
X71140Y8515D01*
X71010Y8655D01*
X70860Y8755D01*
X70690Y8815D01*
X70500Y8835D01*
X74326D01*
X74169Y8815D01*
D02*
G37*
G36*
X31716Y8720D02*
X31620Y8660D01*
X31536Y8560D01*
X31462Y8420D01*
X31400Y8240D01*
X31350Y8020D01*
X31310Y7760D01*
X31282Y7460D01*
X31260Y6740D01*
X29260D01*
X29254Y7120D01*
X29209Y7760D01*
X29170Y8020D01*
X29119Y8240D01*
X29057Y8420D01*
X28984Y8560D01*
X28900Y8660D01*
X28804Y8720D01*
X28697Y8740D01*
X31823D01*
X31716Y8720D01*
D02*
G37*
G36*
X84360Y4707D02*
X84248Y4871D01*
X84120Y5019D01*
X83976Y5149D01*
X83817Y5262D01*
X83642Y5357D01*
X83452Y5435D01*
X83247Y5496D01*
X83025Y5539D01*
X82789Y5565D01*
X82537Y5574D01*
X83058Y7574D01*
X83304Y7579D01*
X83774Y7622D01*
X83996Y7660D01*
X84211Y7709D01*
X84418Y7768D01*
X84616Y7838D01*
X84807Y7919D01*
X84990Y8011D01*
X85164Y8113D01*
X84360Y4707D01*
D02*
G37*
G36*
X97372Y4044D02*
X97216Y4157D01*
X97032Y4213D01*
X96820D01*
X96580Y4157D01*
X96311Y4044D01*
X96014Y3874D01*
X95689Y3647D01*
X95336Y3365D01*
X94543Y2629D01*
X93129Y4044D01*
X93525Y4454D01*
X94147Y5189D01*
X94374Y5514D01*
X94543Y5811D01*
X94657Y6080D01*
X94713Y6320D01*
Y6532D01*
X94657Y6716D01*
X94543Y6872D01*
X97372Y4044D01*
D02*
G37*
%LPC*%
G36*
X25937Y49953D02*
X18032D01*
Y42047D01*
X25937D01*
Y43861D01*
X25962Y43872D01*
X26114Y43912D01*
X26329Y43948D01*
X26478Y43961D01*
X26655D01*
X28319Y42297D01*
Y37053D01*
X28300Y36734D01*
X28293Y36673D01*
X27882D01*
Y35699D01*
X27874Y35661D01*
X27882Y35623D01*
Y32343D01*
X27382Y31955D01*
X26957Y32039D01*
X23968D01*
Y33005D01*
X23976Y33044D01*
X23968Y33082D01*
Y33138D01*
X23970Y33155D01*
X23968Y33160D01*
Y37969D01*
X18032D01*
Y33160D01*
X18030Y33155D01*
X18032Y33138D01*
Y33082D01*
X18024Y33044D01*
X18032Y33005D01*
Y32032D01*
X18252D01*
X18473Y31583D01*
X18407Y31497D01*
X18108Y30775D01*
X18006Y30000D01*
X18108Y29225D01*
X18407Y28503D01*
X18883Y27883D01*
X19056Y27750D01*
Y27250D01*
X18883Y27117D01*
X18407Y26497D01*
X18108Y25775D01*
X18072Y25500D01*
X21000D01*
X23928D01*
X23892Y25775D01*
X23593Y26497D01*
X23117Y27117D01*
X22944Y27250D01*
Y27750D01*
X23117Y27883D01*
X23120Y27887D01*
X23151Y27899D01*
X23214Y27918D01*
X23302Y27937D01*
X23401Y27953D01*
X23505Y27961D01*
X26112D01*
X27285Y26788D01*
X27393Y26662D01*
X27567Y26434D01*
X27713Y26215D01*
X27831Y26008D01*
X27922Y25812D01*
X27990Y25627D01*
X28035Y25454D01*
X28061Y25291D01*
X28073Y25080D01*
X28079Y25056D01*
Y24122D01*
X29053D01*
X29091Y24114D01*
X29118Y24120D01*
X29145Y24116D01*
X29169Y24122D01*
X32835D01*
Y27788D01*
X32841Y27812D01*
X32837Y27839D01*
X32842Y27866D01*
X32835Y27904D01*
Y28878D01*
X31901D01*
X31877Y28884D01*
X31666Y28895D01*
X31502Y28921D01*
X31329Y28967D01*
X31145Y29035D01*
X30949Y29126D01*
X30742Y29244D01*
X30536Y29381D01*
X30133Y29708D01*
X28976Y30865D01*
X29167Y31327D01*
X32500D01*
X32835Y31327D01*
X33335Y31327D01*
X37953D01*
Y35623D01*
X37960Y35661D01*
X37953Y35699D01*
Y36673D01*
X37551D01*
X37516Y37128D01*
Y39957D01*
X42506D01*
X42656Y39944D01*
X42870Y39908D01*
X43022Y39868D01*
X43047Y39857D01*
Y38043D01*
X50953D01*
Y45949D01*
X43047D01*
Y44135D01*
X43022Y44124D01*
X42870Y44084D01*
X42656Y44048D01*
X42506Y44035D01*
X36648D01*
X35868Y43880D01*
X35206Y43438D01*
X35206Y43438D01*
X34034Y42266D01*
X33592Y41605D01*
X33437Y40824D01*
Y37162D01*
X33148Y36673D01*
X32508Y36673D01*
X32397Y37159D01*
Y43142D01*
X32242Y43922D01*
X31800Y44584D01*
X28942Y47442D01*
X28280Y47884D01*
X27500Y48039D01*
X26478D01*
X26329Y48052D01*
X26114Y48088D01*
X25962Y48129D01*
X25937Y48139D01*
Y49953D01*
D02*
G37*
G36*
X77500Y35917D02*
Y32496D01*
X80921D01*
X80851Y33028D01*
X80453Y33990D01*
X79819Y34815D01*
X78993Y35449D01*
X78032Y35847D01*
X77500Y35917D01*
D02*
G37*
G36*
X76500D02*
X75968Y35847D01*
X75007Y35449D01*
X74181Y34815D01*
X73547Y33990D01*
X73149Y33028D01*
X73079Y32496D01*
X76500D01*
Y35917D01*
D02*
G37*
G36*
X47500D02*
Y32496D01*
X50921D01*
X50851Y33028D01*
X50453Y33990D01*
X49819Y34815D01*
X48993Y35449D01*
X48032Y35847D01*
X47500Y35917D01*
D02*
G37*
G36*
X46500D02*
X45968Y35847D01*
X45007Y35449D01*
X44181Y34815D01*
X43547Y33990D01*
X43149Y33028D01*
X43079Y32496D01*
X46500D01*
Y35917D01*
D02*
G37*
G36*
X80921Y31496D02*
X77500D01*
Y28075D01*
X78032Y28145D01*
X78993Y28543D01*
X79819Y29177D01*
X80453Y30003D01*
X80851Y30964D01*
X80921Y31496D01*
D02*
G37*
G36*
X76500D02*
X73079D01*
X73149Y30964D01*
X73547Y30003D01*
X74181Y29177D01*
X75007Y28543D01*
X75968Y28145D01*
X76500Y28075D01*
Y31496D01*
D02*
G37*
G36*
X50921D02*
X47500D01*
Y28075D01*
X48032Y28145D01*
X48993Y28543D01*
X49819Y29177D01*
X50453Y30003D01*
X50851Y30964D01*
X50921Y31496D01*
D02*
G37*
G36*
X46500D02*
X43079D01*
X43149Y30964D01*
X43547Y30003D01*
X44181Y29177D01*
X45007Y28543D01*
X45968Y28145D01*
X46500Y28075D01*
Y31496D01*
D02*
G37*
G36*
X23928Y24500D02*
X21500D01*
Y22072D01*
X21775Y22108D01*
X22497Y22407D01*
X23117Y22883D01*
X23593Y23503D01*
X23892Y24225D01*
X23928Y24500D01*
D02*
G37*
G36*
X20500D02*
X18072D01*
X18108Y24225D01*
X18407Y23503D01*
X18883Y22883D01*
X19503Y22407D01*
X20225Y22108D01*
X20500Y22072D01*
Y24500D01*
D02*
G37*
G36*
X32835Y21272D02*
X27685D01*
Y18920D01*
X26989Y18113D01*
X26915Y18039D01*
X24501D01*
X24360Y18051D01*
X24144Y18085D01*
X23991Y18125D01*
X23968Y18134D01*
Y18969D01*
X22995D01*
X22956Y18976D01*
X22918Y18969D01*
X22862D01*
X22845Y18970D01*
X22840Y18969D01*
X18032D01*
Y13032D01*
X18252D01*
X18473Y12583D01*
X18407Y12497D01*
X18108Y11775D01*
X18006Y11000D01*
X18108Y10225D01*
X18407Y9503D01*
X18883Y8883D01*
X19056Y8750D01*
Y8250D01*
X18883Y8117D01*
X18407Y7497D01*
X18108Y6775D01*
X18072Y6500D01*
X21000D01*
X23928D01*
X23892Y6775D01*
X23593Y7497D01*
X23117Y8117D01*
X22944Y8250D01*
Y8750D01*
X23117Y8883D01*
X23593Y9503D01*
X23892Y10225D01*
X23994Y11000D01*
X23892Y11775D01*
X23593Y12497D01*
X23527Y12583D01*
X23748Y13032D01*
X23968D01*
Y13866D01*
X23991Y13875D01*
X24144Y13915D01*
X24360Y13949D01*
X24501Y13961D01*
X27760D01*
X28540Y14116D01*
X29202Y14558D01*
X29901Y15257D01*
X30262Y15579D01*
X30421Y15706D01*
X30452Y15728D01*
X32835D01*
Y21272D01*
D02*
G37*
G36*
X75338Y19272D02*
X72673D01*
Y16803D01*
X75338D01*
Y19272D01*
D02*
G37*
G36*
X71673D02*
X69008D01*
Y16803D01*
X71673D01*
Y19272D01*
D02*
G37*
G36*
X67778D02*
X65113D01*
Y16803D01*
X67778D01*
Y19272D01*
D02*
G37*
G36*
X64113D02*
X61447D01*
Y16803D01*
X64113D01*
Y19272D01*
D02*
G37*
G36*
X23928Y5500D02*
X21500D01*
Y3072D01*
X21775Y3108D01*
X22497Y3407D01*
X23117Y3883D01*
X23593Y4503D01*
X23892Y5225D01*
X23928Y5500D01*
D02*
G37*
G36*
X20500D02*
X18072D01*
X18108Y5225D01*
X18407Y4503D01*
X18883Y3883D01*
X19503Y3407D01*
X20225Y3108D01*
X20500Y3072D01*
Y5500D01*
D02*
G37*
%LPD*%
G36*
X24933Y47810D02*
X24994Y47640D01*
X25094Y47490D01*
X25235Y47360D01*
X25416Y47250D01*
X25637Y47160D01*
X25899Y47090D01*
X26201Y47040D01*
X26543Y47010D01*
X26925Y47000D01*
Y45000D01*
X26543Y44990D01*
X26201Y44960D01*
X25899Y44910D01*
X25637Y44840D01*
X25416Y44750D01*
X25235Y44640D01*
X25094Y44510D01*
X24994Y44360D01*
X24933Y44190D01*
X24913Y44000D01*
Y48000D01*
X24933Y47810D01*
D02*
G37*
G36*
X44071Y39996D02*
X44051Y40186D01*
X43991Y40356D01*
X43890Y40506D01*
X43749Y40636D01*
X43568Y40746D01*
X43347Y40836D01*
X43085Y40906D01*
X42784Y40956D01*
X42441Y40986D01*
X42059Y40996D01*
Y42996D01*
X42441Y43006D01*
X42784Y43036D01*
X43085Y43086D01*
X43347Y43156D01*
X43568Y43246D01*
X43749Y43356D01*
X43890Y43486D01*
X43991Y43636D01*
X44051Y43806D01*
X44071Y43996D01*
Y39996D01*
D02*
G37*
G36*
X36481Y37281D02*
X36551Y36381D01*
X36593Y36161D01*
X36643Y35981D01*
X36704Y35841D01*
X36774Y35741D01*
X36852Y35681D01*
X36941Y35661D01*
X34012D01*
X34100Y35681D01*
X34179Y35741D01*
X34249Y35841D01*
X34309Y35981D01*
X34360Y36161D01*
X34402Y36381D01*
X34435Y36641D01*
X34472Y37281D01*
X34476Y37661D01*
X36476D01*
X36481Y37281D01*
D02*
G37*
G36*
X31363D02*
X31433Y36381D01*
X31474Y36161D01*
X31525Y35981D01*
X31586Y35841D01*
X31655Y35741D01*
X31734Y35681D01*
X31823Y35661D01*
X28894D01*
X28982Y35681D01*
X29061Y35741D01*
X29131Y35841D01*
X29191Y35981D01*
X29242Y36161D01*
X29284Y36381D01*
X29316Y36641D01*
X29354Y37281D01*
X29358Y37661D01*
X31358D01*
X31363Y37281D01*
D02*
G37*
G36*
X22775Y33024D02*
X22612Y32963D01*
X22469Y32864D01*
X22344Y32724D01*
X22239Y32544D01*
X22153Y32324D01*
X22086Y32063D01*
X22080Y32025D01*
X22095Y31959D01*
X22136Y31819D01*
X22185Y31694D01*
X22242Y31583D01*
X22306Y31487D01*
X22378Y31406D01*
X22009D01*
X22000Y31043D01*
X20000D01*
X19991Y31406D01*
X19622D01*
X19694Y31487D01*
X19758Y31583D01*
X19815Y31694D01*
X19864Y31819D01*
X19906Y31959D01*
X19920Y32025D01*
X19914Y32063D01*
X19847Y32324D01*
X19761Y32544D01*
X19656Y32724D01*
X19531Y32864D01*
X19388Y32963D01*
X19225Y33024D01*
X19044Y33044D01*
X22956D01*
X22775Y33024D01*
D02*
G37*
G36*
X22487Y31306D02*
X22583Y31242D01*
X22694Y31185D01*
X22819Y31136D01*
X22959Y31095D01*
X23113Y31060D01*
X23282Y31034D01*
X23466Y31015D01*
X23877Y31000D01*
Y29000D01*
X23664Y28996D01*
X23282Y28966D01*
X23113Y28940D01*
X22959Y28905D01*
X22819Y28864D01*
X22694Y28815D01*
X22583Y28758D01*
X22487Y28694D01*
X22406Y28622D01*
Y31378D01*
X22487Y31306D01*
D02*
G37*
G36*
X29373Y29011D02*
X29931Y28559D01*
X30207Y28375D01*
X30481Y28220D01*
X30753Y28092D01*
X31023Y27993D01*
X31292Y27922D01*
X31558Y27880D01*
X31823Y27866D01*
X29091Y25134D01*
X29077Y25399D01*
X29034Y25665D01*
X28964Y25933D01*
X28864Y26204D01*
X28737Y26476D01*
X28582Y26750D01*
X28398Y27026D01*
X28186Y27304D01*
X27945Y27584D01*
X27676Y27866D01*
X29091Y29280D01*
X29373Y29011D01*
D02*
G37*
G36*
X30375Y16752D02*
X30320Y16783D01*
X30235Y16775D01*
X30122Y16728D01*
X29978Y16643D01*
X29806Y16520D01*
X29604Y16358D01*
X29111Y15919D01*
X28500Y15326D01*
X27283Y16937D01*
X27590Y17249D01*
X28577Y18393D01*
X28665Y18539D01*
X28716Y18657D01*
X28731Y18748D01*
X28709Y18812D01*
X30375Y16752D01*
D02*
G37*
G36*
X22976Y17775D02*
X23036Y17612D01*
X23136Y17469D01*
X23277Y17344D01*
X23457Y17239D01*
X23676Y17153D01*
X23936Y17086D01*
X24237Y17038D01*
X24577Y17010D01*
X24957Y17000D01*
Y15000D01*
X24577Y14990D01*
X24237Y14962D01*
X23936Y14914D01*
X23676Y14847D01*
X23457Y14761D01*
X23277Y14656D01*
X23136Y14531D01*
X23036Y14388D01*
X22976Y14225D01*
X22956Y14043D01*
Y17956D01*
X22976Y17775D01*
D02*
G37*
D15*
X120229Y56102D02*
G03*
X120079Y56252I-150J0D01*
G01*
X120229Y56102D02*
G03*
X120079Y56252I-150J0D01*
G01*
X116142D02*
G03*
X115992Y56102I0J-150D01*
G01*
X116142Y56252D02*
G03*
X115992Y56102I0J-150D01*
G01*
X104481D02*
G03*
X104331Y56252I-150J0D01*
G01*
X104481Y56102D02*
G03*
X104331Y56252I-150J0D01*
G01*
X120079Y-150D02*
G03*
X120229Y0I0J150D01*
G01*
X120079Y-150D02*
G03*
X120229Y0I0J150D01*
G01*
X115992D02*
G03*
X116142Y-150I150J0D01*
G01*
X115992Y0D02*
G03*
X116142Y-150I150J0D01*
G01*
X104331D02*
G03*
X104481Y0I0J150D01*
G01*
X104331Y-150D02*
G03*
X104481Y0I0J150D01*
G01*
X15748Y56252D02*
G03*
X15598Y56102I0J-150D01*
G01*
X15748Y56252D02*
G03*
X15598Y56102I0J-150D01*
G01*
X4087D02*
G03*
X3937Y56252I-150J0D01*
G01*
X4087Y56102D02*
G03*
X3937Y56252I-150J0D01*
G01*
X-0D02*
G03*
X-150Y56102I0J-150D01*
G01*
X-0Y56252D02*
G03*
X-150Y56102I0J-150D01*
G01*
X15598Y-0D02*
G03*
X15748Y-150I150J0D01*
G01*
X15598Y-0D02*
G03*
X15748Y-150I150J0D01*
G01*
X3937D02*
G03*
X4087Y-0I0J150D01*
G01*
X3937Y-150D02*
G03*
X4087Y-0I0J150D01*
G01*
X-150D02*
G03*
X0Y-150I150J0D01*
G01*
X-150Y-0D02*
G03*
X0Y-150I150J0D01*
G01*
X116142Y56252D02*
X120079D01*
X104481Y46902D02*
X115992D01*
X104481D02*
Y56102D01*
X115992Y46902D02*
Y56102D01*
X120229D02*
X120229Y0D01*
X116142Y-150D02*
X120079D01*
X115992Y0D02*
Y9200D01*
X104481Y0D02*
Y9200D01*
X115992D01*
X15748Y56252D02*
X104331Y56252D01*
X15598Y46902D02*
Y56102D01*
X4087Y46902D02*
X15598D01*
X4087D02*
Y56102D01*
X-0Y56252D02*
X3937D01*
X4087Y9200D02*
X15598D01*
Y-0D02*
Y9200D01*
X15748Y-150D02*
X104331Y-150D01*
X4087Y-0D02*
Y9200D01*
X-150Y56102D02*
X-150Y-0D01*
X0Y-150D02*
X3937D01*
D16*
X30260Y10500D02*
D03*
X36165D02*
D03*
Y18500D02*
D03*
X30260D02*
D03*
D17*
X86500Y11683D02*
D03*
Y17392D02*
D03*
D18*
X79635Y16500D02*
D03*
Y10791D02*
D03*
D19*
X35969Y26500D02*
D03*
X30457D02*
D03*
D20*
X35476Y34000D02*
D03*
X30358D02*
D03*
D21*
X72173Y16303D02*
D03*
Y10791D02*
D03*
X64613Y16303D02*
D03*
Y10791D02*
D03*
D22*
X56560Y16795D02*
D03*
Y11677D02*
D03*
D32*
X96500Y46984D02*
X96516Y47000D01*
X100828D01*
X102000Y45828D01*
Y33000D02*
Y45828D01*
X80702Y7746D02*
Y10020D01*
Y7746D02*
X81873Y6574D01*
X85926D01*
X79500Y17272D02*
X79635Y17137D01*
Y16500D02*
Y17137D01*
X37969Y24500D02*
X78328D01*
X79500Y23328D01*
Y17272D02*
Y23328D01*
X35969Y26500D02*
X37969Y24500D01*
X91000Y22000D02*
X102000Y33000D01*
X91000Y12855D02*
Y22000D01*
X79635Y10791D02*
X79930D01*
X80702Y10020D01*
X85926Y6574D02*
X86500Y6000D01*
X72500D02*
X77000Y1500D01*
X92000D02*
X96500Y6000D01*
X77000Y1500D02*
X92000D01*
X70328Y3500D02*
X72500Y5672D01*
X30260Y4672D02*
Y10500D01*
Y4672D02*
X31431Y3500D01*
X70328D01*
X72173Y10791D02*
X72500Y10464D01*
Y6000D02*
Y10464D01*
Y5672D02*
Y6000D01*
X86500Y11683D02*
X89828D01*
X91000Y12855D01*
X35476Y34000D02*
Y40824D01*
X36648Y41996D01*
X47000D01*
X30358Y34000D02*
Y43142D01*
X27500Y46000D02*
X30358Y43142D01*
X21984Y46000D02*
X27500D01*
X51677Y11677D02*
X56560D01*
X50500Y10500D02*
X51677Y11677D01*
X36165Y10500D02*
X50500D01*
X55887Y17272D02*
Y18828D01*
X36165Y18697D02*
X37468Y20000D01*
X54716D01*
X55887Y18828D01*
Y17272D02*
X56363Y16795D01*
X56560D01*
X36165Y18500D02*
Y18697D01*
X21000Y30000D02*
Y35000D01*
X77000Y41996D02*
X82004D01*
X86500Y17392D02*
Y37500D01*
X82004Y41996D02*
X86500Y37500D01*
X57643Y10791D02*
X64613D01*
X21000Y16000D02*
X27760D01*
X29488Y17728D01*
X29685D01*
X30260Y18303D01*
Y18500D01*
X21000Y30000D02*
X26957D01*
X30457Y26500D01*
D33*
X96500Y16000D02*
D03*
Y11000D02*
D03*
Y46984D02*
D03*
Y41984D02*
D03*
X21000Y6000D02*
D03*
Y11000D02*
D03*
Y25000D02*
D03*
Y30000D02*
D03*
D34*
X96500Y6000D02*
D03*
Y36984D02*
D03*
X21000Y16000D02*
D03*
Y35000D02*
D03*
D35*
X77000Y31996D02*
D03*
Y41996D02*
D03*
X47000Y31996D02*
D03*
D36*
Y41996D02*
D03*
X21984Y46000D02*
D03*
D37*
X86500Y6000D02*
D03*
M02*
