G04*
G04 #@! TF.GenerationSoftware,Altium Limited,Altium Designer,20.0.10 (225)*
G04*
G04 Layer_Color=16711935*
%FSLAX25Y25*%
%MOIN*%
G70*
G01*
G75*
%ADD12C,0.00787*%
%ADD15C,0.00300*%
%ADD39C,0.00394*%
D12*
X36559Y8728D02*
Y12272D01*
X29866D02*
X36559D01*
X29866Y8728D02*
Y12272D01*
Y8728D02*
X36559D01*
X84630Y17983D02*
X88370D01*
X84630Y11093D02*
Y17983D01*
Y11093D02*
X88370D01*
Y17983D01*
X29866Y24728D02*
Y28272D01*
Y24728D02*
X36559D01*
Y28272D01*
X29866D02*
X36559D01*
X29866Y16728D02*
Y20272D01*
Y16728D02*
X36559D01*
Y20272D01*
X29866D02*
X36559D01*
D15*
X120229Y56102D02*
G03*
X120079Y56252I-150J0D01*
G01*
X120229Y56102D02*
G03*
X120079Y56252I-150J0D01*
G01*
X116142D02*
G03*
X115992Y56102I0J-150D01*
G01*
X116142Y56252D02*
G03*
X115992Y56102I0J-150D01*
G01*
X104481D02*
G03*
X104331Y56252I-150J0D01*
G01*
X104481Y56102D02*
G03*
X104331Y56252I-150J0D01*
G01*
X120079Y-150D02*
G03*
X120229Y0I0J150D01*
G01*
X120079Y-150D02*
G03*
X120229Y0I0J150D01*
G01*
X115992D02*
G03*
X116142Y-150I150J0D01*
G01*
X115992Y0D02*
G03*
X116142Y-150I150J0D01*
G01*
X104331D02*
G03*
X104481Y0I0J150D01*
G01*
X104331Y-150D02*
G03*
X104481Y0I0J150D01*
G01*
X15748Y56252D02*
G03*
X15598Y56102I0J-150D01*
G01*
X15748Y56252D02*
G03*
X15598Y56102I0J-150D01*
G01*
X4087D02*
G03*
X3937Y56252I-150J0D01*
G01*
X4087Y56102D02*
G03*
X3937Y56252I-150J0D01*
G01*
X-0D02*
G03*
X-150Y56102I0J-150D01*
G01*
X-0Y56252D02*
G03*
X-150Y56102I0J-150D01*
G01*
X15598Y-0D02*
G03*
X15748Y-150I150J0D01*
G01*
X15598Y-0D02*
G03*
X15748Y-150I150J0D01*
G01*
X3937D02*
G03*
X4087Y-0I0J150D01*
G01*
X3937Y-150D02*
G03*
X4087Y-0I0J150D01*
G01*
X-150D02*
G03*
X0Y-150I150J0D01*
G01*
X-150Y-0D02*
G03*
X0Y-150I150J0D01*
G01*
X116142Y56252D02*
X120079D01*
X104481Y46902D02*
X115992D01*
X104481D02*
Y56102D01*
X115992Y46902D02*
Y56102D01*
X120229D02*
X120229Y0D01*
X116142Y-150D02*
X120079D01*
X115992Y0D02*
Y9200D01*
X104481Y0D02*
Y9200D01*
X115992D01*
X15748Y56252D02*
X104331Y56252D01*
X15598Y46902D02*
Y56102D01*
X4087Y46902D02*
X15598D01*
X4087D02*
Y56102D01*
X-0Y56252D02*
X3937D01*
X4087Y9200D02*
X15598D01*
Y-0D02*
Y9200D01*
X15748Y-150D02*
X104331Y-150D01*
X4087Y-0D02*
Y9200D01*
X-150Y56102D02*
X-150Y-0D01*
X0Y-150D02*
X3937D01*
D39*
X55110Y43295D02*
G03*
X55110Y43295I-1969J0D01*
G01*
X77765Y17090D02*
X81505D01*
X77765Y10201D02*
X81505D01*
Y17090D01*
X77765Y10201D02*
Y17090D01*
X29472Y32130D02*
X36362D01*
X29472Y35870D02*
X36362D01*
Y32130D02*
Y35870D01*
X29472Y32130D02*
Y35870D01*
X70205Y17090D02*
X74142D01*
X70205Y10004D02*
X74142D01*
Y17090D01*
X70205Y10004D02*
Y17090D01*
X62644D02*
X66581D01*
X62644Y10004D02*
X66581D01*
Y17090D01*
X62644Y10004D02*
Y17090D01*
X49598Y27154D02*
X74402D01*
X49598Y46839D02*
X74402D01*
Y27154D02*
Y46839D01*
X49598Y27154D02*
Y46839D01*
X54690Y17681D02*
X58430D01*
X54690Y10791D02*
X58430D01*
Y17681D01*
X54690Y10791D02*
Y17681D01*
M02*
