G04*
G04 #@! TF.GenerationSoftware,Altium Limited,Altium Designer,20.0.10 (225)*
G04*
G04 Layer_Physical_Order=2*
G04 Layer_Color=16711680*
%FSLAX25Y25*%
%MOIN*%
G70*
G01*
G75*
%ADD16C,0.00300*%
%ADD33C,0.02000*%
%ADD34R,0.04724X0.04724*%
%ADD35C,0.04724*%
%ADD36R,0.05906X0.05906*%
%ADD37C,0.03937*%
%ADD38R,0.03937X0.03937*%
%ADD39C,0.05906*%
%ADD40C,0.05000*%
G36*
X104331Y56102D02*
X116142D01*
Y71000D01*
X120079D01*
Y-0D01*
X120000D01*
Y-15000D01*
X116142D01*
Y-0D01*
X104331Y0D01*
X104331Y-15000D01*
X15748Y-15000D01*
X15748Y0D01*
X3937D01*
Y-15000D01*
X-0D01*
X-0Y71000D01*
X3937D01*
Y56102D01*
X15748D01*
Y71000D01*
X104331Y71000D01*
Y56102D01*
D02*
G37*
%LPC*%
G36*
X71362Y63362D02*
X64638D01*
Y56638D01*
X71362D01*
Y63362D01*
D02*
G37*
G36*
X58000Y63391D02*
X57122Y63276D01*
X56304Y62937D01*
X55602Y62398D01*
X55063Y61696D01*
X54724Y60878D01*
X54609Y60000D01*
X54724Y59122D01*
X55063Y58304D01*
X55602Y57602D01*
X56304Y57063D01*
X57122Y56724D01*
X58000Y56609D01*
X58878Y56724D01*
X59696Y57063D01*
X60398Y57602D01*
X60937Y58304D01*
X61276Y59122D01*
X61391Y60000D01*
X61276Y60878D01*
X60937Y61696D01*
X60398Y62398D01*
X59696Y62937D01*
X58878Y63276D01*
X58000Y63391D01*
D02*
G37*
G36*
X25937Y49953D02*
X18032D01*
Y42047D01*
X25937D01*
Y49953D01*
D02*
G37*
G36*
X50953Y45949D02*
X43047D01*
Y38043D01*
X50953D01*
Y45949D01*
D02*
G37*
G36*
X77000Y45983D02*
X75968Y45847D01*
X75007Y45449D01*
X74181Y44815D01*
X73547Y43990D01*
X73149Y43028D01*
X73013Y41996D01*
X73149Y40964D01*
X73547Y40003D01*
X74181Y39177D01*
X75007Y38543D01*
X75968Y38145D01*
X77000Y38009D01*
X78032Y38145D01*
X78993Y38543D01*
X79819Y39177D01*
X80453Y40003D01*
X80851Y40964D01*
X80987Y41996D01*
X80851Y43028D01*
X80453Y43990D01*
X79819Y44815D01*
X78993Y45449D01*
X78032Y45847D01*
X77000Y45983D01*
D02*
G37*
G36*
X96500Y49978D02*
X95725Y49876D01*
X95003Y49577D01*
X94383Y49101D01*
X93907Y48481D01*
X93608Y47759D01*
X93506Y46984D01*
X93608Y46209D01*
X93907Y45487D01*
X94383Y44867D01*
X94556Y44734D01*
Y44234D01*
X94383Y44101D01*
X93907Y43481D01*
X93608Y42759D01*
X93506Y41984D01*
X93608Y41209D01*
X93907Y40487D01*
X93973Y40401D01*
X93752Y39953D01*
X93532D01*
Y34016D01*
X99468D01*
Y39953D01*
X99248D01*
X99027Y40401D01*
X99093Y40487D01*
X99392Y41209D01*
X99494Y41984D01*
X99392Y42759D01*
X99093Y43481D01*
X98617Y44101D01*
X98444Y44234D01*
Y44734D01*
X98617Y44867D01*
X99093Y45487D01*
X99392Y46209D01*
X99494Y46984D01*
X99392Y47759D01*
X99093Y48481D01*
X98617Y49101D01*
X97997Y49577D01*
X97275Y49876D01*
X96500Y49978D01*
D02*
G37*
G36*
X23968Y37969D02*
X18032D01*
Y33160D01*
X18030Y33155D01*
X18032Y33138D01*
Y33082D01*
X18024Y33044D01*
X18032Y33005D01*
Y32032D01*
X18252D01*
X18473Y31583D01*
X18407Y31497D01*
X18108Y30775D01*
X18006Y30000D01*
X18108Y29225D01*
X18407Y28503D01*
X18883Y27883D01*
X19503Y27407D01*
X20225Y27108D01*
X21000Y27006D01*
X21775Y27108D01*
X22497Y27407D01*
X23117Y27883D01*
X23593Y28503D01*
X23892Y29225D01*
X23994Y30000D01*
X23892Y30775D01*
X23593Y31497D01*
X23527Y31583D01*
X23748Y32032D01*
X23968D01*
Y33005D01*
X23976Y33044D01*
X23968Y33082D01*
Y33138D01*
X23970Y33155D01*
X23968Y33160D01*
Y37969D01*
D02*
G37*
G36*
X48000Y63391D02*
X47122Y63276D01*
X46304Y62937D01*
X45602Y62398D01*
X45063Y61696D01*
X44724Y60878D01*
X44609Y60000D01*
X44724Y59122D01*
X45063Y58304D01*
X45602Y57602D01*
X46253Y57103D01*
Y56708D01*
X46408Y55928D01*
X46850Y55266D01*
X52461Y49655D01*
Y33336D01*
X46580Y27456D01*
X46220Y27384D01*
X45558Y26942D01*
X45397Y26700D01*
X45234Y26679D01*
X44382Y26326D01*
X43651Y25765D01*
X43090Y25034D01*
X42737Y24183D01*
X42617Y23269D01*
X42737Y22355D01*
X43090Y21504D01*
X43651Y20773D01*
X44382Y20212D01*
X45234Y19859D01*
X46147Y19739D01*
X47061Y19859D01*
X47912Y20212D01*
X48643Y20773D01*
X49204Y21504D01*
X49557Y22355D01*
X49677Y23269D01*
X49557Y24183D01*
X49416Y24524D01*
X55942Y31050D01*
X56384Y31711D01*
X56539Y32492D01*
Y50500D01*
X56384Y51280D01*
X55942Y51942D01*
X50391Y57493D01*
X50398Y57602D01*
X50937Y58304D01*
X51276Y59122D01*
X51391Y60000D01*
X51276Y60878D01*
X50937Y61696D01*
X50398Y62398D01*
X49696Y62937D01*
X48878Y63276D01*
X48000Y63391D01*
D02*
G37*
G36*
X23968Y18969D02*
X18032D01*
Y13032D01*
X18252D01*
X18473Y12583D01*
X18407Y12497D01*
X18108Y11775D01*
X18006Y11000D01*
X18108Y10225D01*
X18407Y9503D01*
X18883Y8883D01*
X19503Y8407D01*
X20225Y8108D01*
X21000Y8006D01*
X21775Y8108D01*
X22497Y8407D01*
X23117Y8883D01*
X23593Y9503D01*
X23892Y10225D01*
X23994Y11000D01*
X23892Y11775D01*
X23593Y12497D01*
X23527Y12583D01*
X23748Y13032D01*
X23968D01*
Y18969D01*
D02*
G37*
G36*
X96500Y13994D02*
X95725Y13892D01*
X95003Y13593D01*
X94383Y13117D01*
X93907Y12497D01*
X93608Y11775D01*
X93506Y11000D01*
X93608Y10225D01*
X93907Y9503D01*
X93973Y9417D01*
X93752Y8969D01*
X93532D01*
Y3032D01*
X99468D01*
Y8969D01*
X99248D01*
X99027Y9417D01*
X99093Y9503D01*
X99392Y10225D01*
X99494Y11000D01*
X99392Y11775D01*
X99093Y12497D01*
X98617Y13117D01*
X97997Y13593D01*
X97275Y13892D01*
X96500Y13994D01*
D02*
G37*
G36*
X71362Y-638D02*
X64638D01*
Y-7362D01*
X71362D01*
Y-638D01*
D02*
G37*
G36*
X58000Y-609D02*
X57122Y-724D01*
X56304Y-1063D01*
X55602Y-1602D01*
X55063Y-2304D01*
X54724Y-3122D01*
X54609Y-4000D01*
X54724Y-4878D01*
X55063Y-5696D01*
X55602Y-6398D01*
X56304Y-6937D01*
X57122Y-7276D01*
X58000Y-7391D01*
X58878Y-7276D01*
X59696Y-6937D01*
X60398Y-6398D01*
X60937Y-5696D01*
X61276Y-4878D01*
X61391Y-4000D01*
X61276Y-3122D01*
X60937Y-2304D01*
X60398Y-1602D01*
X59696Y-1063D01*
X58878Y-724D01*
X58000Y-609D01*
D02*
G37*
G36*
X46147Y18925D02*
X45234Y18805D01*
X44382Y18452D01*
X43651Y17891D01*
X43090Y17160D01*
X42737Y16309D01*
X42617Y15395D01*
X42737Y14481D01*
X43090Y13630D01*
X43651Y12899D01*
X44382Y12338D01*
X44571Y12259D01*
X44588Y12244D01*
X44667Y12198D01*
X44671Y12193D01*
X44701Y12154D01*
X44750Y12064D01*
X44806Y11918D01*
X44861Y11716D01*
X44907Y11475D01*
X44958Y10913D01*
Y-1466D01*
X45112Y-2240D01*
X45063Y-2304D01*
X44724Y-3122D01*
X44609Y-4000D01*
X44724Y-4878D01*
X45063Y-5696D01*
X45602Y-6398D01*
X46304Y-6937D01*
X47122Y-7276D01*
X48000Y-7391D01*
X48878Y-7276D01*
X49696Y-6937D01*
X50398Y-6398D01*
X50937Y-5696D01*
X51276Y-4878D01*
X51391Y-4000D01*
X51276Y-3122D01*
X50937Y-2304D01*
X50398Y-1602D01*
X49696Y-1063D01*
X49139Y-833D01*
X49037Y-679D01*
Y12130D01*
X49072Y12721D01*
X49138Y13262D01*
X49174Y13455D01*
X49213Y13611D01*
X49247Y13715D01*
X49296Y13826D01*
X49308Y13881D01*
X49557Y14481D01*
X49677Y15395D01*
X49557Y16309D01*
X49204Y17160D01*
X48643Y17891D01*
X47912Y18452D01*
X47061Y18805D01*
X46147Y18925D01*
D02*
G37*
%LPD*%
G36*
X22004Y33302D02*
X22024Y33044D01*
X22956D01*
X22775Y33024D01*
X22612Y32963D01*
X22469Y32864D01*
X22344Y32724D01*
X22239Y32544D01*
X22153Y32324D01*
X22101Y32122D01*
X22136Y31945D01*
X22185Y31765D01*
X22242Y31615D01*
X22306Y31495D01*
X22378Y31406D01*
X22009D01*
X22000Y31043D01*
X20000D01*
X19991Y31406D01*
X19622D01*
X19694Y31495D01*
X19758Y31615D01*
X19815Y31765D01*
X19864Y31945D01*
X19899Y32122D01*
X19847Y32324D01*
X19761Y32544D01*
X19656Y32724D01*
X19531Y32864D01*
X19388Y32963D01*
X19225Y33024D01*
X19044Y33044D01*
X19986D01*
X20000Y33664D01*
X22000D01*
X22004Y33302D01*
D02*
G37*
G36*
X48294Y14083D02*
X48232Y13893D01*
X48177Y13672D01*
X48130Y13418D01*
X48056Y12813D01*
X48012Y12078D01*
X47998Y11214D01*
X45998Y10399D01*
X45989Y10843D01*
X45918Y11617D01*
X45855Y11946D01*
X45775Y12237D01*
X45678Y12490D01*
X45562Y12705D01*
X45429Y12882D01*
X45278Y13021D01*
X45109Y13121D01*
X48364Y14239D01*
X48294Y14083D01*
D02*
G37*
D16*
X120229Y71000D02*
G03*
X120079Y71150I-150J0D01*
G01*
X120229Y71000D02*
G03*
X120079Y71150I-150J0D01*
G01*
X116142D02*
G03*
X115992Y71000I0J-150D01*
G01*
X119929Y132D02*
G03*
X119850Y-0I71J-132D01*
G01*
X116142Y55952D02*
G03*
X116292Y56102I0J150D01*
G01*
X116142Y55952D02*
G03*
X116292Y56102I0J150D01*
G01*
X116142Y71150D02*
G03*
X115992Y71000I0J-150D01*
G01*
X104481Y71000D02*
G03*
X104331Y71150I-150J0D01*
G01*
X104481Y71000D02*
G03*
X104331Y71150I-150J0D01*
G01*
X104181Y56102D02*
G03*
X104331Y55952I150J0D01*
G01*
X104181Y56102D02*
G03*
X104331Y55952I150J0D01*
G01*
Y150D02*
G03*
X104181Y0I0J-150D01*
G01*
X120150Y-132D02*
G03*
X120229Y-0I-71J132D01*
G01*
X120150Y-132D02*
G03*
X120229Y-0I-71J132D01*
G01*
X119929Y132D02*
G03*
X119850Y-0I71J-132D01*
G01*
X120000Y-15150D02*
G03*
X120150Y-15000I0J150D01*
G01*
X120000Y-15150D02*
G03*
X120150Y-15000I0J150D01*
G01*
X116292Y-0D02*
G03*
X116142Y150I-150J0D01*
G01*
X116292Y-0D02*
G03*
X116142Y150I-150J0D01*
G01*
X104331Y150D02*
G03*
X104181Y0I0J-150D01*
G01*
X115992Y-15000D02*
G03*
X116142Y-15150I150J0D01*
G01*
X115992Y-15000D02*
G03*
X116142Y-15150I150J0D01*
G01*
X104331Y-15150D02*
G03*
X104481Y-15000I0J150D01*
G01*
X15748Y71150D02*
G03*
X15598Y71000I0J-150D01*
G01*
X15748Y71150D02*
G03*
X15598Y71000I0J-150D01*
G01*
X15748Y55952D02*
G03*
X15898Y56102I0J150D01*
G01*
X15748Y55952D02*
G03*
X15898Y56102I0J150D01*
G01*
X4087Y71000D02*
G03*
X3937Y71150I-150J0D01*
G01*
X4087Y71000D02*
G03*
X3937Y71150I-150J0D01*
G01*
X-0D02*
G03*
X-150Y71000I0J-150D01*
G01*
X-0Y71150D02*
G03*
X-150Y71000I0J-150D01*
G01*
X3787Y56102D02*
G03*
X3937Y55952I150J0D01*
G01*
X3787Y56102D02*
G03*
X3937Y55952I150J0D01*
G01*
Y150D02*
G03*
X3787Y0I0J-150D01*
G01*
X15898D02*
G03*
X15748Y150I-150J0D01*
G01*
X15898Y0D02*
G03*
X15748Y150I-150J0D01*
G01*
X104331Y-15150D02*
G03*
X104481Y-15000I0J150D01*
G01*
X15598Y-15000D02*
G03*
X15748Y-15150I150J0D01*
G01*
X15598Y-15000D02*
G03*
X15748Y-15150I150J0D01*
G01*
X3937Y150D02*
G03*
X3787Y0I0J-150D01*
G01*
X-150Y-15000D02*
G03*
X-0Y-15150I150J0D01*
G01*
X3937D02*
G03*
X4087Y-15000I0J150D01*
G01*
X3937Y-15150D02*
G03*
X4087Y-15000I0J150D01*
G01*
X-150D02*
G03*
X-0Y-15150I150J0D01*
G01*
X120229Y-0D02*
Y71000D01*
X116142Y71150D02*
X120079D01*
X116292Y56102D02*
Y70850D01*
X119929D01*
X115992Y56252D02*
Y71000D01*
X104481Y56252D02*
Y71000D01*
X104331Y55952D02*
X116142D01*
X104481Y56252D02*
X115992D01*
X104331Y150D02*
X116142Y150D01*
X120150Y-15000D02*
Y-132D01*
X119929Y132D02*
Y70850D01*
X119850Y-14850D02*
Y-0D01*
X116142Y-15150D02*
X120000D01*
X116292Y-14850D02*
X119850D01*
X116292D02*
Y-0D01*
X104481Y-15000D02*
X104481Y-150D01*
X115992Y-15000D02*
Y-150D01*
X104481Y-150D02*
X115992Y-150D01*
X15898Y70850D02*
X104181Y70850D01*
X15748Y71150D02*
X104331Y71150D01*
X104181Y56102D02*
Y70850D01*
X15898Y56102D02*
Y70850D01*
X15598Y56252D02*
Y71000D01*
X3937Y55952D02*
X15748D01*
X4087Y56252D02*
X15598D01*
X3937Y150D02*
X15748D01*
X4087Y56252D02*
Y71000D01*
X-0Y71150D02*
X3937D01*
X3787Y56102D02*
Y70850D01*
X150D02*
X3787D01*
X104181Y-14850D02*
X104181Y0D01*
X15898Y-14850D02*
X15898Y0D01*
X15598Y-15000D02*
X15598Y-150D01*
X15898Y-14850D02*
X104181Y-14850D01*
X15748Y-15150D02*
X104331Y-15150D01*
X4087Y-150D02*
X15598D01*
X4087Y-15000D02*
Y-150D01*
X3787Y-14850D02*
Y0D01*
X150Y70850D02*
X150Y-14850D01*
X-150Y71000D02*
X-150Y-15000D01*
X-0Y-15150D02*
X3937D01*
X150Y-14850D02*
X3787D01*
D33*
X21000Y30000D02*
Y35000D01*
X47479Y-3479D02*
X48000Y-4000D01*
X47479Y-3479D02*
Y-1947D01*
X46998Y-1466D02*
X47479Y-1947D01*
X46998Y-1466D02*
Y15395D01*
X48000Y60000D02*
X48292Y59708D01*
Y56708D02*
Y59708D01*
Y56708D02*
X54500Y50500D01*
Y32492D02*
Y50500D01*
X47000Y25500D02*
X47508D01*
X54500Y32492D01*
D34*
X68000Y-4000D02*
D03*
Y60000D02*
D03*
D35*
X58000Y-4000D02*
D03*
X48000D02*
D03*
X58000Y60000D02*
D03*
X48000D02*
D03*
D36*
X21984Y46000D02*
D03*
X47000Y41996D02*
D03*
D37*
X96500Y16000D02*
D03*
Y11000D02*
D03*
Y46984D02*
D03*
Y41984D02*
D03*
X21000Y6000D02*
D03*
Y11000D02*
D03*
Y25000D02*
D03*
Y30000D02*
D03*
D38*
X96500Y6000D02*
D03*
Y36984D02*
D03*
X21000Y16000D02*
D03*
Y35000D02*
D03*
D39*
X77000Y31996D02*
D03*
Y41996D02*
D03*
X47000Y31996D02*
D03*
D40*
X46147Y15395D02*
D03*
Y23269D02*
D03*
M02*
