G04*
G04 #@! TF.GenerationSoftware,Altium Limited,Altium Designer,20.0.10 (225)*
G04*
G04 Layer_Color=16711935*
%FSLAX25Y25*%
%MOIN*%
G70*
G01*
G75*
%ADD12C,0.00787*%
%ADD16C,0.00300*%
G36*
X32099Y10496D02*
X32134D01*
X32172Y10492D01*
X32218Y10485D01*
X32264Y10481D01*
X32372Y10458D01*
X32483Y10431D01*
X32591Y10389D01*
X32644Y10366D01*
X32694Y10335D01*
X32698Y10331D01*
X32706Y10327D01*
X32717Y10316D01*
X32737Y10304D01*
X32783Y10266D01*
X32836Y10212D01*
X32902Y10147D01*
X32963Y10062D01*
X33028Y9966D01*
X33082Y9855D01*
Y9851D01*
X33086Y9839D01*
X33094Y9824D01*
X33101Y9801D01*
X33113Y9770D01*
X33124Y9736D01*
X33136Y9697D01*
X33147Y9651D01*
X33159Y9605D01*
X33170Y9552D01*
X33193Y9436D01*
X33209Y9313D01*
X33213Y9179D01*
Y9175D01*
Y9160D01*
Y9141D01*
X33209Y9114D01*
Y9079D01*
X33205Y9037D01*
X33201Y8995D01*
X33193Y8945D01*
X33174Y8837D01*
X33151Y8722D01*
X33113Y8603D01*
X33063Y8492D01*
Y8488D01*
X33055Y8480D01*
X33048Y8465D01*
X33036Y8442D01*
X33021Y8419D01*
X33001Y8392D01*
X32952Y8327D01*
X32894Y8254D01*
X32821Y8181D01*
X32733Y8108D01*
X32637Y8046D01*
X32633D01*
X32625Y8039D01*
X32610Y8031D01*
X32587Y8023D01*
X32564Y8012D01*
X32533Y7996D01*
X32495Y7985D01*
X32456Y7970D01*
X32414Y7954D01*
X32368Y7943D01*
X32264Y7916D01*
X32149Y7900D01*
X32026Y7893D01*
X31988D01*
X31961Y7897D01*
X31930Y7900D01*
X31892Y7904D01*
X31849Y7908D01*
X31803Y7916D01*
X31703Y7939D01*
X31596Y7973D01*
X31542Y7996D01*
X31488Y8023D01*
X31438Y8054D01*
X31389Y8089D01*
X31385Y8092D01*
X31377Y8096D01*
X31366Y8108D01*
X31346Y8123D01*
X31327Y8142D01*
X31300Y8169D01*
X31273Y8196D01*
X31247Y8227D01*
X31216Y8265D01*
X31189Y8303D01*
X31158Y8350D01*
X31128Y8400D01*
X31101Y8450D01*
X31074Y8507D01*
X31028Y8630D01*
X31358Y8707D01*
Y8703D01*
X31362Y8695D01*
X31366Y8680D01*
X31373Y8661D01*
X31385Y8638D01*
X31396Y8611D01*
X31423Y8553D01*
X31458Y8488D01*
X31504Y8419D01*
X31554Y8357D01*
X31615Y8303D01*
X31623Y8300D01*
X31646Y8284D01*
X31681Y8265D01*
X31730Y8238D01*
X31788Y8215D01*
X31861Y8196D01*
X31942Y8181D01*
X32034Y8177D01*
X32061D01*
X32080Y8181D01*
X32107D01*
X32134Y8185D01*
X32203Y8196D01*
X32280Y8211D01*
X32360Y8238D01*
X32441Y8273D01*
X32518Y8319D01*
X32521D01*
X32525Y8327D01*
X32548Y8346D01*
X32583Y8377D01*
X32625Y8419D01*
X32667Y8472D01*
X32713Y8534D01*
X32756Y8611D01*
X32790Y8695D01*
Y8699D01*
X32794Y8707D01*
X32798Y8718D01*
X32802Y8738D01*
X32809Y8757D01*
X32813Y8783D01*
X32829Y8845D01*
X32844Y8918D01*
X32855Y8999D01*
X32863Y9087D01*
X32867Y9179D01*
Y9183D01*
Y9194D01*
Y9210D01*
Y9233D01*
X32863Y9260D01*
Y9294D01*
X32859Y9329D01*
X32855Y9367D01*
X32844Y9455D01*
X32829Y9552D01*
X32806Y9647D01*
X32775Y9740D01*
Y9744D01*
X32771Y9751D01*
X32763Y9763D01*
X32756Y9778D01*
X32737Y9824D01*
X32706Y9874D01*
X32664Y9936D01*
X32614Y9993D01*
X32556Y10051D01*
X32487Y10101D01*
X32483D01*
X32479Y10104D01*
X32468Y10112D01*
X32452Y10120D01*
X32410Y10135D01*
X32356Y10158D01*
X32295Y10177D01*
X32222Y10197D01*
X32141Y10212D01*
X32057Y10216D01*
X32030D01*
X32011Y10212D01*
X31988D01*
X31957Y10208D01*
X31892Y10197D01*
X31819Y10177D01*
X31738Y10147D01*
X31661Y10108D01*
X31585Y10055D01*
X31581Y10051D01*
X31577Y10047D01*
X31554Y10024D01*
X31519Y9985D01*
X31477Y9936D01*
X31435Y9866D01*
X31389Y9786D01*
X31350Y9686D01*
X31319Y9575D01*
X30985Y9659D01*
Y9663D01*
X30989Y9678D01*
X30997Y9697D01*
X31005Y9728D01*
X31020Y9759D01*
X31035Y9801D01*
X31051Y9843D01*
X31074Y9889D01*
X31124Y9993D01*
X31193Y10097D01*
X31270Y10197D01*
X31316Y10243D01*
X31366Y10285D01*
X31369Y10289D01*
X31377Y10293D01*
X31392Y10304D01*
X31416Y10319D01*
X31442Y10335D01*
X31473Y10354D01*
X31508Y10373D01*
X31550Y10392D01*
X31596Y10412D01*
X31646Y10431D01*
X31703Y10450D01*
X31761Y10465D01*
X31888Y10492D01*
X31957Y10496D01*
X32030Y10500D01*
X32068D01*
X32099Y10496D01*
D02*
G37*
G36*
X30744Y10454D02*
Y10439D01*
Y10416D01*
X30740Y10389D01*
X30736Y10358D01*
X30732Y10323D01*
X30720Y10285D01*
X30709Y10247D01*
Y10243D01*
X30705Y10239D01*
X30697Y10216D01*
X30682Y10185D01*
X30659Y10139D01*
X30632Y10089D01*
X30594Y10032D01*
X30555Y9974D01*
X30505Y9912D01*
Y9909D01*
X30498Y9905D01*
X30479Y9882D01*
X30448Y9847D01*
X30402Y9801D01*
X30344Y9747D01*
X30275Y9682D01*
X30191Y9609D01*
X30098Y9528D01*
X30095Y9525D01*
X30079Y9513D01*
X30060Y9498D01*
X30033Y9471D01*
X29999Y9444D01*
X29960Y9409D01*
X29876Y9336D01*
X29783Y9248D01*
X29691Y9160D01*
X29645Y9118D01*
X29607Y9075D01*
X29572Y9033D01*
X29542Y8995D01*
Y8991D01*
X29534Y8987D01*
X29526Y8975D01*
X29518Y8960D01*
X29495Y8922D01*
X29469Y8872D01*
X29442Y8814D01*
X29419Y8753D01*
X29403Y8684D01*
X29396Y8618D01*
Y8615D01*
Y8611D01*
X29399Y8588D01*
X29403Y8553D01*
X29411Y8511D01*
X29430Y8461D01*
X29453Y8411D01*
X29484Y8357D01*
X29530Y8307D01*
X29538Y8303D01*
X29553Y8288D01*
X29584Y8269D01*
X29622Y8242D01*
X29672Y8219D01*
X29730Y8200D01*
X29799Y8185D01*
X29876Y8181D01*
X29899D01*
X29914Y8185D01*
X29952Y8188D01*
X30002Y8196D01*
X30060Y8215D01*
X30121Y8238D01*
X30179Y8273D01*
X30233Y8319D01*
X30237Y8327D01*
X30252Y8342D01*
X30275Y8373D01*
X30298Y8415D01*
X30325Y8469D01*
X30344Y8530D01*
X30360Y8603D01*
X30367Y8688D01*
X30686Y8653D01*
Y8649D01*
Y8638D01*
X30682Y8618D01*
X30678Y8595D01*
X30670Y8565D01*
X30667Y8530D01*
X30644Y8453D01*
X30613Y8365D01*
X30571Y8277D01*
X30513Y8188D01*
X30482Y8150D01*
X30444Y8111D01*
X30440Y8108D01*
X30433Y8104D01*
X30421Y8092D01*
X30406Y8081D01*
X30382Y8069D01*
X30356Y8050D01*
X30325Y8035D01*
X30290Y8016D01*
X30252Y8000D01*
X30210Y7981D01*
X30160Y7966D01*
X30110Y7954D01*
X29995Y7931D01*
X29933Y7927D01*
X29868Y7923D01*
X29833D01*
X29807Y7927D01*
X29776Y7931D01*
X29741Y7935D01*
X29703Y7939D01*
X29661Y7950D01*
X29568Y7973D01*
X29473Y8008D01*
X29423Y8031D01*
X29377Y8058D01*
X29334Y8092D01*
X29292Y8127D01*
X29288Y8131D01*
X29284Y8135D01*
X29273Y8146D01*
X29257Y8162D01*
X29242Y8185D01*
X29223Y8208D01*
X29184Y8265D01*
X29146Y8338D01*
X29111Y8423D01*
X29085Y8519D01*
X29081Y8572D01*
X29077Y8626D01*
Y8634D01*
Y8653D01*
X29081Y8684D01*
X29085Y8722D01*
X29092Y8768D01*
X29104Y8818D01*
X29119Y8872D01*
X29142Y8926D01*
X29146Y8933D01*
X29154Y8952D01*
X29169Y8979D01*
X29192Y9018D01*
X29219Y9064D01*
X29254Y9118D01*
X29300Y9171D01*
X29350Y9233D01*
X29357Y9240D01*
X29377Y9263D01*
X29411Y9298D01*
X29434Y9321D01*
X29461Y9348D01*
X29492Y9379D01*
X29530Y9413D01*
X29568Y9448D01*
X29611Y9490D01*
X29657Y9532D01*
X29711Y9578D01*
X29764Y9624D01*
X29826Y9678D01*
X29830Y9682D01*
X29837Y9690D01*
X29853Y9701D01*
X29872Y9717D01*
X29918Y9755D01*
X29976Y9805D01*
X30033Y9859D01*
X30095Y9912D01*
X30145Y9959D01*
X30164Y9978D01*
X30183Y9997D01*
X30187Y10001D01*
X30194Y10012D01*
X30210Y10028D01*
X30229Y10051D01*
X30271Y10101D01*
X30313Y10162D01*
X29073D01*
Y10458D01*
X30744D01*
Y10454D01*
D02*
G37*
G36*
X34464Y29103D02*
X34495Y29100D01*
X34534Y29096D01*
X34576Y29092D01*
X34622Y29084D01*
X34722Y29061D01*
X34829Y29027D01*
X34883Y29004D01*
X34937Y28977D01*
X34987Y28946D01*
X35037Y28912D01*
X35040Y28908D01*
X35048Y28904D01*
X35060Y28892D01*
X35079Y28877D01*
X35098Y28858D01*
X35125Y28831D01*
X35152Y28804D01*
X35179Y28773D01*
X35209Y28735D01*
X35236Y28696D01*
X35267Y28650D01*
X35298Y28600D01*
X35324Y28550D01*
X35351Y28493D01*
X35397Y28370D01*
X35067Y28293D01*
Y28297D01*
X35063Y28305D01*
X35060Y28320D01*
X35052Y28339D01*
X35040Y28362D01*
X35029Y28389D01*
X35002Y28447D01*
X34967Y28512D01*
X34921Y28581D01*
X34871Y28643D01*
X34810Y28696D01*
X34802Y28700D01*
X34779Y28716D01*
X34745Y28735D01*
X34695Y28762D01*
X34637Y28785D01*
X34564Y28804D01*
X34484Y28819D01*
X34391Y28823D01*
X34365D01*
X34345Y28819D01*
X34319D01*
X34292Y28815D01*
X34222Y28804D01*
X34146Y28789D01*
X34065Y28762D01*
X33984Y28727D01*
X33908Y28681D01*
X33904D01*
X33900Y28673D01*
X33877Y28654D01*
X33842Y28624D01*
X33800Y28581D01*
X33758Y28528D01*
X33712Y28466D01*
X33669Y28389D01*
X33635Y28305D01*
Y28301D01*
X33631Y28293D01*
X33627Y28282D01*
X33623Y28262D01*
X33616Y28243D01*
X33612Y28216D01*
X33597Y28155D01*
X33581Y28082D01*
X33570Y28001D01*
X33562Y27913D01*
X33558Y27821D01*
Y27817D01*
Y27806D01*
Y27790D01*
Y27767D01*
X33562Y27740D01*
Y27706D01*
X33566Y27671D01*
X33570Y27633D01*
X33581Y27544D01*
X33597Y27448D01*
X33620Y27352D01*
X33650Y27260D01*
Y27256D01*
X33654Y27249D01*
X33662Y27237D01*
X33669Y27222D01*
X33689Y27176D01*
X33719Y27126D01*
X33762Y27064D01*
X33812Y27007D01*
X33869Y26949D01*
X33938Y26899D01*
X33942D01*
X33946Y26895D01*
X33957Y26888D01*
X33973Y26880D01*
X34015Y26865D01*
X34069Y26842D01*
X34130Y26823D01*
X34203Y26803D01*
X34284Y26788D01*
X34368Y26784D01*
X34395D01*
X34414Y26788D01*
X34438D01*
X34468Y26792D01*
X34534Y26803D01*
X34607Y26823D01*
X34687Y26853D01*
X34764Y26892D01*
X34841Y26945D01*
X34844Y26949D01*
X34848Y26953D01*
X34871Y26976D01*
X34906Y27014D01*
X34948Y27064D01*
X34991Y27134D01*
X35037Y27214D01*
X35075Y27314D01*
X35106Y27425D01*
X35440Y27341D01*
Y27337D01*
X35436Y27322D01*
X35428Y27303D01*
X35421Y27272D01*
X35405Y27241D01*
X35390Y27199D01*
X35375Y27157D01*
X35351Y27110D01*
X35302Y27007D01*
X35232Y26903D01*
X35156Y26803D01*
X35109Y26757D01*
X35060Y26715D01*
X35056Y26711D01*
X35048Y26707D01*
X35033Y26696D01*
X35010Y26680D01*
X34983Y26665D01*
X34952Y26646D01*
X34918Y26627D01*
X34875Y26607D01*
X34829Y26588D01*
X34779Y26569D01*
X34722Y26550D01*
X34664Y26535D01*
X34537Y26508D01*
X34468Y26504D01*
X34395Y26500D01*
X34357D01*
X34326Y26504D01*
X34292D01*
X34253Y26508D01*
X34207Y26515D01*
X34161Y26519D01*
X34054Y26542D01*
X33942Y26569D01*
X33835Y26611D01*
X33781Y26634D01*
X33731Y26665D01*
X33727Y26669D01*
X33719Y26673D01*
X33708Y26684D01*
X33689Y26696D01*
X33643Y26734D01*
X33589Y26788D01*
X33524Y26853D01*
X33462Y26938D01*
X33397Y27034D01*
X33343Y27145D01*
Y27149D01*
X33339Y27160D01*
X33332Y27176D01*
X33324Y27199D01*
X33312Y27230D01*
X33301Y27264D01*
X33289Y27303D01*
X33278Y27349D01*
X33266Y27395D01*
X33255Y27448D01*
X33232Y27564D01*
X33216Y27687D01*
X33213Y27821D01*
Y27825D01*
Y27840D01*
Y27859D01*
X33216Y27886D01*
Y27921D01*
X33220Y27963D01*
X33224Y28005D01*
X33232Y28055D01*
X33251Y28163D01*
X33274Y28278D01*
X33312Y28397D01*
X33362Y28508D01*
Y28512D01*
X33370Y28520D01*
X33378Y28535D01*
X33389Y28558D01*
X33405Y28581D01*
X33424Y28608D01*
X33474Y28673D01*
X33531Y28746D01*
X33604Y28819D01*
X33692Y28892D01*
X33788Y28954D01*
X33792D01*
X33800Y28961D01*
X33815Y28969D01*
X33838Y28977D01*
X33862Y28988D01*
X33892Y29004D01*
X33931Y29015D01*
X33969Y29030D01*
X34011Y29046D01*
X34057Y29057D01*
X34161Y29084D01*
X34276Y29100D01*
X34399Y29107D01*
X34438D01*
X34464Y29103D01*
D02*
G37*
G36*
X36588Y29073D02*
X36638Y29065D01*
X36695Y29054D01*
X36761Y29038D01*
X36826Y29015D01*
X36891Y28984D01*
X36895D01*
X36899Y28981D01*
X36922Y28969D01*
X36953Y28950D01*
X36991Y28923D01*
X37033Y28888D01*
X37079Y28846D01*
X37122Y28796D01*
X37160Y28743D01*
X37164Y28735D01*
X37175Y28716D01*
X37191Y28685D01*
X37206Y28646D01*
X37222Y28597D01*
X37237Y28543D01*
X37248Y28485D01*
X37252Y28420D01*
Y28412D01*
Y28393D01*
X37248Y28362D01*
X37241Y28324D01*
X37229Y28278D01*
X37214Y28228D01*
X37195Y28174D01*
X37164Y28124D01*
X37160Y28117D01*
X37149Y28101D01*
X37126Y28078D01*
X37099Y28047D01*
X37060Y28013D01*
X37018Y27978D01*
X36964Y27940D01*
X36903Y27909D01*
X36907D01*
X36914Y27905D01*
X36926D01*
X36941Y27898D01*
X36980Y27886D01*
X37029Y27863D01*
X37083Y27836D01*
X37141Y27798D01*
X37198Y27752D01*
X37248Y27694D01*
X37252Y27687D01*
X37268Y27663D01*
X37287Y27629D01*
X37314Y27583D01*
X37337Y27525D01*
X37356Y27456D01*
X37371Y27376D01*
X37375Y27287D01*
Y27283D01*
Y27272D01*
Y27256D01*
X37371Y27233D01*
X37367Y27203D01*
X37364Y27172D01*
X37356Y27134D01*
X37344Y27095D01*
X37317Y27007D01*
X37298Y26957D01*
X37271Y26911D01*
X37244Y26865D01*
X37214Y26819D01*
X37175Y26773D01*
X37133Y26726D01*
X37129Y26723D01*
X37122Y26715D01*
X37110Y26707D01*
X37091Y26692D01*
X37068Y26673D01*
X37037Y26654D01*
X37003Y26634D01*
X36968Y26615D01*
X36926Y26592D01*
X36880Y26573D01*
X36830Y26554D01*
X36776Y26535D01*
X36718Y26519D01*
X36657Y26511D01*
X36592Y26504D01*
X36527Y26500D01*
X36496D01*
X36473Y26504D01*
X36442Y26508D01*
X36411Y26511D01*
X36373Y26515D01*
X36334Y26523D01*
X36246Y26546D01*
X36154Y26584D01*
X36108Y26604D01*
X36066Y26630D01*
X36020Y26661D01*
X35977Y26696D01*
X35974Y26700D01*
X35970Y26704D01*
X35958Y26715D01*
X35943Y26730D01*
X35927Y26753D01*
X35908Y26776D01*
X35885Y26803D01*
X35866Y26834D01*
X35820Y26911D01*
X35781Y26999D01*
X35747Y27099D01*
X35735Y27153D01*
X35728Y27210D01*
X36039Y27253D01*
Y27249D01*
X36043Y27241D01*
Y27226D01*
X36050Y27210D01*
X36062Y27164D01*
X36081Y27107D01*
X36104Y27045D01*
X36135Y26980D01*
X36173Y26922D01*
X36215Y26872D01*
X36223Y26869D01*
X36239Y26853D01*
X36265Y26838D01*
X36304Y26815D01*
X36346Y26796D01*
X36400Y26776D01*
X36461Y26761D01*
X36527Y26757D01*
X36549D01*
X36565Y26761D01*
X36603Y26765D01*
X36653Y26776D01*
X36715Y26796D01*
X36776Y26819D01*
X36838Y26857D01*
X36895Y26907D01*
X36903Y26915D01*
X36918Y26934D01*
X36941Y26965D01*
X36972Y27011D01*
X36999Y27064D01*
X37022Y27130D01*
X37037Y27203D01*
X37045Y27283D01*
Y27287D01*
Y27291D01*
Y27303D01*
X37041Y27318D01*
X37037Y27356D01*
X37026Y27406D01*
X37010Y27460D01*
X36983Y27521D01*
X36949Y27579D01*
X36903Y27633D01*
X36895Y27640D01*
X36880Y27656D01*
X36849Y27675D01*
X36807Y27702D01*
X36757Y27729D01*
X36695Y27748D01*
X36630Y27763D01*
X36553Y27771D01*
X36519D01*
X36492Y27767D01*
X36461Y27763D01*
X36423Y27760D01*
X36380Y27752D01*
X36334Y27740D01*
X36369Y28013D01*
X36388D01*
X36404Y28009D01*
X36454D01*
X36488Y28013D01*
X36538Y28021D01*
X36592Y28032D01*
X36649Y28051D01*
X36711Y28074D01*
X36772Y28109D01*
X36780Y28113D01*
X36799Y28128D01*
X36822Y28155D01*
X36853Y28190D01*
X36884Y28232D01*
X36907Y28286D01*
X36926Y28351D01*
X36933Y28428D01*
Y28431D01*
Y28435D01*
Y28455D01*
X36926Y28485D01*
X36918Y28528D01*
X36907Y28570D01*
X36884Y28616D01*
X36857Y28666D01*
X36818Y28708D01*
X36814Y28712D01*
X36799Y28727D01*
X36772Y28746D01*
X36738Y28766D01*
X36695Y28789D01*
X36645Y28804D01*
X36588Y28819D01*
X36523Y28823D01*
X36492D01*
X36457Y28815D01*
X36419Y28808D01*
X36369Y28796D01*
X36319Y28773D01*
X36269Y28746D01*
X36219Y28708D01*
X36215Y28704D01*
X36200Y28689D01*
X36181Y28662D01*
X36158Y28624D01*
X36131Y28577D01*
X36108Y28520D01*
X36085Y28451D01*
X36070Y28370D01*
X35759Y28424D01*
Y28428D01*
X35762Y28439D01*
X35766Y28455D01*
X35770Y28474D01*
X35778Y28501D01*
X35785Y28531D01*
X35812Y28600D01*
X35843Y28677D01*
X35889Y28758D01*
X35943Y28835D01*
X36012Y28904D01*
X36016Y28908D01*
X36020Y28912D01*
X36031Y28919D01*
X36050Y28931D01*
X36070Y28942D01*
X36092Y28958D01*
X36150Y28992D01*
X36223Y29023D01*
X36311Y29050D01*
X36407Y29069D01*
X36461Y29077D01*
X36549D01*
X36588Y29073D01*
D02*
G37*
G36*
X88324Y13367D02*
X88320Y13336D01*
Y13305D01*
X88316Y13228D01*
X88309Y13148D01*
X88293Y13063D01*
X88278Y12983D01*
X88266Y12944D01*
X88255Y12910D01*
Y12906D01*
X88251Y12902D01*
X88243Y12879D01*
X88224Y12848D01*
X88197Y12810D01*
X88166Y12764D01*
X88124Y12718D01*
X88074Y12672D01*
X88013Y12629D01*
X88005Y12626D01*
X87982Y12614D01*
X87948Y12595D01*
X87902Y12575D01*
X87844Y12556D01*
X87779Y12537D01*
X87709Y12526D01*
X87633Y12522D01*
X87629D01*
X87621D01*
X87606D01*
X87587Y12526D01*
X87564D01*
X87537Y12529D01*
X87475Y12545D01*
X87402Y12564D01*
X87329Y12595D01*
X87252Y12641D01*
X87214Y12668D01*
X87180Y12698D01*
X87172Y12706D01*
X87164Y12718D01*
X87149Y12729D01*
X87137Y12748D01*
X87118Y12771D01*
X87103Y12798D01*
X87084Y12829D01*
X87064Y12864D01*
X87045Y12906D01*
X87026Y12948D01*
X87007Y12998D01*
X86988Y13048D01*
X86972Y13105D01*
X86961Y13167D01*
X86949Y13232D01*
X86945Y13225D01*
X86938Y13209D01*
X86926Y13186D01*
X86911Y13159D01*
X86869Y13094D01*
X86845Y13059D01*
X86822Y13033D01*
X86815Y13025D01*
X86799Y13006D01*
X86769Y12979D01*
X86730Y12944D01*
X86680Y12902D01*
X86623Y12856D01*
X86558Y12806D01*
X86485Y12756D01*
X85801Y12318D01*
Y12737D01*
X86323Y13071D01*
X86327D01*
X86335Y13079D01*
X86346Y13086D01*
X86362Y13094D01*
X86400Y13121D01*
X86450Y13155D01*
X86508Y13194D01*
X86565Y13236D01*
X86619Y13274D01*
X86669Y13313D01*
X86673Y13317D01*
X86688Y13328D01*
X86711Y13347D01*
X86738Y13367D01*
X86792Y13424D01*
X86819Y13451D01*
X86838Y13482D01*
X86842Y13486D01*
X86845Y13493D01*
X86853Y13509D01*
X86865Y13528D01*
X86888Y13574D01*
X86907Y13632D01*
Y13635D01*
X86911Y13643D01*
Y13658D01*
X86915Y13678D01*
X86918Y13704D01*
Y13735D01*
X86922Y13774D01*
Y14204D01*
X85801D01*
Y14538D01*
X88324D01*
Y13367D01*
D02*
G37*
G36*
X87099Y12138D02*
X87160Y12134D01*
X87230Y12126D01*
X87306Y12119D01*
X87387Y12107D01*
X87475Y12095D01*
X87564Y12076D01*
X87652Y12053D01*
X87736Y12026D01*
X87825Y11996D01*
X87902Y11961D01*
X87978Y11919D01*
X88044Y11873D01*
X88047Y11869D01*
X88055Y11861D01*
X88070Y11850D01*
X88090Y11831D01*
X88113Y11804D01*
X88136Y11777D01*
X88163Y11742D01*
X88190Y11704D01*
X88216Y11662D01*
X88243Y11612D01*
X88266Y11562D01*
X88289Y11504D01*
X88309Y11443D01*
X88324Y11377D01*
X88332Y11308D01*
X88335Y11235D01*
Y11208D01*
X88332Y11186D01*
Y11162D01*
X88328Y11132D01*
X88316Y11063D01*
X88293Y10986D01*
X88262Y10905D01*
X88224Y10825D01*
X88197Y10786D01*
X88166Y10748D01*
Y10744D01*
X88159Y10740D01*
X88136Y10717D01*
X88097Y10686D01*
X88047Y10648D01*
X87982Y10606D01*
X87905Y10571D01*
X87813Y10537D01*
X87709Y10517D01*
X87687Y10825D01*
X87690D01*
X87694D01*
X87717Y10832D01*
X87748Y10844D01*
X87786Y10855D01*
X87875Y10894D01*
X87913Y10917D01*
X87948Y10943D01*
X87955Y10947D01*
X87971Y10967D01*
X87990Y10994D01*
X88017Y11028D01*
X88040Y11074D01*
X88063Y11128D01*
X88078Y11189D01*
X88082Y11255D01*
Y11282D01*
X88078Y11308D01*
X88070Y11343D01*
X88063Y11385D01*
X88047Y11431D01*
X88024Y11473D01*
X87998Y11519D01*
X87994Y11527D01*
X87978Y11543D01*
X87951Y11569D01*
X87917Y11600D01*
X87875Y11639D01*
X87821Y11677D01*
X87756Y11715D01*
X87683Y11750D01*
X87679D01*
X87675Y11754D01*
X87660Y11758D01*
X87644Y11761D01*
X87625Y11769D01*
X87598Y11777D01*
X87567Y11784D01*
X87533Y11792D01*
X87494Y11800D01*
X87452Y11807D01*
X87402Y11815D01*
X87352Y11823D01*
X87295Y11827D01*
X87233Y11831D01*
X87168Y11834D01*
X87103D01*
X87107Y11831D01*
X87126Y11815D01*
X87157Y11792D01*
X87195Y11758D01*
X87237Y11719D01*
X87279Y11673D01*
X87318Y11619D01*
X87352Y11562D01*
X87356Y11554D01*
X87364Y11535D01*
X87379Y11500D01*
X87395Y11458D01*
X87410Y11408D01*
X87425Y11351D01*
X87433Y11289D01*
X87437Y11224D01*
Y11193D01*
X87433Y11170D01*
X87429Y11143D01*
X87425Y11112D01*
X87410Y11039D01*
X87379Y10959D01*
X87364Y10913D01*
X87341Y10871D01*
X87314Y10825D01*
X87283Y10778D01*
X87249Y10736D01*
X87207Y10694D01*
X87203Y10690D01*
X87195Y10686D01*
X87183Y10675D01*
X87164Y10659D01*
X87141Y10644D01*
X87114Y10625D01*
X87084Y10606D01*
X87049Y10583D01*
X87007Y10563D01*
X86964Y10544D01*
X86915Y10525D01*
X86865Y10510D01*
X86807Y10494D01*
X86750Y10483D01*
X86684Y10479D01*
X86619Y10475D01*
X86615D01*
X86607D01*
X86596D01*
X86581D01*
X86558Y10479D01*
X86535D01*
X86473Y10487D01*
X86408Y10502D01*
X86331Y10517D01*
X86254Y10544D01*
X86177Y10579D01*
X86173D01*
X86170Y10583D01*
X86158Y10590D01*
X86143Y10598D01*
X86108Y10621D01*
X86062Y10652D01*
X86012Y10694D01*
X85962Y10744D01*
X85912Y10798D01*
X85866Y10863D01*
X85862Y10871D01*
X85851Y10894D01*
X85832Y10932D01*
X85812Y10978D01*
X85793Y11039D01*
X85774Y11109D01*
X85763Y11186D01*
X85759Y11266D01*
Y11282D01*
X85763Y11304D01*
Y11331D01*
X85767Y11362D01*
X85774Y11400D01*
X85782Y11443D01*
X85793Y11489D01*
X85809Y11539D01*
X85828Y11592D01*
X85851Y11642D01*
X85878Y11696D01*
X85912Y11750D01*
X85951Y11804D01*
X85993Y11854D01*
X86043Y11900D01*
X86047Y11903D01*
X86058Y11911D01*
X86074Y11923D01*
X86097Y11938D01*
X86127Y11957D01*
X86166Y11976D01*
X86212Y11999D01*
X86266Y12019D01*
X86327Y12042D01*
X86396Y12065D01*
X86473Y12084D01*
X86558Y12103D01*
X86650Y12119D01*
X86753Y12130D01*
X86861Y12138D01*
X86980Y12142D01*
X86984D01*
X86988D01*
X86999D01*
X87011D01*
X87049D01*
X87099Y12138D01*
D02*
G37*
G36*
X34464Y21103D02*
X34495Y21100D01*
X34534Y21096D01*
X34576Y21092D01*
X34622Y21084D01*
X34722Y21061D01*
X34829Y21027D01*
X34883Y21004D01*
X34937Y20977D01*
X34987Y20946D01*
X35037Y20911D01*
X35040Y20908D01*
X35048Y20904D01*
X35060Y20892D01*
X35079Y20877D01*
X35098Y20858D01*
X35125Y20831D01*
X35152Y20804D01*
X35179Y20773D01*
X35209Y20735D01*
X35236Y20696D01*
X35267Y20650D01*
X35298Y20600D01*
X35324Y20550D01*
X35351Y20493D01*
X35397Y20370D01*
X35067Y20293D01*
Y20297D01*
X35063Y20305D01*
X35060Y20320D01*
X35052Y20339D01*
X35040Y20362D01*
X35029Y20389D01*
X35002Y20447D01*
X34967Y20512D01*
X34921Y20581D01*
X34871Y20643D01*
X34810Y20696D01*
X34802Y20700D01*
X34779Y20716D01*
X34745Y20735D01*
X34695Y20762D01*
X34637Y20785D01*
X34564Y20804D01*
X34484Y20819D01*
X34391Y20823D01*
X34365D01*
X34345Y20819D01*
X34319D01*
X34292Y20816D01*
X34222Y20804D01*
X34146Y20789D01*
X34065Y20762D01*
X33984Y20727D01*
X33908Y20681D01*
X33904D01*
X33900Y20673D01*
X33877Y20654D01*
X33842Y20624D01*
X33800Y20581D01*
X33758Y20527D01*
X33712Y20466D01*
X33669Y20389D01*
X33635Y20305D01*
Y20301D01*
X33631Y20293D01*
X33627Y20282D01*
X33623Y20263D01*
X33616Y20243D01*
X33612Y20216D01*
X33597Y20155D01*
X33581Y20082D01*
X33570Y20001D01*
X33562Y19913D01*
X33558Y19821D01*
Y19817D01*
Y19805D01*
Y19790D01*
Y19767D01*
X33562Y19740D01*
Y19706D01*
X33566Y19671D01*
X33570Y19633D01*
X33581Y19544D01*
X33597Y19448D01*
X33620Y19352D01*
X33650Y19260D01*
Y19256D01*
X33654Y19249D01*
X33662Y19237D01*
X33669Y19222D01*
X33689Y19176D01*
X33719Y19126D01*
X33762Y19064D01*
X33812Y19007D01*
X33869Y18949D01*
X33938Y18899D01*
X33942D01*
X33946Y18895D01*
X33957Y18888D01*
X33973Y18880D01*
X34015Y18865D01*
X34069Y18842D01*
X34130Y18823D01*
X34203Y18803D01*
X34284Y18788D01*
X34368Y18784D01*
X34395D01*
X34414Y18788D01*
X34438D01*
X34468Y18792D01*
X34534Y18803D01*
X34607Y18823D01*
X34687Y18853D01*
X34764Y18892D01*
X34841Y18945D01*
X34844Y18949D01*
X34848Y18953D01*
X34871Y18976D01*
X34906Y19015D01*
X34948Y19064D01*
X34991Y19133D01*
X35037Y19214D01*
X35075Y19314D01*
X35106Y19425D01*
X35440Y19341D01*
Y19337D01*
X35436Y19322D01*
X35428Y19302D01*
X35421Y19272D01*
X35405Y19241D01*
X35390Y19199D01*
X35375Y19157D01*
X35351Y19110D01*
X35302Y19007D01*
X35232Y18903D01*
X35156Y18803D01*
X35109Y18757D01*
X35060Y18715D01*
X35056Y18711D01*
X35048Y18707D01*
X35033Y18696D01*
X35010Y18680D01*
X34983Y18665D01*
X34952Y18646D01*
X34918Y18627D01*
X34875Y18608D01*
X34829Y18588D01*
X34779Y18569D01*
X34722Y18550D01*
X34664Y18534D01*
X34537Y18508D01*
X34468Y18504D01*
X34395Y18500D01*
X34357D01*
X34326Y18504D01*
X34292D01*
X34253Y18508D01*
X34207Y18515D01*
X34161Y18519D01*
X34054Y18542D01*
X33942Y18569D01*
X33835Y18611D01*
X33781Y18634D01*
X33731Y18665D01*
X33727Y18669D01*
X33719Y18673D01*
X33708Y18684D01*
X33689Y18696D01*
X33643Y18734D01*
X33589Y18788D01*
X33524Y18853D01*
X33462Y18938D01*
X33397Y19034D01*
X33343Y19145D01*
Y19149D01*
X33339Y19160D01*
X33332Y19176D01*
X33324Y19199D01*
X33312Y19230D01*
X33301Y19264D01*
X33289Y19302D01*
X33278Y19349D01*
X33266Y19395D01*
X33255Y19448D01*
X33232Y19564D01*
X33216Y19687D01*
X33213Y19821D01*
Y19825D01*
Y19840D01*
Y19859D01*
X33216Y19886D01*
Y19921D01*
X33220Y19963D01*
X33224Y20005D01*
X33232Y20055D01*
X33251Y20163D01*
X33274Y20278D01*
X33312Y20397D01*
X33362Y20508D01*
Y20512D01*
X33370Y20520D01*
X33378Y20535D01*
X33389Y20558D01*
X33405Y20581D01*
X33424Y20608D01*
X33474Y20673D01*
X33531Y20746D01*
X33604Y20819D01*
X33692Y20892D01*
X33788Y20954D01*
X33792D01*
X33800Y20961D01*
X33815Y20969D01*
X33838Y20977D01*
X33862Y20988D01*
X33892Y21004D01*
X33931Y21015D01*
X33969Y21031D01*
X34011Y21046D01*
X34057Y21057D01*
X34161Y21084D01*
X34276Y21100D01*
X34399Y21107D01*
X34438D01*
X34464Y21103D01*
D02*
G37*
G36*
X36891Y18542D02*
X36580D01*
Y20516D01*
X36576Y20512D01*
X36561Y20497D01*
X36534Y20478D01*
X36500Y20451D01*
X36457Y20416D01*
X36407Y20381D01*
X36350Y20339D01*
X36285Y20301D01*
X36281D01*
X36277Y20297D01*
X36254Y20282D01*
X36219Y20263D01*
X36177Y20240D01*
X36127Y20213D01*
X36073Y20189D01*
X36016Y20163D01*
X35962Y20140D01*
Y20443D01*
X35966D01*
X35974Y20447D01*
X35989Y20455D01*
X36004Y20466D01*
X36027Y20478D01*
X36054Y20489D01*
X36116Y20524D01*
X36185Y20566D01*
X36261Y20616D01*
X36338Y20673D01*
X36411Y20735D01*
X36415Y20739D01*
X36419Y20742D01*
X36442Y20765D01*
X36476Y20800D01*
X36519Y20842D01*
X36565Y20896D01*
X36611Y20954D01*
X36653Y21015D01*
X36688Y21077D01*
X36891D01*
Y18542D01*
D02*
G37*
%LPC*%
G36*
X88044Y14204D02*
X87210D01*
Y13451D01*
X87214Y13409D01*
X87218Y13359D01*
X87222Y13301D01*
X87230Y13240D01*
X87241Y13182D01*
X87256Y13132D01*
X87260Y13125D01*
X87264Y13109D01*
X87276Y13086D01*
X87291Y13059D01*
X87314Y13029D01*
X87341Y12994D01*
X87372Y12963D01*
X87406Y12936D01*
X87410Y12933D01*
X87425Y12925D01*
X87445Y12913D01*
X87475Y12902D01*
X87506Y12890D01*
X87544Y12879D01*
X87587Y12871D01*
X87633Y12867D01*
X87637D01*
X87640D01*
X87663D01*
X87694Y12875D01*
X87736Y12883D01*
X87783Y12898D01*
X87832Y12921D01*
X87882Y12956D01*
X87928Y12998D01*
X87932Y13006D01*
X87948Y13021D01*
X87967Y13056D01*
X87986Y13098D01*
X88009Y13155D01*
X88024Y13225D01*
X88040Y13309D01*
X88044Y13409D01*
Y14204D01*
D02*
G37*
G36*
X86615Y11784D02*
X86607D01*
X86588D01*
X86558Y11781D01*
X86519Y11777D01*
X86469Y11769D01*
X86419Y11758D01*
X86365Y11742D01*
X86308Y11719D01*
X86300Y11715D01*
X86285Y11708D01*
X86258Y11692D01*
X86227Y11669D01*
X86189Y11642D01*
X86154Y11612D01*
X86116Y11573D01*
X86085Y11531D01*
X86081Y11527D01*
X86074Y11508D01*
X86062Y11485D01*
X86051Y11454D01*
X86035Y11416D01*
X86024Y11370D01*
X86016Y11324D01*
X86012Y11274D01*
Y11255D01*
X86016Y11239D01*
X86020Y11205D01*
X86031Y11155D01*
X86051Y11105D01*
X86077Y11047D01*
X86116Y10990D01*
X86170Y10936D01*
X86177Y10928D01*
X86200Y10913D01*
X86235Y10890D01*
X86281Y10863D01*
X86343Y10840D01*
X86419Y10817D01*
X86504Y10802D01*
X86600Y10794D01*
X86604D01*
X86611D01*
X86627D01*
X86642Y10798D01*
X86665D01*
X86692Y10802D01*
X86750Y10809D01*
X86815Y10828D01*
X86884Y10851D01*
X86949Y10886D01*
X87011Y10932D01*
X87018Y10940D01*
X87034Y10955D01*
X87061Y10986D01*
X87087Y11028D01*
X87114Y11078D01*
X87141Y11139D01*
X87157Y11208D01*
X87164Y11285D01*
Y11304D01*
X87160Y11320D01*
X87157Y11358D01*
X87145Y11408D01*
X87126Y11462D01*
X87099Y11523D01*
X87061Y11581D01*
X87011Y11639D01*
X87003Y11646D01*
X86984Y11662D01*
X86949Y11685D01*
X86907Y11711D01*
X86849Y11738D01*
X86780Y11761D01*
X86703Y11777D01*
X86615Y11784D01*
D02*
G37*
%LPD*%
D12*
X38528Y7547D02*
Y13453D01*
X27898D02*
X38528D01*
X27898Y7547D02*
Y13453D01*
Y7547D02*
X38528D01*
X28685Y24335D02*
Y28665D01*
Y24335D02*
X37740D01*
Y28665D01*
X28685D02*
X37740D01*
X84236Y19065D02*
X88764D01*
X84236Y10010D02*
Y19065D01*
Y10010D02*
X88764D01*
Y19065D01*
X27898Y15547D02*
Y21453D01*
Y15547D02*
X38528D01*
Y21453D01*
X27898D02*
X38528D01*
D16*
X120229Y71000D02*
G03*
X120079Y71150I-150J0D01*
G01*
X120229Y71000D02*
G03*
X120079Y71150I-150J0D01*
G01*
X116142D02*
G03*
X115992Y71000I0J-150D01*
G01*
X119929Y132D02*
G03*
X119850Y-0I71J-132D01*
G01*
X116142Y55952D02*
G03*
X116292Y56102I0J150D01*
G01*
X116142Y55952D02*
G03*
X116292Y56102I0J150D01*
G01*
X116142Y71150D02*
G03*
X115992Y71000I0J-150D01*
G01*
X104481Y71000D02*
G03*
X104331Y71150I-150J0D01*
G01*
X104481Y71000D02*
G03*
X104331Y71150I-150J0D01*
G01*
X104181Y56102D02*
G03*
X104331Y55952I150J0D01*
G01*
X104181Y56102D02*
G03*
X104331Y55952I150J0D01*
G01*
Y150D02*
G03*
X104181Y0I0J-150D01*
G01*
X120150Y-132D02*
G03*
X120229Y-0I-71J132D01*
G01*
X120150Y-132D02*
G03*
X120229Y-0I-71J132D01*
G01*
X119929Y132D02*
G03*
X119850Y-0I71J-132D01*
G01*
X120000Y-15150D02*
G03*
X120150Y-15000I0J150D01*
G01*
X120000Y-15150D02*
G03*
X120150Y-15000I0J150D01*
G01*
X116292Y-0D02*
G03*
X116142Y150I-150J0D01*
G01*
X116292Y-0D02*
G03*
X116142Y150I-150J0D01*
G01*
X104331Y150D02*
G03*
X104181Y0I0J-150D01*
G01*
X115992Y-15000D02*
G03*
X116142Y-15150I150J0D01*
G01*
X115992Y-15000D02*
G03*
X116142Y-15150I150J0D01*
G01*
X104331Y-15150D02*
G03*
X104481Y-15000I0J150D01*
G01*
X15748Y71150D02*
G03*
X15598Y71000I0J-150D01*
G01*
X15748Y71150D02*
G03*
X15598Y71000I0J-150D01*
G01*
X15748Y55952D02*
G03*
X15898Y56102I0J150D01*
G01*
X15748Y55952D02*
G03*
X15898Y56102I0J150D01*
G01*
X4087Y71000D02*
G03*
X3937Y71150I-150J0D01*
G01*
X4087Y71000D02*
G03*
X3937Y71150I-150J0D01*
G01*
X-0D02*
G03*
X-150Y71000I0J-150D01*
G01*
X-0Y71150D02*
G03*
X-150Y71000I0J-150D01*
G01*
X3787Y56102D02*
G03*
X3937Y55952I150J0D01*
G01*
X3787Y56102D02*
G03*
X3937Y55952I150J0D01*
G01*
Y150D02*
G03*
X3787Y0I0J-150D01*
G01*
X15898D02*
G03*
X15748Y150I-150J0D01*
G01*
X15898Y0D02*
G03*
X15748Y150I-150J0D01*
G01*
X104331Y-15150D02*
G03*
X104481Y-15000I0J150D01*
G01*
X15598Y-15000D02*
G03*
X15748Y-15150I150J0D01*
G01*
X15598Y-15000D02*
G03*
X15748Y-15150I150J0D01*
G01*
X3937Y150D02*
G03*
X3787Y0I0J-150D01*
G01*
X-150Y-15000D02*
G03*
X-0Y-15150I150J0D01*
G01*
X3937D02*
G03*
X4087Y-15000I0J150D01*
G01*
X3937Y-15150D02*
G03*
X4087Y-15000I0J150D01*
G01*
X-150D02*
G03*
X-0Y-15150I150J0D01*
G01*
X120229Y-0D02*
Y71000D01*
X116142Y71150D02*
X120079D01*
X116292Y56102D02*
Y70850D01*
X119929D01*
X115992Y56252D02*
Y71000D01*
X104481Y56252D02*
Y71000D01*
X104331Y55952D02*
X116142D01*
X104481Y56252D02*
X115992D01*
X104331Y150D02*
X116142Y150D01*
X120150Y-15000D02*
Y-132D01*
X119929Y132D02*
Y70850D01*
X119850Y-14850D02*
Y-0D01*
X116142Y-15150D02*
X120000D01*
X116292Y-14850D02*
X119850D01*
X116292D02*
Y-0D01*
X104481Y-15000D02*
X104481Y-150D01*
X115992Y-15000D02*
Y-150D01*
X104481Y-150D02*
X115992Y-150D01*
X15898Y70850D02*
X104181Y70850D01*
X15748Y71150D02*
X104331Y71150D01*
X104181Y56102D02*
Y70850D01*
X15898Y56102D02*
Y70850D01*
X15598Y56252D02*
Y71000D01*
X3937Y55952D02*
X15748D01*
X4087Y56252D02*
X15598D01*
X3937Y150D02*
X15748D01*
X4087Y56252D02*
Y71000D01*
X-0Y71150D02*
X3937D01*
X3787Y56102D02*
Y70850D01*
X150D02*
X3787D01*
X104181Y-14850D02*
X104181Y0D01*
X15898Y-14850D02*
X15898Y0D01*
X15598Y-15000D02*
X15598Y-150D01*
X15898Y-14850D02*
X104181Y-14850D01*
X15748Y-15150D02*
X104331Y-15150D01*
X4087Y-150D02*
X15598D01*
X4087Y-15000D02*
Y-150D01*
X3787Y-14850D02*
Y0D01*
X150Y70850D02*
X150Y-14850D01*
X-150Y71000D02*
X-150Y-15000D01*
X-0Y-15150D02*
X3937D01*
X150Y-14850D02*
X3787D01*
M02*
