G04*
G04 #@! TF.GenerationSoftware,Altium Limited,Altium Designer,20.0.10 (225)*
G04*
G04 Layer_Physical_Order=1*
G04 Layer_Color=255*
%FSLAX25Y25*%
%MOIN*%
G70*
G01*
G75*
%ADD16C,0.00300*%
%ADD17R,0.05118X0.03937*%
%ADD18R,0.03150X0.03543*%
%ADD19R,0.02756X0.02756*%
%ADD20R,0.02953X0.03347*%
%ADD21R,0.04331X0.03937*%
%ADD22R,0.03543X0.02559*%
%ADD33C,0.02000*%
%ADD34R,0.04724X0.04724*%
%ADD35C,0.04724*%
%ADD36R,0.05906X0.05906*%
%ADD37C,0.03937*%
%ADD38R,0.03937X0.03937*%
%ADD39C,0.05906*%
%ADD40C,0.05000*%
G36*
X104331Y56102D02*
X116142D01*
Y71000D01*
X120079D01*
Y-0D01*
X120000D01*
Y-15000D01*
X116142D01*
Y-0D01*
X104331Y0D01*
X104331Y-15000D01*
X15748Y-15000D01*
X15748Y0D01*
X3937D01*
Y-15000D01*
X-0D01*
X-0Y71000D01*
X3937D01*
Y56102D01*
X15748D01*
Y71000D01*
X104331Y71000D01*
Y56102D01*
D02*
G37*
%LPC*%
G36*
X58000Y63391D02*
X57122Y63276D01*
X56304Y62937D01*
X55602Y62398D01*
X55063Y61696D01*
X54724Y60878D01*
X54609Y60000D01*
X54724Y59122D01*
X55063Y58304D01*
X55602Y57602D01*
X56304Y57063D01*
X57122Y56724D01*
X58000Y56609D01*
X58878Y56724D01*
X59696Y57063D01*
X60398Y57602D01*
X60937Y58304D01*
X61276Y59122D01*
X61391Y60000D01*
X61276Y60878D01*
X60937Y61696D01*
X60398Y62398D01*
X59696Y62937D01*
X58878Y63276D01*
X58000Y63391D01*
D02*
G37*
G36*
X48000D02*
X47122Y63276D01*
X46304Y62937D01*
X45602Y62398D01*
X45063Y61696D01*
X44724Y60878D01*
X44609Y60000D01*
X44724Y59122D01*
X45063Y58304D01*
X45602Y57602D01*
X46304Y57063D01*
X47122Y56724D01*
X48000Y56609D01*
X48878Y56724D01*
X49696Y57063D01*
X50398Y57602D01*
X50937Y58304D01*
X51276Y59122D01*
X51391Y60000D01*
X51276Y60878D01*
X50937Y61696D01*
X50398Y62398D01*
X49696Y62937D01*
X48878Y63276D01*
X48000Y63391D01*
D02*
G37*
G36*
X23968Y37969D02*
X18032D01*
Y33160D01*
X18030Y33155D01*
X18032Y33138D01*
Y33082D01*
X18024Y33044D01*
X18032Y33005D01*
Y32032D01*
X18252D01*
X18473Y31583D01*
X18407Y31497D01*
X18108Y30775D01*
X18006Y30000D01*
X18108Y29225D01*
X18407Y28503D01*
X18883Y27883D01*
X19503Y27407D01*
X20225Y27108D01*
X21000Y27006D01*
X21487Y27070D01*
X21530Y27050D01*
X21636Y26987D01*
X21759Y26901D01*
X22227Y26501D01*
X23670Y25058D01*
X24332Y24616D01*
X25112Y24461D01*
X27834D01*
X28079Y24442D01*
Y24122D01*
X28973D01*
X28976Y24121D01*
X28990Y24122D01*
X29053D01*
X29091Y24114D01*
X29129Y24122D01*
X32835D01*
Y28878D01*
X29129D01*
X29091Y28885D01*
X29053Y28878D01*
X28990D01*
X28976Y28879D01*
X28973Y28878D01*
X28079D01*
Y28574D01*
X27634Y28539D01*
X25957D01*
X24510Y29986D01*
X24250Y30266D01*
X24003Y30566D01*
X23934Y30661D01*
X23900Y30716D01*
X23892Y30775D01*
X23593Y31497D01*
X23527Y31583D01*
X23748Y32032D01*
X23968D01*
Y33005D01*
X23976Y33044D01*
X23968Y33082D01*
Y33138D01*
X23970Y33155D01*
X23968Y33160D01*
Y37969D01*
D02*
G37*
G36*
X71362Y63362D02*
X64638D01*
Y56638D01*
X71362D01*
Y57861D01*
X71388Y57872D01*
X71540Y57912D01*
X71754Y57948D01*
X71903Y57961D01*
X80655D01*
X80961Y57655D01*
Y51000D01*
X81116Y50220D01*
X81558Y49558D01*
X86058Y45058D01*
X86720Y44616D01*
X87500Y44461D01*
X90527D01*
X92639Y42349D01*
X93116Y41851D01*
X93448Y41463D01*
X93548Y41333D01*
X93602Y41253D01*
X93608Y41209D01*
X93907Y40487D01*
X93973Y40401D01*
X93752Y39953D01*
X93532D01*
Y34016D01*
X98925D01*
X99132Y33516D01*
X90058Y24442D01*
X89616Y23780D01*
X89461Y23000D01*
Y20093D01*
X89272Y19672D01*
X88603D01*
X88578Y19790D01*
X88539Y20202D01*
Y40328D01*
X88384Y41109D01*
X87942Y41770D01*
X87942Y41770D01*
X86770Y42942D01*
X86109Y43384D01*
X85328Y43539D01*
X82291D01*
X81994Y43562D01*
X81626Y43612D01*
X81303Y43679D01*
X81027Y43760D01*
X80797Y43851D01*
X80611Y43950D01*
X80465Y44052D01*
X80353Y44155D01*
X80218Y44321D01*
X80163Y44367D01*
X79819Y44815D01*
X78993Y45449D01*
X78032Y45847D01*
X77000Y45983D01*
X75968Y45847D01*
X75007Y45449D01*
X74181Y44815D01*
X73547Y43990D01*
X73149Y43028D01*
X73013Y41996D01*
X73149Y40964D01*
X73547Y40003D01*
X74181Y39177D01*
X75007Y38543D01*
X75968Y38145D01*
X77000Y38009D01*
X78032Y38145D01*
X78993Y38543D01*
X79236Y38729D01*
X79289Y38751D01*
X79511Y38896D01*
X79720Y39007D01*
X79958Y39110D01*
X80228Y39202D01*
X80529Y39284D01*
X80861Y39353D01*
X81213Y39406D01*
X81911Y39461D01*
X84461D01*
Y20135D01*
X84454Y20038D01*
X84425Y19806D01*
X84398Y19672D01*
X83728D01*
Y18698D01*
X83721Y18660D01*
X83728Y18621D01*
Y15113D01*
X86839D01*
X87027Y14613D01*
X86812Y14413D01*
X86518Y14178D01*
X86259Y13997D01*
X86199Y13963D01*
X83728D01*
Y9404D01*
X88175D01*
X88196Y9398D01*
X88238Y9404D01*
X88275D01*
X88318Y9398D01*
X88341Y9404D01*
X89272D01*
Y10331D01*
X89277Y10353D01*
X89288Y10520D01*
X89309Y10639D01*
X89350Y10778D01*
X89415Y10937D01*
X89505Y11114D01*
X89623Y11309D01*
X89763Y11509D01*
X90075Y11883D01*
X92942Y14750D01*
X93384Y15411D01*
X93539Y16191D01*
Y22155D01*
X102942Y31558D01*
X102942Y31558D01*
X103384Y32220D01*
X103539Y33000D01*
X103539Y33000D01*
Y45813D01*
X103384Y46593D01*
X102942Y47255D01*
X102942Y47255D01*
X101770Y48426D01*
X101109Y48868D01*
X100328Y49023D01*
X99379D01*
X99228Y49029D01*
X98788Y49071D01*
X98652Y49094D01*
X98616Y49102D01*
X97997Y49577D01*
X97275Y49876D01*
X96500Y49978D01*
X95725Y49876D01*
X95003Y49577D01*
X94383Y49101D01*
X93907Y48481D01*
X93636Y47827D01*
X93146Y47610D01*
X92814Y47942D01*
X92152Y48384D01*
X91372Y48539D01*
X88345D01*
X85039Y51845D01*
Y58500D01*
X84884Y59280D01*
X84442Y59942D01*
X82942Y61442D01*
X82280Y61884D01*
X81500Y62039D01*
X71903D01*
X71754Y62052D01*
X71540Y62088D01*
X71388Y62129D01*
X71362Y62139D01*
Y63362D01*
D02*
G37*
G36*
X25937Y49953D02*
X18032D01*
Y42047D01*
X22768D01*
X22806Y42040D01*
X22845Y42047D01*
X22922D01*
X22949Y42031D01*
X23103Y41920D01*
X23723Y41377D01*
X24542Y40558D01*
X25204Y40116D01*
X25984Y39961D01*
X28155D01*
X28319Y39797D01*
Y37053D01*
X28300Y36734D01*
X28293Y36673D01*
X27882D01*
Y35699D01*
X27874Y35661D01*
X27882Y35623D01*
Y31327D01*
X32500D01*
X32835Y31327D01*
X33335Y31327D01*
X37953D01*
Y35623D01*
X37960Y35661D01*
X37953Y35699D01*
Y36673D01*
X37551D01*
X37516Y37128D01*
Y37632D01*
X39845Y39961D01*
X42506D01*
X42656Y39948D01*
X42870Y39912D01*
X43022Y39871D01*
X43047Y39861D01*
Y38043D01*
X50953D01*
Y39857D01*
X50978Y39868D01*
X51130Y39908D01*
X51345Y39944D01*
X51494Y39957D01*
X54159D01*
X56461Y37655D01*
Y20159D01*
X56448Y20010D01*
X56412Y19796D01*
X56371Y19644D01*
X56361Y19618D01*
X54941D01*
Y13681D01*
X61447D01*
Y9885D01*
X61435Y9823D01*
Y8421D01*
X45963D01*
X42442Y11942D01*
X41780Y12384D01*
X41000Y12539D01*
X39204D01*
X39106Y12546D01*
X38875Y12575D01*
X38740Y12603D01*
Y13272D01*
X37909D01*
X37897Y13279D01*
X36414Y14570D01*
X35756Y15228D01*
X35963Y15728D01*
X37690D01*
X37728Y15721D01*
X37766Y15728D01*
X38740D01*
Y16398D01*
X38859Y16422D01*
X39270Y16461D01*
X42292D01*
X42692Y15961D01*
X42617Y15395D01*
X42737Y14481D01*
X43090Y13630D01*
X43651Y12899D01*
X44382Y12338D01*
X45234Y11985D01*
X46147Y11865D01*
X47061Y11985D01*
X47912Y12338D01*
X48643Y12899D01*
X49204Y13630D01*
X49557Y14481D01*
X49677Y15395D01*
X49557Y16309D01*
X49204Y17160D01*
X48643Y17891D01*
X47912Y18452D01*
X47061Y18805D01*
X46382Y18894D01*
X45968Y19309D01*
X46233Y19750D01*
X47061Y19859D01*
X47912Y20212D01*
X48643Y20773D01*
X49204Y21504D01*
X49557Y22355D01*
X49677Y23269D01*
X49557Y24183D01*
X49204Y25034D01*
X48643Y25765D01*
X47912Y26326D01*
X47061Y26679D01*
X46147Y26799D01*
X46145Y26799D01*
X45395Y27464D01*
X44918Y27942D01*
X44256Y28384D01*
X43476Y28539D01*
X38591D01*
X38346Y28558D01*
Y28878D01*
X37453D01*
X37449Y28879D01*
X37436Y28878D01*
X37373D01*
X37334Y28885D01*
X37296Y28878D01*
X33591D01*
Y24122D01*
X37296D01*
X37334Y24114D01*
X37373Y24122D01*
X37436D01*
X37449Y24121D01*
X37453Y24122D01*
X38346D01*
Y24426D01*
X38791Y24461D01*
X42311D01*
X42415Y24393D01*
X42713Y23995D01*
X42617Y23269D01*
X42737Y22355D01*
X43090Y21504D01*
X43447Y21039D01*
X43200Y20539D01*
X39204D01*
X39106Y20546D01*
X38875Y20575D01*
X38740Y20603D01*
Y21272D01*
X37766D01*
X37728Y21279D01*
X37690Y21272D01*
X33591D01*
Y16311D01*
X32835D01*
Y21272D01*
X28735D01*
X28697Y21279D01*
X28659Y21272D01*
X27685D01*
Y20603D01*
X27566Y20578D01*
X27155Y20539D01*
X23500D01*
X22720Y20384D01*
X22058Y19942D01*
X21085Y18969D01*
X18032D01*
Y13032D01*
X18252D01*
X18473Y12583D01*
X18407Y12497D01*
X18108Y11775D01*
X18006Y11000D01*
X18108Y10225D01*
X18407Y9503D01*
X18883Y8883D01*
X19503Y8407D01*
X20225Y8108D01*
X21000Y8006D01*
X21775Y8108D01*
X22497Y8407D01*
X23117Y8883D01*
X23593Y9503D01*
X23892Y10225D01*
X23994Y11000D01*
X23892Y11775D01*
X23593Y12497D01*
X23527Y12583D01*
X23748Y13032D01*
X23968D01*
Y16085D01*
X24345Y16461D01*
X26633D01*
X26795Y16023D01*
X26785Y15961D01*
X26415Y15714D01*
X26415Y15714D01*
X25243Y14542D01*
X24801Y13880D01*
X24646Y13100D01*
Y-7685D01*
X24801Y-8465D01*
X25243Y-9127D01*
X28058Y-11942D01*
X28720Y-12384D01*
X29500Y-12539D01*
X67328D01*
X68109Y-12384D01*
X68770Y-11942D01*
X69942Y-10770D01*
X69942Y-10770D01*
X70384Y-10109D01*
X70539Y-9328D01*
Y-7861D01*
X70548Y-7740D01*
X70580Y-7516D01*
X70615Y-7362D01*
X71362D01*
Y-6388D01*
X71370Y-6350D01*
X71362Y-6312D01*
Y-638D01*
X64638D01*
Y-7362D01*
X66358D01*
X66372Y-7397D01*
X66413Y-7547D01*
X66448Y-7759D01*
X66461Y-7906D01*
Y-8461D01*
X30345D01*
X28724Y-6840D01*
Y2090D01*
X29224Y2242D01*
X29232Y2230D01*
X30404Y1058D01*
X30404Y1058D01*
X31066Y616D01*
X31846Y461D01*
X70372D01*
X71153Y616D01*
X71814Y1058D01*
X72986Y2230D01*
X72986Y2230D01*
X73428Y2891D01*
X73583Y3672D01*
Y7279D01*
X73596Y7426D01*
X73631Y7638D01*
X73672Y7788D01*
X73686Y7823D01*
X74292D01*
X74332Y7815D01*
X74343Y7818D01*
X74355Y7816D01*
X74615Y7823D01*
X74793D01*
X81558Y1058D01*
X82220Y616D01*
X83000Y461D01*
X93000D01*
X93780Y616D01*
X94442Y1058D01*
X95639Y2255D01*
X96002Y2592D01*
X96299Y2830D01*
X96559Y3011D01*
X96595Y3032D01*
X97334D01*
X97372Y3024D01*
X97410Y3032D01*
X99468D01*
Y8969D01*
X99248D01*
X99027Y9417D01*
X99093Y9503D01*
X99392Y10225D01*
X99494Y11000D01*
X99392Y11775D01*
X99093Y12497D01*
X98617Y13117D01*
X97997Y13593D01*
X97275Y13892D01*
X96500Y13994D01*
X95725Y13892D01*
X95003Y13593D01*
X94383Y13117D01*
X93907Y12497D01*
X93608Y11775D01*
X93506Y11000D01*
X93608Y10225D01*
X93907Y9503D01*
X93973Y9417D01*
X93752Y8969D01*
X93532D01*
Y6910D01*
X93524Y6872D01*
X93532Y6834D01*
Y6095D01*
X93511Y6059D01*
X93338Y5811D01*
X92849Y5233D01*
X92155Y4539D01*
X83845D01*
X77071Y11313D01*
X76410Y11755D01*
X75629Y11910D01*
X75338D01*
Y13760D01*
X69008D01*
Y8873D01*
X69000Y8835D01*
X69008Y8797D01*
Y7823D01*
X69462D01*
X69505Y7335D01*
Y4539D01*
X63984D01*
X63844Y5039D01*
X64916Y6112D01*
X64916Y6112D01*
X65358Y6773D01*
X65513Y7553D01*
Y7823D01*
X67778D01*
Y13760D01*
X62059D01*
Y19618D01*
X60639D01*
X60628Y19644D01*
X60588Y19796D01*
X60552Y20010D01*
X60539Y20159D01*
Y38500D01*
X60539Y38500D01*
X60384Y39280D01*
X59942Y39942D01*
X59942Y39942D01*
X56446Y43438D01*
X55784Y43880D01*
X55004Y44035D01*
X51494D01*
X51345Y44048D01*
X51130Y44084D01*
X50978Y44124D01*
X50953Y44135D01*
Y45949D01*
X43047D01*
Y44139D01*
X43022Y44129D01*
X42870Y44088D01*
X42656Y44052D01*
X42506Y44039D01*
X39000D01*
X39000Y44039D01*
X38220Y43884D01*
X37558Y43442D01*
X37558Y43442D01*
X34034Y39918D01*
X33592Y39257D01*
X33437Y38476D01*
Y37162D01*
X33148Y36673D01*
X32508Y36673D01*
X32397Y37159D01*
Y40642D01*
X32242Y41422D01*
X31800Y42084D01*
X30442Y43442D01*
X29780Y43884D01*
X29000Y44039D01*
X26829D01*
X26549Y44319D01*
X26245Y44654D01*
X26076Y44864D01*
X25953Y45035D01*
X25937Y45062D01*
Y45140D01*
X25945Y45178D01*
X25937Y45216D01*
Y49953D01*
D02*
G37*
G36*
X58000Y-609D02*
X57122Y-724D01*
X56304Y-1063D01*
X55602Y-1602D01*
X55063Y-2304D01*
X54724Y-3122D01*
X54609Y-4000D01*
X54724Y-4878D01*
X55063Y-5696D01*
X55602Y-6398D01*
X56304Y-6937D01*
X57122Y-7276D01*
X58000Y-7391D01*
X58878Y-7276D01*
X59696Y-6937D01*
X60398Y-6398D01*
X60937Y-5696D01*
X61276Y-4878D01*
X61391Y-4000D01*
X61276Y-3122D01*
X60937Y-2304D01*
X60398Y-1602D01*
X59696Y-1063D01*
X58878Y-724D01*
X58000Y-609D01*
D02*
G37*
G36*
X48000D02*
X47122Y-724D01*
X46304Y-1063D01*
X45602Y-1602D01*
X45063Y-2304D01*
X44724Y-3122D01*
X44609Y-4000D01*
X44724Y-4878D01*
X45063Y-5696D01*
X45602Y-6398D01*
X46304Y-6937D01*
X47122Y-7276D01*
X48000Y-7391D01*
X48878Y-7276D01*
X49696Y-6937D01*
X50398Y-6398D01*
X50937Y-5696D01*
X51276Y-4878D01*
X51391Y-4000D01*
X51276Y-3122D01*
X50937Y-2304D01*
X50398Y-1602D01*
X49696Y-1063D01*
X48878Y-724D01*
X48000Y-609D01*
D02*
G37*
%LPD*%
G36*
X22004Y33302D02*
X22024Y33044D01*
X22956D01*
X22775Y33024D01*
X22612Y32963D01*
X22469Y32864D01*
X22344Y32724D01*
X22239Y32544D01*
X22153Y32324D01*
X22101Y32122D01*
X22136Y31945D01*
X22185Y31765D01*
X22242Y31615D01*
X22306Y31495D01*
X22378Y31406D01*
X22009D01*
X22000Y31043D01*
X20000D01*
X19991Y31406D01*
X19622D01*
X19694Y31495D01*
X19758Y31615D01*
X19815Y31765D01*
X19864Y31945D01*
X19899Y32122D01*
X19847Y32324D01*
X19761Y32544D01*
X19656Y32724D01*
X19531Y32864D01*
X19388Y32963D01*
X19225Y33024D01*
X19044Y33044D01*
X19986D01*
X20000Y33664D01*
X22000D01*
X22004Y33302D01*
D02*
G37*
G36*
X22954Y30325D02*
X23009Y30217D01*
X23089Y30090D01*
X23195Y29944D01*
X23482Y29594D01*
X24102Y28927D01*
X24360Y28667D01*
X23324Y26874D01*
X23065Y27127D01*
X22383Y27709D01*
X22188Y27845D01*
X22009Y27951D01*
X21846Y28028D01*
X21698Y28076D01*
X21567Y28095D01*
X21452Y28084D01*
X22925Y30414D01*
X22954Y30325D01*
D02*
G37*
G36*
X29091Y25134D02*
X29071Y25204D01*
X29011Y25266D01*
X28911Y25321D01*
X28771Y25368D01*
X28591Y25409D01*
X28371Y25442D01*
X27811Y25485D01*
X27091Y25500D01*
Y27500D01*
X27471Y27504D01*
X28591Y27591D01*
X28771Y27632D01*
X28911Y27679D01*
X29011Y27734D01*
X29071Y27796D01*
X29091Y27866D01*
Y25134D01*
D02*
G37*
G36*
X70358Y61810D02*
X70419Y61640D01*
X70519Y61490D01*
X70660Y61360D01*
X70841Y61250D01*
X71062Y61160D01*
X71324Y61090D01*
X71626Y61040D01*
X71968Y61010D01*
X72350Y61000D01*
Y59000D01*
X71968Y58990D01*
X71626Y58960D01*
X71324Y58910D01*
X71062Y58840D01*
X70841Y58750D01*
X70660Y58640D01*
X70519Y58510D01*
X70419Y58360D01*
X70358Y58190D01*
X70338Y58000D01*
Y62000D01*
X70358Y61810D01*
D02*
G37*
G36*
X98046Y48229D02*
X98149Y48177D01*
X98285Y48132D01*
X98454Y48093D01*
X98656Y48060D01*
X99160Y48011D01*
X99796Y47987D01*
X100164Y47984D01*
Y45984D01*
X99796Y45981D01*
X98656Y45909D01*
X98454Y45875D01*
X98285Y45836D01*
X98149Y45791D01*
X98046Y45740D01*
X97976Y45682D01*
Y48286D01*
X98046Y48229D01*
D02*
G37*
G36*
X94415Y44878D02*
X95108Y44284D01*
X95306Y44146D01*
X95487Y44037D01*
X95652Y43958D01*
X95801Y43909D01*
X95933Y43890D01*
X96048Y43900D01*
X94576Y41570D01*
X94542Y41664D01*
X94475Y41784D01*
X94374Y41931D01*
X94240Y42105D01*
X93873Y42535D01*
X92737Y43721D01*
X94151Y45135D01*
X94415Y44878D01*
D02*
G37*
G36*
X79608Y43455D02*
X79825Y43255D01*
X80079Y43078D01*
X80369Y42925D01*
X80694Y42795D01*
X81056Y42689D01*
X81453Y42606D01*
X81887Y42547D01*
X82357Y42512D01*
X82862Y42500D01*
X82499Y40500D01*
X82006Y40491D01*
X81097Y40419D01*
X80682Y40357D01*
X80292Y40276D01*
X79928Y40178D01*
X79590Y40061D01*
X79278Y39927D01*
X78992Y39774D01*
X78732Y39604D01*
X79426Y43679D01*
X79608Y43455D01*
D02*
G37*
G36*
X87508Y20280D02*
X87568Y19640D01*
X87621Y19380D01*
X87690Y19160D01*
X87774Y18980D01*
X87872Y18840D01*
X87986Y18740D01*
X88115Y18680D01*
X88260Y18660D01*
X84740D01*
X84885Y18680D01*
X85014Y18740D01*
X85128Y18840D01*
X85227Y18980D01*
X85310Y19160D01*
X85378Y19380D01*
X85432Y19640D01*
X85470Y19940D01*
X85492Y20280D01*
X85500Y20660D01*
X87500D01*
X87508Y20280D01*
D02*
G37*
G36*
X89674Y12951D02*
X89405Y12671D01*
X88952Y12129D01*
X88769Y11867D01*
X88613Y11610D01*
X88486Y11360D01*
X88387Y11115D01*
X88316Y10876D01*
X88274Y10643D01*
X88260Y10416D01*
X85431Y12939D01*
X85593Y12834D01*
X85781Y12785D01*
X85997Y12790D01*
X86239Y12850D01*
X86509Y12965D01*
X86805Y13135D01*
X87128Y13360D01*
X87479Y13640D01*
X88260Y14365D01*
X89674Y12951D01*
D02*
G37*
G36*
X24876Y45093D02*
X24869Y44980D01*
X24904Y44839D01*
X24982Y44670D01*
X25102Y44472D01*
X25265Y44246D01*
X25470Y43992D01*
X26007Y43398D01*
X26339Y43059D01*
X24925Y41645D01*
X24586Y41977D01*
X23738Y42719D01*
X23512Y42882D01*
X23314Y43002D01*
X23145Y43080D01*
X23004Y43115D01*
X22891Y43108D01*
X22806Y43059D01*
X24925Y45178D01*
X24876Y45093D01*
D02*
G37*
G36*
X44071Y40000D02*
X44051Y40190D01*
X43991Y40360D01*
X43890Y40510D01*
X43749Y40640D01*
X43568Y40750D01*
X43347Y40840D01*
X43085Y40910D01*
X42784Y40960D01*
X42441Y40990D01*
X42059Y41000D01*
Y43000D01*
X42441Y43010D01*
X42784Y43040D01*
X43085Y43090D01*
X43347Y43160D01*
X43568Y43250D01*
X43749Y43360D01*
X43890Y43490D01*
X43991Y43640D01*
X44051Y43810D01*
X44071Y44000D01*
Y40000D01*
D02*
G37*
G36*
X49949Y43806D02*
X50009Y43636D01*
X50110Y43486D01*
X50251Y43356D01*
X50432Y43246D01*
X50653Y43156D01*
X50915Y43086D01*
X51216Y43036D01*
X51559Y43006D01*
X51941Y42996D01*
Y40996D01*
X51559Y40986D01*
X51216Y40956D01*
X50915Y40906D01*
X50653Y40836D01*
X50432Y40746D01*
X50251Y40636D01*
X50110Y40506D01*
X50009Y40356D01*
X49949Y40186D01*
X49929Y39996D01*
Y43996D01*
X49949Y43806D01*
D02*
G37*
G36*
X36481Y37281D02*
X36551Y36381D01*
X36593Y36161D01*
X36643Y35981D01*
X36704Y35841D01*
X36774Y35741D01*
X36852Y35681D01*
X36941Y35661D01*
X34012D01*
X34100Y35681D01*
X34179Y35741D01*
X34249Y35841D01*
X34309Y35981D01*
X34360Y36161D01*
X34402Y36381D01*
X34435Y36641D01*
X34472Y37281D01*
X34476Y37661D01*
X36476D01*
X36481Y37281D01*
D02*
G37*
G36*
X31363D02*
X31433Y36381D01*
X31474Y36161D01*
X31525Y35981D01*
X31586Y35841D01*
X31655Y35741D01*
X31734Y35681D01*
X31823Y35661D01*
X28894D01*
X28982Y35681D01*
X29061Y35741D01*
X29131Y35841D01*
X29191Y35981D01*
X29242Y36161D01*
X29284Y36381D01*
X29316Y36641D01*
X29354Y37281D01*
X29358Y37661D01*
X31358D01*
X31363Y37281D01*
D02*
G37*
G36*
X37354Y27796D02*
X37415Y27734D01*
X37514Y27679D01*
X37655Y27632D01*
X37835Y27591D01*
X38054Y27559D01*
X38614Y27515D01*
X39334Y27500D01*
Y25500D01*
X38954Y25496D01*
X37835Y25409D01*
X37655Y25368D01*
X37514Y25321D01*
X37415Y25266D01*
X37354Y25204D01*
X37334Y25134D01*
Y27866D01*
X37354Y27796D01*
D02*
G37*
G36*
X44466Y26926D02*
X45780Y25759D01*
X45826Y25748D01*
X43892Y24349D01*
X43900Y24402D01*
X43881Y24476D01*
X43835Y24570D01*
X43762Y24684D01*
X43663Y24818D01*
X43385Y25147D01*
X42769Y25793D01*
X44183Y27207D01*
X44466Y26926D01*
D02*
G37*
G36*
X59510Y20224D02*
X59540Y19882D01*
X59590Y19580D01*
X59660Y19318D01*
X59750Y19097D01*
X59860Y18916D01*
X59990Y18775D01*
X60140Y18675D01*
X60310Y18614D01*
X60500Y18594D01*
X56500D01*
X56690Y18614D01*
X56860Y18675D01*
X57010Y18775D01*
X57140Y18916D01*
X57250Y19097D01*
X57340Y19318D01*
X57410Y19580D01*
X57460Y19882D01*
X57490Y20224D01*
X57500Y20606D01*
X59500D01*
X59510Y20224D01*
D02*
G37*
G36*
X37748Y20115D02*
X37808Y19986D01*
X37908Y19872D01*
X38048Y19773D01*
X38228Y19690D01*
X38448Y19622D01*
X38708Y19568D01*
X39008Y19530D01*
X39348Y19508D01*
X39728Y19500D01*
Y17500D01*
X39348Y17492D01*
X38708Y17432D01*
X38448Y17379D01*
X38228Y17310D01*
X38048Y17226D01*
X37908Y17128D01*
X37808Y17014D01*
X37748Y16885D01*
X37728Y16740D01*
Y20260D01*
X37748Y20115D01*
D02*
G37*
G36*
X28697Y16740D02*
X28677Y16885D01*
X28617Y17014D01*
X28517Y17128D01*
X28377Y17226D01*
X28197Y17310D01*
X27977Y17379D01*
X27717Y17432D01*
X27417Y17470D01*
X27077Y17492D01*
X26697Y17500D01*
Y19500D01*
X27077Y19508D01*
X27717Y19568D01*
X27977Y19622D01*
X28197Y19690D01*
X28377Y19773D01*
X28517Y19872D01*
X28617Y19986D01*
X28677Y20115D01*
X28697Y20260D01*
Y16740D01*
D02*
G37*
G36*
X35541Y13978D02*
X37296Y12451D01*
X37473Y12344D01*
X37617Y12281D01*
X37728Y12260D01*
X34603Y10669D01*
X34757Y10783D01*
X34846Y10935D01*
X34869Y11124D01*
X34826Y11351D01*
X34718Y11615D01*
X34543Y11916D01*
X34303Y12255D01*
X33997Y12632D01*
X33188Y13498D01*
X35133Y14381D01*
X35541Y13978D01*
D02*
G37*
G36*
X74328Y11116D02*
X74367Y11065D01*
X74433Y11019D01*
X74525Y10980D01*
X74644Y10947D01*
X74788Y10919D01*
X74959Y10898D01*
X75380Y10874D01*
X75629Y10871D01*
Y8871D01*
X74326Y8835D01*
X74314Y11174D01*
X74328Y11116D01*
D02*
G37*
G36*
X37748Y12115D02*
X37808Y11986D01*
X37908Y11872D01*
X38048Y11773D01*
X38228Y11690D01*
X38448Y11621D01*
X38708Y11568D01*
X39008Y11530D01*
X39348Y11508D01*
X39728Y11500D01*
Y9500D01*
X39348Y9492D01*
X38708Y9432D01*
X38448Y9379D01*
X38228Y9310D01*
X38048Y9227D01*
X37908Y9128D01*
X37808Y9014D01*
X37748Y8885D01*
X37728Y8740D01*
Y12260D01*
X37748Y12115D01*
D02*
G37*
G36*
X64702Y8822D02*
X64654Y8784D01*
X64612Y8720D01*
X64575Y8630D01*
X64544Y8514D01*
X64519Y8373D01*
X64499Y8207D01*
X64477Y7797D01*
X64474Y7553D01*
X62474D01*
X62459Y8835D01*
X64755D01*
X64702Y8822D01*
D02*
G37*
G36*
X73354Y8815D02*
X73184Y8755D01*
X73034Y8655D01*
X72904Y8515D01*
X72794Y8335D01*
X72704Y8115D01*
X72634Y7855D01*
X72584Y7555D01*
X72554Y7215D01*
X72544Y6835D01*
X70544D01*
X70539Y7215D01*
X70460Y8115D01*
X70413Y8335D01*
X70355Y8515D01*
X70287Y8655D01*
X70208Y8755D01*
X70119Y8815D01*
X70020Y8835D01*
X73544D01*
X73354Y8815D01*
D02*
G37*
G36*
X31795Y8720D02*
X31769Y8660D01*
X31747Y8560D01*
X31728Y8420D01*
X31698Y8020D01*
X31675Y6740D01*
X29675D01*
X29665Y7120D01*
X29635Y7460D01*
X29586Y7760D01*
X29518Y8020D01*
X29430Y8240D01*
X29323Y8420D01*
X29195Y8560D01*
X29049Y8660D01*
X28883Y8720D01*
X28697Y8740D01*
X31823D01*
X31795Y8720D01*
D02*
G37*
G36*
X33591Y11441D02*
Y10627D01*
X33586Y10590D01*
X33591Y10574D01*
Y7728D01*
X37690D01*
X37728Y7721D01*
X37766Y7728D01*
X38740D01*
Y8398D01*
X38859Y8422D01*
X39270Y8461D01*
X40155D01*
X43577Y5039D01*
X43437Y4539D01*
X32714D01*
Y7728D01*
X32835D01*
Y8702D01*
X32842Y8740D01*
X32835Y8778D01*
Y11505D01*
X33317Y11693D01*
X33591Y11441D01*
D02*
G37*
G36*
X97372Y4044D02*
X97216Y4157D01*
X97032Y4213D01*
X96820D01*
X96580Y4157D01*
X96311Y4044D01*
X96014Y3874D01*
X95689Y3647D01*
X95336Y3365D01*
X94543Y2629D01*
X93129Y4044D01*
X93525Y4454D01*
X94147Y5189D01*
X94374Y5514D01*
X94543Y5811D01*
X94657Y6080D01*
X94713Y6320D01*
Y6532D01*
X94657Y6716D01*
X94543Y6872D01*
X97372Y4044D01*
D02*
G37*
G36*
X70189Y-6370D02*
X70044Y-6430D01*
X69917Y-6530D01*
X69806Y-6670D01*
X69713Y-6850D01*
X69636Y-7070D01*
X69577Y-7330D01*
X69534Y-7630D01*
X69508Y-7970D01*
X69500Y-8350D01*
X67500D01*
X67490Y-7970D01*
X67460Y-7630D01*
X67410Y-7330D01*
X67340Y-7070D01*
X67250Y-6850D01*
X67140Y-6670D01*
X67010Y-6530D01*
X66860Y-6430D01*
X66690Y-6370D01*
X66500Y-6350D01*
X70350D01*
X70189Y-6370D01*
D02*
G37*
D16*
X120229Y71000D02*
G03*
X120079Y71150I-150J0D01*
G01*
X120229Y71000D02*
G03*
X120079Y71150I-150J0D01*
G01*
X116142D02*
G03*
X115992Y71000I0J-150D01*
G01*
X119929Y132D02*
G03*
X119850Y-0I71J-132D01*
G01*
X116142Y55952D02*
G03*
X116292Y56102I0J150D01*
G01*
X116142Y55952D02*
G03*
X116292Y56102I0J150D01*
G01*
X116142Y71150D02*
G03*
X115992Y71000I0J-150D01*
G01*
X104481Y71000D02*
G03*
X104331Y71150I-150J0D01*
G01*
X104481Y71000D02*
G03*
X104331Y71150I-150J0D01*
G01*
X104181Y56102D02*
G03*
X104331Y55952I150J0D01*
G01*
X104181Y56102D02*
G03*
X104331Y55952I150J0D01*
G01*
Y150D02*
G03*
X104181Y0I0J-150D01*
G01*
X120150Y-132D02*
G03*
X120229Y-0I-71J132D01*
G01*
X120150Y-132D02*
G03*
X120229Y-0I-71J132D01*
G01*
X119929Y132D02*
G03*
X119850Y-0I71J-132D01*
G01*
X120000Y-15150D02*
G03*
X120150Y-15000I0J150D01*
G01*
X120000Y-15150D02*
G03*
X120150Y-15000I0J150D01*
G01*
X116292Y-0D02*
G03*
X116142Y150I-150J0D01*
G01*
X116292Y-0D02*
G03*
X116142Y150I-150J0D01*
G01*
X104331Y150D02*
G03*
X104181Y0I0J-150D01*
G01*
X115992Y-15000D02*
G03*
X116142Y-15150I150J0D01*
G01*
X115992Y-15000D02*
G03*
X116142Y-15150I150J0D01*
G01*
X104331Y-15150D02*
G03*
X104481Y-15000I0J150D01*
G01*
X15748Y71150D02*
G03*
X15598Y71000I0J-150D01*
G01*
X15748Y71150D02*
G03*
X15598Y71000I0J-150D01*
G01*
X15748Y55952D02*
G03*
X15898Y56102I0J150D01*
G01*
X15748Y55952D02*
G03*
X15898Y56102I0J150D01*
G01*
X4087Y71000D02*
G03*
X3937Y71150I-150J0D01*
G01*
X4087Y71000D02*
G03*
X3937Y71150I-150J0D01*
G01*
X-0D02*
G03*
X-150Y71000I0J-150D01*
G01*
X-0Y71150D02*
G03*
X-150Y71000I0J-150D01*
G01*
X3787Y56102D02*
G03*
X3937Y55952I150J0D01*
G01*
X3787Y56102D02*
G03*
X3937Y55952I150J0D01*
G01*
Y150D02*
G03*
X3787Y0I0J-150D01*
G01*
X15898D02*
G03*
X15748Y150I-150J0D01*
G01*
X15898Y0D02*
G03*
X15748Y150I-150J0D01*
G01*
X104331Y-15150D02*
G03*
X104481Y-15000I0J150D01*
G01*
X15598Y-15000D02*
G03*
X15748Y-15150I150J0D01*
G01*
X15598Y-15000D02*
G03*
X15748Y-15150I150J0D01*
G01*
X3937Y150D02*
G03*
X3787Y0I0J-150D01*
G01*
X-150Y-15000D02*
G03*
X-0Y-15150I150J0D01*
G01*
X3937D02*
G03*
X4087Y-15000I0J150D01*
G01*
X3937Y-15150D02*
G03*
X4087Y-15000I0J150D01*
G01*
X-150D02*
G03*
X-0Y-15150I150J0D01*
G01*
X120229Y-0D02*
Y71000D01*
X116142Y71150D02*
X120079D01*
X116292Y56102D02*
Y70850D01*
X119929D01*
X115992Y56252D02*
Y71000D01*
X104481Y56252D02*
Y71000D01*
X104331Y55952D02*
X116142D01*
X104481Y56252D02*
X115992D01*
X104331Y150D02*
X116142Y150D01*
X120150Y-15000D02*
Y-132D01*
X119929Y132D02*
Y70850D01*
X119850Y-14850D02*
Y-0D01*
X116142Y-15150D02*
X120000D01*
X116292Y-14850D02*
X119850D01*
X116292D02*
Y-0D01*
X104481Y-15000D02*
X104481Y-150D01*
X115992Y-15000D02*
Y-150D01*
X104481Y-150D02*
X115992Y-150D01*
X15898Y70850D02*
X104181Y70850D01*
X15748Y71150D02*
X104331Y71150D01*
X104181Y56102D02*
Y70850D01*
X15898Y56102D02*
Y70850D01*
X15598Y56252D02*
Y71000D01*
X3937Y55952D02*
X15748D01*
X4087Y56252D02*
X15598D01*
X3937Y150D02*
X15748D01*
X4087Y56252D02*
Y71000D01*
X-0Y71150D02*
X3937D01*
X3787Y56102D02*
Y70850D01*
X150D02*
X3787D01*
X104181Y-14850D02*
X104181Y0D01*
X15898Y-14850D02*
X15898Y0D01*
X15598Y-15000D02*
X15598Y-150D01*
X15898Y-14850D02*
X104181Y-14850D01*
X15748Y-15150D02*
X104331Y-15150D01*
X4087Y-150D02*
X15598D01*
X4087Y-15000D02*
Y-150D01*
X3787Y-14850D02*
Y0D01*
X150Y70850D02*
X150Y-14850D01*
X-150Y71000D02*
X-150Y-15000D01*
X-0Y-15150D02*
X3937D01*
X150Y-14850D02*
X3787D01*
D17*
X58500Y10350D02*
D03*
Y16650D02*
D03*
D18*
X30260Y10500D02*
D03*
X36165D02*
D03*
Y18500D02*
D03*
X30260D02*
D03*
D19*
X35969Y26500D02*
D03*
X30457D02*
D03*
D20*
X35476Y34000D02*
D03*
X30358D02*
D03*
D21*
X64613Y16303D02*
D03*
Y10791D02*
D03*
X72173Y16303D02*
D03*
Y10791D02*
D03*
D22*
X86500Y11683D02*
D03*
Y17392D02*
D03*
D33*
X45118Y6382D02*
X62303D01*
X63474Y7553D01*
X64443Y10791D02*
X64613D01*
X63474Y9823D02*
X64443Y10791D01*
X63474Y7553D02*
Y9823D01*
X21000Y30000D02*
Y35000D01*
X101500Y33000D02*
Y45813D01*
X96500Y46984D02*
X100328D01*
X101500Y45813D01*
X87272Y11963D02*
X91500Y16191D01*
X87272Y11963D02*
Y11963D01*
X91500Y16191D02*
Y23000D01*
X86992Y11683D02*
X87272Y11963D01*
X91500Y23000D02*
X101500Y33000D01*
X83000Y51000D02*
Y58500D01*
X87500Y46500D02*
X91372D01*
X83000Y51000D02*
X87500Y46500D01*
X91372D02*
X94856Y43016D01*
X94944D01*
X95976Y41984D01*
X96500D01*
X68000Y60000D02*
X81500D01*
X83000Y58500D01*
X86500Y11683D02*
X86992D01*
X93000Y2500D02*
X96500Y6000D01*
X83000Y2500D02*
X93000D01*
X72173Y10791D02*
X73093Y9871D01*
X75629D01*
X83000Y2500D01*
X29500Y-10500D02*
X67328D01*
X26685Y-7685D02*
Y13100D01*
Y-7685D02*
X29500Y-10500D01*
X68500Y-9328D02*
Y-4500D01*
X67328Y-10500D02*
X68500Y-9328D01*
X68000Y-4000D02*
X68500Y-4500D01*
X36000Y10665D02*
Y12100D01*
X33828Y14272D02*
X36000Y12100D01*
X27857Y14272D02*
X33828D01*
X26685Y13100D02*
X27857Y14272D01*
X36000Y10665D02*
X36165Y10500D01*
X30674Y3672D02*
Y10085D01*
Y3672D02*
X31846Y2500D01*
X70372D02*
X71544Y3672D01*
X31846Y2500D02*
X70372D01*
X41000Y10500D02*
X45118Y6382D01*
X71544Y3672D02*
Y10162D01*
X36165Y10500D02*
X41000D01*
X43476Y26500D02*
X46147Y23828D01*
X35969Y26500D02*
X43476D01*
X46147Y23269D02*
Y23828D01*
X45052Y24364D02*
X46147Y23269D01*
X43892Y18500D02*
X46998Y15395D01*
X36165Y18500D02*
X43892D01*
X21000Y16000D02*
X23500Y18500D01*
X30260D01*
X77496Y41500D02*
X85328D01*
X86500Y17392D02*
X86500Y17392D01*
Y40328D01*
X85328Y41500D02*
X86500Y40328D01*
X77000Y41996D02*
X77496Y41500D01*
X46996Y42000D02*
X47000Y41996D01*
X39000Y42000D02*
X46996D01*
X35476Y34000D02*
Y38476D01*
X39000Y42000D01*
X30358Y34000D02*
Y40642D01*
X29000Y42000D02*
X30358Y40642D01*
X25984Y42000D02*
X29000D01*
X21984Y46000D02*
X25984Y42000D01*
X25112Y26500D02*
X30457D01*
X21983Y29629D02*
X25112Y26500D01*
X21371Y29629D02*
X21983D01*
X21000Y30000D02*
X21371Y29629D01*
X30260Y10500D02*
X30674Y10085D01*
X71544Y10162D02*
X72173Y10791D01*
X47000Y41996D02*
X55004D01*
X58500Y16650D02*
Y38500D01*
X55004Y41996D02*
X58500Y38500D01*
D34*
X68000Y-4000D02*
D03*
Y60000D02*
D03*
D35*
X58000Y-4000D02*
D03*
X48000D02*
D03*
X58000Y60000D02*
D03*
X48000D02*
D03*
D36*
X21984Y46000D02*
D03*
X47000Y41996D02*
D03*
D37*
X96500Y16000D02*
D03*
Y11000D02*
D03*
Y46984D02*
D03*
Y41984D02*
D03*
X21000Y6000D02*
D03*
Y11000D02*
D03*
Y25000D02*
D03*
Y30000D02*
D03*
D38*
X96500Y6000D02*
D03*
Y36984D02*
D03*
X21000Y16000D02*
D03*
Y35000D02*
D03*
D39*
X77000Y31996D02*
D03*
Y41996D02*
D03*
X47000Y31996D02*
D03*
D40*
X46147Y15395D02*
D03*
Y23269D02*
D03*
M02*
